<svg width="40" height="40" viewBox="0 0 40 40" fill="none" xmlns="http://www.w3.org/2000/svg">
<path d="M35.0461 32.9278C18.5364 40.7851 8.29028 34.2111 1.73142 30.2183C1.32556 29.9666 0.635737 30.2771 1.23425 30.9646C3.41933 33.614 10.5803 40 19.9275 40C29.2811 40 34.8456 34.8963 35.5417 34.0059C36.2331 33.1231 35.7447 32.6362 35.046 32.9278H35.0461ZM39.6828 30.3672C39.2395 29.7898 36.9869 29.6822 35.5693 29.8563C34.1495 30.0255 32.0184 30.8932 32.2037 31.4142C32.2987 31.6094 32.4928 31.5218 33.4682 31.4341C34.4462 31.3365 37.186 30.9908 37.7569 31.7371C38.3305 32.4885 36.8831 36.0683 36.6187 36.6457C36.3633 37.223 36.7163 37.3719 37.196 36.9874C37.6692 36.603 38.5258 35.6076 39.1006 34.1989C39.6715 32.7825 40.0197 30.8067 39.6827 30.3672H39.6828Z" fill="#FF9900"/>
<path fillRule="evenodd" clipRule="evenodd" d="M23.9451 16.8952C23.9451 18.9568 23.9972 20.6761 22.9552 22.5069C22.1141 23.9956 20.7819 24.911 19.2934 24.911C17.2614 24.911 16.078 23.3629 16.078 21.078C16.078 16.5676 20.1194 15.749 23.9451 15.749V16.8952ZM29.2816 29.7936C28.9317 30.1061 28.4256 30.1285 28.0312 29.92C26.2747 28.4613 25.962 27.7841 24.9945 26.3922C22.0919 29.3545 20.0376 30.2401 16.2716 30.2401C11.8208 30.2401 8.35242 27.4937 8.35242 21.9935C8.35242 17.6991 10.6821 14.774 13.994 13.345C16.867 12.0796 20.8787 11.8564 23.9451 11.5067V10.8219C23.9451 9.56398 24.0418 8.07546 23.3051 6.98888C22.6574 6.01385 21.422 5.61191 20.3352 5.61191C18.3183 5.61191 16.5171 6.6464 16.078 8.78991C15.9886 9.26637 15.6389 9.7353 15.1626 9.75758L10.027 9.20691C9.59541 9.10996 9.11911 8.76026 9.23819 8.09774C10.4216 1.87571 16.0407 0 21.072 0C23.6472 0 27.0113 0.6848 29.0433 2.63487C31.6185 5.03881 31.3728 8.24662 31.3728 11.7373V19.9839C31.3728 22.4624 32.4 23.549 33.3675 24.8888C33.7098 25.3651 33.7843 25.9383 33.3526 26.2954C32.2733 27.1959 30.3531 28.8706 29.2963 29.8085L29.2814 29.7936" fill="black"/>
<path d="M35.0461 32.9278C18.5364 40.7851 8.29028 34.2111 1.73142 30.2183C1.32556 29.9666 0.635737 30.2771 1.23425 30.9646C3.41933 33.614 10.5803 40 19.9275 40C29.2811 40 34.8456 34.8963 35.5417 34.0059C36.2331 33.1231 35.7447 32.6362 35.046 32.9278H35.0461ZM39.6828 30.3672C39.2395 29.7898 36.9869 29.6822 35.5693 29.8563C34.1495 30.0255 32.0184 30.8932 32.2037 31.4142C32.2987 31.6094 32.4928 31.5218 33.4682 31.4341C34.4462 31.3365 37.186 30.9908 37.7569 31.7371C38.3305 32.4885 36.8831 36.0683 36.6187 36.6457C36.3633 37.223 36.7163 37.3719 37.196 36.9874C37.6692 36.603 38.5258 35.6076 39.1006 34.1989C39.6715 32.7825 40.0197 30.8067 39.6827 30.3672H39.6828Z" fill="#FF9900"/>
<path fillRule="evenodd" clipRule="evenodd" d="M23.9451 16.8952C23.9451 18.9568 23.9972 20.6761 22.9552 22.5069C22.1141 23.9956 20.7819 24.911 19.2934 24.911C17.2614 24.911 16.078 23.3629 16.078 21.078C16.078 16.5676 20.1194 15.749 23.9451 15.749V16.8952ZM29.2816 29.7936C28.9317 30.1061 28.4256 30.1285 28.0312 29.92C26.2747 28.4613 25.962 27.7841 24.9945 26.3922C22.0919 29.3545 20.0376 30.2401 16.2716 30.2401C11.8208 30.2401 8.35242 27.4937 8.35242 21.9935C8.35242 17.6991 10.6821 14.774 13.994 13.345C16.867 12.0796 20.8787 11.8564 23.9451 11.5067V10.8219C23.9451 9.56398 24.0418 8.07546 23.3051 6.98888C22.6574 6.01385 21.422 5.61191 20.3352 5.61191C18.3183 5.61191 16.5171 6.6464 16.078 8.78991C15.9886 9.26637 15.6389 9.7353 15.1626 9.75758L10.027 9.20691C9.59541 9.10996 9.11911 8.76026 9.23819 8.09774C10.4216 1.87571 16.0407 0 21.072 0C23.6472 0 27.0113 0.6848 29.0433 2.63487C31.6185 5.03881 31.3728 8.24662 31.3728 11.7373V19.9839C31.3728 22.4624 32.4 23.549 33.3675 24.8888C33.7098 25.3651 33.7843 25.9383 33.3526 26.2954C32.2733 27.1959 30.3531 28.8706 29.2963 29.8085L29.2814 29.7936" fill="black"/>
</svg>
