<?xml version="1.0" encoding="UTF-8"?>
<svg version="1.1" xmlns="http://www.w3.org/2000/svg" width="64" height="64">
<path d="M0 0 C7.67536627 -0.02312821 15.35072896 -0.04091753 23.02612209 -0.05181217 C26.58977422 -0.05703995 30.15340257 -0.06413569 33.71704102 -0.07543945 C37.81006097 -0.08834176 41.9030558 -0.09322906 45.99609375 -0.09765625 C47.92418129 -0.10539818 47.92418129 -0.10539818 49.89122009 -0.11329651 C51.66294334 -0.11340981 51.66294334 -0.11340981 53.47045898 -0.11352539 C55.03932106 -0.11685631 55.03932106 -0.11685631 56.63987732 -0.12025452 C59 0 59 0 60 1 C59.88789112 6.49333503 58.31990056 9.9642915 54.9447937 14.28192139 C51.30415786 17.49814867 47.26141295 17.18134377 42.59765625 17.1328125 C41.60172958 17.14520966 40.60580292 17.15760681 39.57969666 17.17037964 C37.4793589 17.18454895 35.37879591 17.17827377 33.27856445 17.15283203 C30.07276009 17.12508879 26.87864503 17.1932085 23.67382812 17.26953125 C8.97836374 17.38115223 8.97836374 17.38115223 3.99951172 13.90527344 C0.4871266 9.19911919 -0.09212717 5.78830856 0 0 Z " fill="#2A2A2A" transform="translate(2,15)"/>
<path d="M0 0 C0.33 0.66 0.66 1.32 1 2 C16.18 2 31.36 2 47 2 C47.33 1.34 47.66 0.68 48 0 C47.125 7.75 47.125 7.75 46 10 C45.34 10 44.68 10 44 10 C43.773125 10.94875 43.54625 11.8975 43.3125 12.875 C42 16 42 16 39.79296875 17.17871094 C36.73064631 18.07920505 34.18946038 18.25864806 31 18.265625 C29.865625 18.26820312 28.73125 18.27078125 27.5625 18.2734375 C26.386875 18.26570313 25.21125 18.25796875 24 18.25 C22.824375 18.25773437 21.64875 18.26546875 20.4375 18.2734375 C19.303125 18.27085938 18.16875 18.26828125 17 18.265625 C15.96875 18.26336914 14.9375 18.26111328 13.875 18.25878906 C10.83529247 17.98517408 8.69048341 17.43690862 6 16 C4.6875 12.875 4.6875 12.875 4 10 C3.34 10 2.68 10 2 10 C0.39644899 6.49223216 -0.22036864 3.85645121 0 0 Z " fill="#2A2A2A" transform="translate(8,31)"/>
</svg>
