<svg width="33" height="61" viewBox="0 0 33 61" fill="none" xmlns="http://www.w3.org/2000/svg">
<path d="M31.8551 17.7511L17.5401 0.422415C17.2387 0.121046 16.7113 0.27173 16.7113 0.723783L17.9168 17.5251L7.51956 8.6347C7.2182 8.33333 6.6908 8.63469 6.76614 9.08675L10.91 25.662L0.88946 19.7853C0.51275 19.5593 0.0606974 19.936 0.211382 20.3881L17.7661 60.018C17.9168 60.3947 18.5195 60.3193 18.5949 59.9426L22.4373 39.6003L32.2318 23.025C33.2112 21.3675 33.0605 19.2579 31.8551 17.7511Z" fill="#FF6600"/>
<path d="M17.8417 17.5253L7.3691 8.63498C7.06773 8.33361 6.54034 8.63498 6.61568 9.08703L10.7595 25.6623L18.6704 30.3335L17.8417 17.5253Z" fill="#E74030"/>
<path d="M17.9924 51.2031C17.8417 51.6552 17.239 51.5798 17.1636 51.1278L10.8349 25.6622L0.73907 19.7101C0.362359 19.4841 -0.0896933 19.8608 0.0609909 20.3129L17.6157 59.9428C17.7664 60.3195 18.3691 60.2441 18.4445 59.8674L22.2869 39.5251L22.2116 39.6004L17.9924 51.2031Z" fill="#FAB418"/>
<path d="M17.9925 51.2031L22.3623 39.6004L20.4034 42.8401C20.1774 43.2168 19.5746 43.0661 19.5746 42.6141L18.7459 30.3333L10.835 25.6621L17.1637 51.1277C17.239 51.5798 17.8418 51.6551 17.9925 51.2031Z" fill="#DE0732"/>
<path d="M31.7042 17.751L17.3892 0.422367C17.1631 0.120999 16.6357 0.347025 16.6357 0.723736L17.8412 17.525L25.0741 23.7784C26.5056 24.9839 27.033 27.0181 26.3549 28.8263L22.3617 39.3742V39.5249L32.1562 22.9496C33.1357 21.3674 32.9096 19.2579 31.7042 17.751Z" fill="#FF6600"/>
<path d="M20.7801 31.6142C22.4377 32.5936 23.2664 34.4772 22.9651 36.3608L22.3623 39.4498L26.3555 28.9019C27.0335 27.0937 26.5061 25.1348 25.0746 23.854L17.8418 17.6006L18.7459 30.4087L20.7801 31.6142Z" fill="#DE0733"/>
<path d="M20.7805 31.6138L18.6709 30.333L19.4997 42.6138C19.4997 43.0658 20.1024 43.2165 20.3284 42.8398L22.212 39.6001L22.2873 39.3741L22.8901 36.285C23.3421 34.4768 22.438 32.5933 20.7805 31.6138Z" fill="#CC1D46"/>
</svg>
