<?xml version="1.0" encoding="UTF-8"?>
<svg version="1.1" xmlns="http://www.w3.org/2000/svg" width="40" height="40" viewBox="0 0 64 64">
<path d="M0 0 C2.31 0 4.62 0 7 0 C7 5.94 7 11.88 7 18 C8.65 17.34 10.3 16.68 12 16 C17.91271732 15.27847982 23.00071355 15.51212573 28 19 C32.33846282 23.42098793 34.16622109 26.56009249 34.3125 32.75 C34.26196419 38.03099209 33.69408863 41.00639067 30 45 C25.48645075 48.97622196 23.106901 50.15093581 17.125 50.1875 C16.07570313 50.20167969 15.02640625 50.21585938 13.9453125 50.23046875 C11.06452929 50.00504937 9.43759792 49.48964317 7 48 C7 48.66 7 49.32 7 50 C4.69 50 2.38 50 0 50 C0 33.5 0 17 0 0 Z M9 26 C6.66932423 29.21855225 6.53258863 32.10490526 7 36 C9.2758823 40.22481746 9.2758823 40.22481746 13 43 C17.04184924 43.39874436 17.04184924 43.39874436 21 43 C23.96050874 40.70800597 23.96050874 40.70800597 26 38 C26.33 37.67 26.66 37.34 27 37 C27.38189241 32.03539862 27.15313973 28.94142466 24 25 C19.01575169 21.39071674 13.65013269 22.38323013 9 26 Z " fill="#F25C2A" transform="translate(15,7)"/>
</svg>
