<svg width="192" height="192" viewBox="0 0 192 192" fill="none" xmlns="http://www.w3.org/2000/svg">
<path d="M14.1529 33.0173C11.3782 33.0458 8.65767 32.2495 6.33612 30.7298C4.01456 29.21 2.19661 27.035 1.11282 24.4806C0.0290339 21.9263 -0.271816 19.1076 0.248485 16.382C0.768786 13.6565 2.08681 11.1471 4.03534 9.17159C5.98386 7.19609 8.47516 5.84355 11.1933 5.28584C13.9114 4.72812 16.7339 4.9904 19.3029 6.03897C21.872 7.08755 24.0718 8.87522 25.6233 11.1757C27.1748 13.4761 28.0083 16.1856 28.0179 18.9603C28.0306 20.7937 27.682 22.6115 26.992 24.3102C26.3021 26.0089 25.2842 27.5551 23.9967 28.8604C22.7092 30.1657 21.1773 31.2048 19.4882 31.918C17.7992 32.6313 15.9863 33.0047 14.1529 33.0173ZM178.135 187.404C175.362 187.432 172.644 186.637 170.323 185.12C168.003 183.602 166.185 181.43 165.1 178.879C164.015 176.327 163.711 173.511 164.227 170.786C164.744 168.062 166.057 165.553 168.001 163.575C169.945 161.598 172.431 160.242 175.146 159.679C177.861 159.116 180.682 159.371 183.252 160.412C185.822 161.453 188.025 163.234 189.582 165.528C191.139 167.822 191.981 170.526 192 173.299C192.013 176.994 190.561 180.543 187.962 183.168C185.363 185.794 181.829 187.283 178.135 187.308V187.404ZM153.763 166.822H115.766C111.181 166.822 106.783 165.004 103.536 161.767C100.29 158.529 98.4594 154.136 98.4467 149.551V40.8854C98.4467 33.3782 95.4645 26.1785 90.1562 20.8701C84.8478 15.5618 77.648 12.5795 70.1409 12.5795H38.4767V25.1491H68.5576C70.8258 25.1428 73.0729 25.5833 75.1708 26.4455C77.2686 27.3076 79.1762 28.5746 80.7844 30.174C82.3927 31.7733 83.6701 33.6738 84.5439 35.7669C85.4177 37.8599 85.8707 40.1046 85.877 42.3727V151.134C85.877 158.641 88.8592 165.841 94.1676 171.15C99.476 176.458 106.676 179.44 114.183 179.44H153.763V166.822Z" fill="#FF8F1C"/>
</svg>
