<?xml version="1.0" encoding="UTF-8"?>
<svg version="1.1" xmlns="http://www.w3.org/2000/svg" width="32" height="32">
<path d="M0 0 C1.69576172 -0.03867188 1.69576172 -0.03867188 3.42578125 -0.078125 C8.22170006 0.40433869 10.71751786 2.19918601 13.9375 5.6875 C15.56145683 8.06543678 16.10547143 9.50864545 16.6875 12.25 C14.16793257 13.52339482 11.64691351 14.79376642 9.125 16.0625 C8.42052734 16.41892578 7.71605469 16.77535156 6.99023438 17.14257812 C2.61371075 19.34092409 -1.79124598 21.36663926 -6.3125 23.25 C-3.47205198 26.09044802 -1.26759169 25.98632722 2.6875 26.25 C6.00700927 25.86657799 6.00700927 25.86657799 8.6875 24.25 C9.85832878 21.32085835 9.85832878 21.32085835 10.6875 18.25 C13.8875 15.25 13.8875 15.25 16.6875 15.25 C17.14513495 20.97043683 16.40403644 23.84883843 12.6875 28.25 C8.86819828 31.87833663 5.80470994 32.56000458 0.6875 32.75 C-4.41790511 32.57918719 -7.41798154 31.74508067 -11.3125 28.25 C-11.910625 27.734375 -12.50875 27.21875 -13.125 26.6875 C-16.3335936 22.80341301 -15.81533775 17.33239234 -15.8046875 12.56640625 C-15.03446664 7.37658477 -12.30983365 4.4695719 -8.3125 1.25 C-5.51142988 -0.15053506 -3.12358319 0.0424496 0 0 Z M-8.3125 9.25 C-10.66117153 12.5594917 -10.3125 13.85808336 -10.3125 18.25 C-4.0425 15.28 2.2275 12.31 8.6875 9.25 C5.33419682 5.80757863 5.33419682 5.80757863 0.9375 4.9375 C-3.17017229 5.33246849 -5.14176614 6.6557632 -8.3125 9.25 Z " fill="#F0592B" transform="translate(15.3125,-0.25)"/>
</svg>
