<?xml version="1.0" standalone="no"?>
<!DOCTYPE svg PUBLIC "-//W3C//DTD SVG 20010904//EN"
 "http://www.w3.org/TR/2001/REC-SVG-20010904/DTD/svg10.dtd">
<svg version="1.0" xmlns="http://www.w3.org/2000/svg"
 width="64.000000pt" height="64.000000pt" viewBox="0 0 64.000000 64.000000"
 preserveAspectRatio="xMidYMid meet">

<g transform="translate(0.000000,64.000000) scale(0.100000,-0.100000)"
fill="#000000" stroke="none">
<path d="M225 591 c-51 -23 -101 -79 -114 -128 -6 -21 -11 -101 -11 -179 0
-130 -2 -144 -23 -175 -12 -19 -33 -38 -45 -44 -30 -13 -28 -35 3 -35 50 0
124 50 151 102 19 37 18 58 -5 58 -34 0 -31 16 4 29 44 15 101 80 114 128 6
21 11 77 11 126 l0 87 148 0 149 0 11 25 12 25 -183 0 c-154 0 -188 -3 -222
-19z m3 -274 c4 -20 -25 -34 -40 -19 -15 15 -1 44 19 40 10 -2 19 -11 21 -21z"/>
<path d="M370 465 l0 -26 91 3 c85 3 92 5 100 26 8 22 8 22 -91 22 l-100 0 0
-25z"/>
</g>
</svg>
