<svg width="340" height="340" viewBox="0 0 340 340" fill="none" xmlns="http://www.w3.org/2000/svg">
<rect width="340" height="340" fill="#1E233C"/>
<path d="M232.98 113.911L109.432 136.963C99.3023 138.827 90 131.096 90 120.813V98.3123C90 88.2355 97.1662 79.6081 107.02 77.8136L230.568 54.7611C240.698 52.8976 250 60.6278 250 70.9116V93.4119C250 103.42 242.834 112.047 232.98 113.911Z" fill="#4EE4D5"/>
<path d="M232.98 202.782L170 214.483V172.29C170 162.241 177.166 153.637 187.02 151.848L230.568 143.726C240.698 141.867 250 149.576 250 159.832V182.271C250 192.32 242.834 200.923 232.98 202.782Z" fill="#4EE4D5"/>
<path d="M152.98 277.11L109.432 285.239C99.3023 287.1 90 279.383 90 269.118V246.657C90 236.599 97.1662 227.987 107.02 226.195L170 214.483V256.716C170 266.706 162.834 275.318 152.98 277.11Z" fill="#4EE4D5"/>
</svg>
