<?xml version="1.0" encoding="UTF-8"?>
<svg id="Layer_1" xmlns="http://www.w3.org/2000/svg" viewBox="0 0 375.04 152.88">
<path d="M232.35,20.04l-18.23,104.71h-.19l-17.81-104.71h-20.73v2.83h5.11c3.12,0,3.44,.57,3.44,14.37V106.79c0,30.77-1.84,37.95-6.16,37.95h-3.58v2.87h24.85v-2.87h-4.43c-6.09,0-6.86-7.02-6.86-37.95V42.53h.19l19.08,105.08h6.19l18.86-105.08h.38v87.89c0,12.36,.26,14.33-2.11,14.33h-6.45v2.87h29.58v-2.87h-6.3c-2.47,0-2.11-1.97-2.11-14.33V37.24c0-13.8,.5-14.36,3.25-14.36h5.16v-2.83h-21.13Z"/>
<path d="M166.42,144.19c-.27-.13-.52-.3-.75-.5-1.04-.91-1.5-2.32-1.66-3.69-.31-2.77,0-18.8,0-19.5,0-26.84-2.14-35.44-17.72-39.41v-.19c12.04-4.16,20.85-14.18,20.85-30.81,0-24.76-15.28-30.05-28.28-30.05h-29.85v2.83h5.76c3.46,0,3.06,.57,3.06,14.36v93.18c0,12.36,.66,14.33-2.25,14.33h-6.16v2.87h29.23v-2.87h-6.3c-2.59,0-2.11-1.97-2.11-14.33v-47.82h8.02c3.43,0,6.86,.93,9.16,3.61s3.25,6.63,3.74,10.17c.71,5.17,.7,10.44,.69,15.66,0,6.61-.24,13.25,.24,19.85,.33,4.54,.98,9.99,4.52,13.28,1.34,1.24,3,1.99,4.79,2.29,.88,.15,1.76,.16,2.65,.16h6.8s0-2.87,0-2.87c-1.45-.06-3.12,.1-4.44-.55Zm-36.18-65.18V23.63h8.43c9.55,0,15.09,4.54,15.09,27.22,0,20.41-4.2,28.16-13.95,28.16h-9.57Z"/>
<path d="M4.61,20.04v2.83h5.35c3.37,0,3.06,.57,3.06,14.36v93.18c0,12.36,.52,14.33-2.25,14.33H4.61v2.87h31.14v-2.87h-8.01c-2.61,0-2.11-1.97-2.11-14.33v-47.78h4.59c11.35,0,10.46,22.46,10.46,22.46h2.73V59.41h-2.73s1.15,19.63-10.46,19.63h-4.59V23.63h8.79c10.45,0,16.24,10.77,16.24,31.37v1.4h2.87V20.04H4.61Z"/><polygon points="276.37 5.26 265.78 5.26 283.49 22.15 276.37 5.26"/>
<path d="M310.81,20.04V56.4h2.94s.28-32.77,16.17-32.77h4.4v106.79c0,12.36,.19,14.33-2.25,14.33h-5.7c-3.76,0-4.51-4.28-11.92-22.26l-43.49-102.44h-5.56v110.38c0,12.36,.25,14.33-2.12,14.33h-6.45v2.87h28.44v-2.87h-13.74c-2.28,0-2.15-1.7-2.12-11.71,0,0,0-34.17,0-34.17h21.74s14.31,38.24,15.42,41.39c1.13,3.21,1.11,4.53-1.9,4.5h-5.22v2.87s57.05,0,57.05,0v-2.87h-7.47c-2.71,0-2.11-1.97-2.11-14.33V23.63h4.4c15.9,0,16.17,32.77,16.17,32.77h2.94V20.04h-59.62Zm-41.42,75.22V43.67h.19l20.06,51.6h-20.25Z"/>
<path d="M87.11,143.99h-9.19v-61.38h4.52c11.35,0,10.46,22.46,10.46,22.46h2.73V59.38h-2.73s1.15,19.63-10.46,19.63h-4.52V23.63h9.24c17.05,0,17.81,32.77,17.81,32.77h2.73l-1.56-36.36H56.9v2.83h5.35c3.32,0,3.06,.57,3.06,14.36l-.04,93.14c0,13.8,.26,14.36-3.06,14.36h-5.35v2.83h.04v.04l49.19-.04,1.56-36.36h-2.73s-.83,32.77-17.81,32.77Z"/>
</svg>