<?xml version="1.0" encoding="utf-8"?>
<!-- Generator: Adobe Illustrator 23.0.1, SVG Export Plug-In . SVG Version: 6.00 Build 0)  -->
<svg version="1.1" id="Layer_1" xmlns="http://www.w3.org/2000/svg" xmlns:xlink="http://www.w3.org/1999/xlink" x="0px" y="0px"
	 viewBox="0 0 216 216" style="enable-background:new 0 0 216 216;" xml:space="preserve">
<style type="text/css">
	.st0{clip-path:url(#SVGID_2_);fill:none;stroke:#A6A6A7;stroke-width:0;stroke-miterlimit:10;}
	.st1{fill:none;stroke:#F2B19C;stroke-width:0;stroke-miterlimit:10;}
	.st2{clip-path:url(#SVGID_4_);fill:none;stroke:#A6A6A7;stroke-width:0;stroke-miterlimit:10;}
	.st3{fill:none;stroke:#A6A6A7;stroke-width:0;stroke-miterlimit:10;}
	.st4{fill:#FFFFFF;}
	.st5{fill:#4D4D4F;}
	.st6{fill:#E46339;}
</style>
<g>
	<defs>
		<rect id="SVGID_1_" x="1.13" y="85" width="213.73" height="46"/>
	</defs>
	<clipPath id="SVGID_2_">
		<use xlink:href="#SVGID_1_"  style="overflow:visible;"/>
	</clipPath>
	<path class="st0" d="M37.33,115.44c-0.25,0.45-0.51,0.91-0.77,1.37c-2.85,5.09-8.08,7.68-13.84,7.53
		c-7.67-0.2-13.6-5.69-14.96-13.13c-0.8-4.35-0.11-9.11,2.32-12.85c2.89-4.45,7.68-7.03,12.98-7.03c5.38,0,10.82,2.12,13.48,6.99
		c0.43,0.79,0.85,1.93,1.18,2.9c0.01,0.04,0.05,0.07,0.1,0.07l6.67-0.01c0.08,0,0.15-0.08,0.13-0.16
		c-0.83-4.47-3.18-8.51-6.67-11.36c-3.52-2.87-7.61-4.43-12.28-4.67c-2.2-0.11-4.23-0.09-6.11,0.08c-2.27,0.21-4.54,0.92-6.56,1.94
		c-4.06,2.05-7.18,5.11-9.35,9.16c-1.44,2.69-2.24,5.5-2.4,8.45c-0.11,1.99-0.11,3.98,0,5.97c0.36,6.98,4.38,13.26,10.25,16.81
		c1.24,0.75,2.66,1.43,4.01,1.86c1.66,0.53,3.43,0.9,5.31,1.11c1.72,0.19,3.38,0.16,4.98-0.09c1.61-0.25,3.03-0.59,4.28-1.02
		c6.06-2.07,11.27-6.72,13.62-12.79c0.28-0.73,0.49-1.49,0.62-2.29c0.23-1.38,0.44-3.03,0.62-4.98c0.02-0.24-0.01-0.45-0.09-0.64
		c-0.02-0.04-0.05-0.07-0.1-0.06l-23.84,0.01c-0.16,0-0.29,0.13-0.3,0.3l-0.01,5.95c0,0.14,0.11,0.25,0.24,0.26
		c0.27,0.02,0.53,0.03,0.78,0.03c4.22,0.02,9.01,0.02,14.38,0.01c0.43,0,0.84,0.03,1.25,0.1C37.33,115.3,37.36,115.38,37.33,115.44"
		/>
</g>
<path class="st1" d="M178.41,117.95c0.13-0.17,0.3-0.3,0.51-0.4c11.76-5.76,23.07-11.27,33.91-16.51c0.16-0.08,0.33-0.16,0.49-0.23
	c0.05-0.02,0.07-0.06,0.08-0.11c0.02-0.2,0-0.38-0.06-0.55c-1.63-4.58-4.4-8.26-8.29-11.04c-2.94-2.1-6.03-3.37-9.27-3.81
	c-1.78-0.24-3.55-0.25-5.4-0.23c-3.55,0.05-6.84,0.93-9.89,2.65c-5.3,3-9.29,7.93-10.92,13.87c-1.28,4.67-1.13,9.27,0.45,13.8
	c2.07,5.94,6.43,10.67,12.15,13.32c0.93,0.43,1.94,0.79,3.01,1.08c3.25,0.88,6.41,1.19,9.72,0.71c1.6-0.23,3.07-0.58,4.41-1.04
	c6.89-2.35,12.5-8.19,14.4-15.35c0.55-2.05,0.85-4.03,0.91-5.96c0.01-0.26,0-0.54-0.04-0.83c-0.01-0.09-0.11-0.13-0.18-0.08
	c-0.49,0.34-1.05,0.53-1.59,0.8c-1.32,0.66-2.65,1.31-3.98,1.95c-0.29,0.14-0.6,0.35-0.67,0.7c-2,11.1-13.94,17.13-24.07,12.04
	c-2.2-1.11-4.1-2.74-5.69-4.64C178.38,118.03,178.38,117.99,178.41,117.95"/>
<g>
	<defs>
		<rect id="SVGID_3_" x="1.13" y="85" width="213.73" height="46"/>
	</defs>
	<clipPath id="SVGID_4_">
		<use xlink:href="#SVGID_3_"  style="overflow:visible;"/>
	</clipPath>
	<path class="st2" d="M55.5,86.27c0-0.13-0.1-0.23-0.23-0.23h-5.96c-0.13,0-0.23,0.1-0.23,0.23v43.6c0,0.13,0.1,0.23,0.23,0.23h5.96
		c0.13,0,0.23-0.1,0.23-0.23V86.27 M101.11,100.54c-0.07-0.12-0.08-0.24-0.02-0.36c0,0-0.01-4.26-0.04-12.77
		c0-0.35,0.01-0.71,0.04-1.08c0.02-0.21-0.08-0.31-0.29-0.31l-6.12,0.04c-0.15,0-0.27,0.13-0.26,0.28c0.03,0.48,0.04,0.93,0.04,1.35
		c-0.01,13.18-0.02,26.68-0.02,40.48c0,0.51-0.01,1.02-0.03,1.53c0,0.15,0.1,0.29,0.25,0.32c0.18,0.04,0.36,0.06,0.55,0.07
		c1.61,0.04,3.22,0.04,4.86,0.01c0.19,0,0.34-0.16,0.33-0.35c-0.03-0.59-0.05-1.17-0.05-1.75c0-0.11,0.02-0.22,0.05-0.32
		c0.03-0.08,0.12-0.11,0.19-0.05c0.92,0.84,2.13,1.58,3.33,2.03c1.67,0.62,3.31,0.94,4.91,0.98c1.99,0.04,4-0.29,6.03-0.99
		c4.18-1.44,6.78-5.35,7.68-9.54c0.79-3.71,0.8-7.41,0.02-11.08c-0.25-1.16-0.64-2.31-1.17-3.45c-2.47-5.27-7.48-7.63-13.12-7.38
		c-2.68,0.11-5.01,0.92-6.99,2.4C101.21,100.61,101.14,100.6,101.11,100.54 M162.57,86.27c0-0.11-0.09-0.2-0.2-0.21l-5.9-0.03
		c-0.12,0-0.21,0.09-0.21,0.21l0,43.64c0,0.11,0.09,0.21,0.21,0.21l5.94-0.02c0.11,0,0.21-0.09,0.21-0.21L162.57,86.27
		 M145.38,111.28c-0.13-0.02-0.26-0.12-0.39-0.16c-0.73-0.25-1.4-0.47-2.02-0.66c-6.6-2.02-16.89-1.1-18.23,7.55
		c-0.35,2.26-0.12,4.43,0.7,6.52c1.06,2.71,3.4,4.65,6.24,5.45c3.81,1.07,7.55,0.7,11.3-0.55c1.13-0.38,2.17-0.96,3.1-1.76
		c0.04-0.03,0.1-0.03,0.13,0c0.04,0.04,0.07,0.09,0.07,0.15c0.05,0.59,0.06,1.25,0.02,1.97c-0.01,0.18,0.13,0.33,0.31,0.33
		l5.31-0.02c0.19,0,0.34-0.15,0.34-0.34c-0.01-5.66-0.02-11.48-0.01-17.49c0-1.84-0.18-3.44-0.56-4.8
		c-0.73-2.63-2.09-4.77-4.11-6.42c-4.03-3.3-9.75-3.43-14.64-2.58c-2.52,0.44-4.8,1.32-6.82,2.66c-0.14,0.1-0.2,0.28-0.12,0.44
		c0.68,1.46,1.36,2.95,2.05,4.47c0.07,0.15,0.17,0.28,0.31,0.37c0.06,0.04,0.14,0.04,0.2-0.01c0.36-0.28,0.76-0.52,1.21-0.71
		c1.68-0.74,3.55-1.19,5.63-1.37c1.44-0.12,2.89-0.12,4.34,0.19c3.41,0.73,5.57,3.01,5.8,6.65
		C145.53,111.25,145.49,111.3,145.38,111.28 M67.42,129.17c3.77,1.64,7.66,1.87,11.67,0.71c3.76-1.1,6.95-3.63,9.02-6.93
		c3.98-6.36,3.05-14.86-2.42-20.16c-2.59-2.51-5.65-4.02-9.18-4.52c-10.16-1.46-19.12,6.67-18.63,16.89c0.17,3.62,1.4,6.8,3.68,9.54
		C63.24,126.72,65.2,128.21,67.42,129.17"/>
</g>
<path class="st1" d="M183.84,92.99c-4.64,2.45-7.82,6.91-8.68,12.11c-0.37,2.26-0.3,4.42,0.23,6.5c0.04,0.14,0.09,0.28,0.15,0.41
	c0.04,0.08,0.14,0.11,0.22,0.07c0.79-0.44,1.74-0.93,2.86-1.48c8.19-3.99,16.65-8.11,25.37-12.38c0.33-0.16,0.64-0.32,0.94-0.5
	c0.07-0.04,0.09-0.13,0.04-0.19C199.87,91.1,191.14,89.13,183.84,92.99"/>
<path class="st3" d="M111.38,104.96c-1-0.41-2.12-0.61-3.35-0.59c-2.4,0.02-4.57,0.64-6.5,1.86c-0.28,0.18-0.5,0.36-0.5,0.72
	c0.02,4.46,0.02,9.28,0.01,14.44c0,0.21,0.08,0.4,0.23,0.55c1.42,1.37,3.06,2.21,4.92,2.5c2.82,0.45,6.11,0.04,8.05-2.28
	c0.8-0.96,1.35-2.08,1.66-3.36c0.65-2.75,0.62-5.51-0.08-8.27C115.21,108.11,113.74,105.92,111.38,104.96 M145.09,117.01
	c-3-1.05-5.88-1.52-8.64-1.4c-0.74,0.03-1.49,0.17-2.24,0.43c-1.95,0.66-3.14,2.12-3,4.29c0.04,0.66,0.19,1.2,0.45,1.63
	c0.9,1.49,2.61,2.03,4.36,2.15c2.86,0.19,5.63-0.52,8.32-1.55c0.23-0.09,0.56-0.24,1-0.46c0.2-0.1,0.24-0.23,0.23-0.44
	c-0.08-1.27-0.07-2.69,0.01-4.26c0-0.05-0.01-0.09-0.05-0.13C145.42,117.16,145.28,117.08,145.09,117.01 M74.14,124.15
	c5.38,0.04,9.78-4.31,9.82-9.7c0.04-5.4-4.3-9.8-9.68-9.84c-5.38-0.04-9.78,4.31-9.82,9.7C64.42,119.7,68.76,124.11,74.14,124.15"/>
<path class="st4" d="M1.13,85h213.75v46H1.13V85 M37.33,115.44c-0.25,0.45-0.51,0.91-0.77,1.37c-2.85,5.09-8.08,7.68-13.84,7.53
	c-7.67-0.2-13.6-5.69-14.96-13.13c-0.8-4.35-0.11-9.11,2.32-12.85c2.89-4.45,7.68-7.03,12.98-7.03c5.38,0,10.82,2.12,13.48,6.99
	c0.43,0.79,0.85,1.93,1.18,2.9c0.01,0.04,0.05,0.07,0.1,0.07l6.67-0.01c0.08,0,0.15-0.08,0.13-0.16c-0.83-4.47-3.18-8.51-6.67-11.36
	c-3.52-2.87-7.61-4.43-12.28-4.67c-2.2-0.11-4.23-0.09-6.11,0.08c-2.27,0.21-4.54,0.92-6.56,1.94c-4.06,2.05-7.18,5.11-9.35,9.16
	c-1.44,2.69-2.24,5.5-2.4,8.45c-0.11,1.99-0.11,3.98,0,5.97c0.36,6.98,4.38,13.26,10.25,16.81c1.24,0.75,2.66,1.43,4.01,1.86
	c1.66,0.53,3.43,0.9,5.31,1.11c1.72,0.19,3.38,0.16,4.98-0.09c1.61-0.25,3.03-0.59,4.28-1.02c6.06-2.07,11.27-6.72,13.62-12.79
	c0.28-0.73,0.49-1.49,0.62-2.29c0.23-1.38,0.44-3.03,0.62-4.98c0.02-0.24-0.01-0.45-0.09-0.64c-0.02-0.04-0.05-0.07-0.1-0.06
	l-23.84,0.01c-0.16,0-0.29,0.13-0.3,0.3l-0.01,5.95c0,0.14,0.11,0.25,0.24,0.26c0.27,0.02,0.53,0.03,0.78,0.03
	c4.22,0.02,9.01,0.02,14.38,0.01c0.43,0,0.84,0.03,1.25,0.1C37.33,115.3,37.36,115.38,37.33,115.44 M178.41,117.95
	c0.13-0.17,0.3-0.3,0.51-0.4c11.76-5.76,23.07-11.27,33.91-16.51c0.16-0.08,0.33-0.16,0.49-0.23c0.05-0.02,0.07-0.06,0.08-0.11
	c0.02-0.2,0-0.38-0.06-0.55c-1.63-4.58-4.4-8.26-8.29-11.04c-2.94-2.1-6.03-3.37-9.27-3.81c-1.78-0.24-3.55-0.25-5.4-0.23
	c-3.55,0.05-6.84,0.93-9.89,2.65c-5.3,3-9.29,7.93-10.92,13.87c-1.28,4.67-1.13,9.27,0.45,13.8c2.07,5.94,6.43,10.67,12.15,13.32
	c0.93,0.43,1.94,0.79,3.01,1.08c3.25,0.88,6.41,1.19,9.72,0.71c1.6-0.23,3.07-0.58,4.41-1.04c6.89-2.35,12.5-8.19,14.4-15.35
	c0.55-2.05,0.85-4.03,0.91-5.96c0.01-0.26,0-0.54-0.04-0.83c-0.01-0.09-0.11-0.13-0.18-0.08c-0.49,0.34-1.05,0.53-1.59,0.8
	c-1.32,0.66-2.65,1.31-3.98,1.95c-0.29,0.14-0.6,0.35-0.67,0.7c-2,11.1-13.94,17.13-24.07,12.04c-2.2-1.11-4.1-2.74-5.69-4.64
	C178.38,118.03,178.38,117.99,178.41,117.95 M55.5,86.27c0-0.13-0.1-0.23-0.23-0.23h-5.96c-0.13,0-0.23,0.1-0.23,0.23v43.6
	c0,0.13,0.1,0.23,0.23,0.23h5.96c0.13,0,0.23-0.1,0.23-0.23V86.27 M101.11,100.54c-0.07-0.12-0.08-0.24-0.02-0.36
	c0,0-0.01-4.26-0.04-12.77c0-0.35,0.01-0.71,0.04-1.08c0.02-0.21-0.08-0.31-0.29-0.31l-6.12,0.04c-0.15,0-0.27,0.13-0.26,0.28
	c0.03,0.48,0.04,0.93,0.04,1.35c-0.01,13.18-0.02,26.68-0.02,40.48c0,0.51-0.01,1.02-0.03,1.53c0,0.15,0.1,0.29,0.25,0.32
	c0.18,0.04,0.36,0.06,0.55,0.07c1.61,0.04,3.22,0.04,4.86,0.01c0.19,0,0.34-0.16,0.33-0.35c-0.03-0.59-0.05-1.17-0.05-1.75
	c0-0.11,0.02-0.22,0.05-0.32c0.03-0.08,0.12-0.11,0.19-0.05c0.92,0.84,2.13,1.58,3.33,2.03c1.67,0.62,3.31,0.94,4.91,0.98
	c1.99,0.04,4-0.29,6.03-0.99c4.18-1.44,6.78-5.35,7.68-9.54c0.79-3.71,0.8-7.41,0.02-11.08c-0.25-1.16-0.64-2.31-1.17-3.45
	c-2.47-5.27-7.48-7.63-13.12-7.38c-2.68,0.11-5.01,0.92-6.99,2.4C101.21,100.61,101.14,100.6,101.11,100.54 M162.57,86.27
	c0-0.11-0.09-0.2-0.2-0.21l-5.9-0.03c-0.12,0-0.21,0.09-0.21,0.21l0,43.64c0,0.11,0.09,0.21,0.21,0.21l5.94-0.02
	c0.11,0,0.21-0.09,0.21-0.21L162.57,86.27 M145.38,111.28c-0.13-0.02-0.26-0.12-0.39-0.16c-0.73-0.25-1.4-0.47-2.02-0.66
	c-6.6-2.02-16.89-1.1-18.23,7.55c-0.35,2.26-0.12,4.43,0.7,6.52c1.06,2.71,3.4,4.65,6.24,5.45c3.81,1.07,7.55,0.7,11.3-0.55
	c1.13-0.38,2.17-0.96,3.1-1.76c0.04-0.03,0.1-0.03,0.13,0c0.04,0.04,0.07,0.09,0.07,0.15c0.05,0.59,0.06,1.25,0.02,1.97
	c-0.01,0.18,0.13,0.33,0.31,0.33l5.31-0.02c0.19,0,0.34-0.15,0.34-0.34c-0.01-5.66-0.02-11.48-0.01-17.49c0-1.84-0.18-3.44-0.56-4.8
	c-0.73-2.63-2.09-4.77-4.11-6.42c-4.03-3.3-9.75-3.43-14.64-2.58c-2.52,0.44-4.8,1.32-6.82,2.66c-0.14,0.1-0.2,0.28-0.12,0.44
	c0.68,1.46,1.36,2.95,2.05,4.47c0.07,0.15,0.17,0.28,0.31,0.37c0.06,0.04,0.14,0.04,0.2-0.01c0.36-0.28,0.76-0.52,1.21-0.71
	c1.68-0.74,3.55-1.19,5.63-1.37c1.44-0.12,2.89-0.12,4.34,0.19c3.41,0.73,5.57,3.01,5.8,6.65
	C145.53,111.25,145.49,111.3,145.38,111.28 M67.42,129.17c3.77,1.64,7.66,1.87,11.67,0.71c3.76-1.1,6.95-3.63,9.02-6.93
	c3.98-6.36,3.05-14.86-2.42-20.16c-2.59-2.51-5.65-4.02-9.18-4.52c-10.16-1.46-19.12,6.67-18.63,16.89c0.17,3.62,1.4,6.8,3.68,9.54
	C63.24,126.72,65.2,128.21,67.42,129.17L67.42,129.17z"/>
<path class="st5" d="M37.33,115.44c0.03-0.06,0-0.14-0.07-0.15c-0.41-0.06-0.82-0.1-1.25-0.1c-5.37,0.01-10.16,0.01-14.38-0.01
	c-0.25,0-0.51-0.01-0.78-0.03c-0.14-0.01-0.25-0.12-0.24-0.26l0.01-5.95c0-0.16,0.13-0.3,0.3-0.3l23.84-0.01
	c0.05,0,0.08,0.02,0.1,0.06c0.08,0.19,0.11,0.4,0.09,0.64c-0.19,1.94-0.39,3.6-0.62,4.98c-0.13,0.8-0.34,1.56-0.62,2.29
	c-2.35,6.07-7.56,10.71-13.62,12.79c-1.25,0.43-2.68,0.77-4.28,1.02c-1.6,0.25-3.26,0.28-4.98,0.09c-1.88-0.21-3.65-0.58-5.31-1.11
	c-1.35-0.44-2.78-1.11-4.01-1.86c-5.87-3.56-9.89-9.83-10.25-16.81c-0.1-1.99-0.1-3.99,0-5.97c0.16-2.95,0.96-5.77,2.4-8.45
	c2.17-4.06,5.29-7.11,9.35-9.16c2.02-1.02,4.29-1.73,6.56-1.94c1.87-0.17,3.91-0.2,6.11-0.08c4.67,0.24,8.76,1.8,12.28,4.67
	c3.49,2.85,5.84,6.89,6.67,11.36c0.02,0.08-0.05,0.16-0.13,0.16l-6.67,0.01c-0.04,0-0.08-0.03-0.1-0.07
	c-0.33-0.98-0.75-2.11-1.18-2.9c-2.66-4.87-8.1-6.98-13.48-6.99c-5.3,0-10.09,2.58-12.98,7.03c-2.43,3.74-3.12,8.5-2.32,12.85
	c1.36,7.44,7.3,12.93,14.96,13.13c5.77,0.15,10.99-2.44,13.84-7.53C36.82,116.36,37.07,115.9,37.33,115.44L37.33,115.44z"/>
<path class="st6" d="M178.41,117.95c-0.03,0.04-0.03,0.08,0,0.13c1.59,1.91,3.49,3.54,5.69,4.64c10.13,5.09,22.07-0.94,24.07-12.04
	c0.06-0.35,0.37-0.56,0.67-0.7c1.33-0.64,2.66-1.29,3.98-1.95c0.54-0.27,1.1-0.46,1.59-0.8c0.07-0.05,0.17,0,0.18,0.08
	c0.03,0.29,0.04,0.57,0.04,0.83c-0.06,1.92-0.36,3.91-0.91,5.96c-1.91,7.16-7.52,13-14.4,15.35c-1.34,0.46-2.82,0.8-4.41,1.04
	c-3.32,0.49-6.48,0.17-9.72-0.71c-1.07-0.29-2.08-0.65-3.01-1.08c-5.72-2.65-10.08-7.38-12.15-13.32c-1.58-4.53-1.73-9.13-0.45-13.8
	c1.63-5.94,5.62-10.87,10.92-13.87c3.04-1.72,6.34-2.61,9.89-2.65c1.85-0.02,3.62-0.02,5.4,0.23c3.24,0.44,6.33,1.71,9.27,3.81
	c3.89,2.78,6.65,6.46,8.29,11.04c0.06,0.17,0.08,0.36,0.06,0.55c0,0.05-0.03,0.09-0.08,0.11c-0.17,0.08-0.33,0.16-0.49,0.23
	c-10.85,5.25-22.15,10.75-33.91,16.51C178.71,117.64,178.54,117.78,178.41,117.95 M183.84,92.99c-4.64,2.45-7.82,6.91-8.68,12.11
	c-0.37,2.26-0.3,4.42,0.23,6.5c0.04,0.14,0.09,0.28,0.15,0.41c0.04,0.08,0.14,0.11,0.22,0.07c0.79-0.44,1.74-0.93,2.86-1.48
	c8.19-3.99,16.65-8.11,25.37-12.38c0.33-0.16,0.64-0.32,0.94-0.5c0.07-0.04,0.09-0.13,0.04-0.19
	C199.87,91.1,191.14,89.13,183.84,92.99L183.84,92.99z"/>
<path class="st5" d="M55.5,129.87c0,0.13-0.1,0.23-0.23,0.23h-5.96c-0.13,0-0.23-0.1-0.23-0.23v-43.6c0-0.13,0.1-0.23,0.23-0.23
	h5.96c0.13,0,0.23,0.1,0.23,0.23V129.87L55.5,129.87z"/>
<path class="st5" d="M101.11,100.54c0.03,0.05,0.11,0.07,0.15,0.03c1.97-1.48,4.3-2.28,6.99-2.4c5.64-0.24,10.64,2.12,13.12,7.38
	c0.54,1.14,0.93,2.29,1.17,3.45c0.78,3.68,0.77,7.37-0.02,11.08c-0.9,4.19-3.5,8.1-7.68,9.54c-2.02,0.7-4.03,1.03-6.03,0.99
	c-1.61-0.03-3.25-0.36-4.91-0.98c-1.21-0.45-2.41-1.19-3.33-2.03c-0.06-0.06-0.16-0.03-0.19,0.05c-0.04,0.11-0.05,0.21-0.05,0.32
	c0,0.58,0.02,1.16,0.05,1.75c0.01,0.19-0.14,0.35-0.33,0.35c-1.63,0.03-3.25,0.03-4.86-0.01c-0.18,0-0.37-0.03-0.55-0.07
	c-0.15-0.03-0.25-0.17-0.25-0.32c0.02-0.5,0.03-1.02,0.03-1.53c0-13.8,0.01-27.29,0.02-40.48c0-0.42-0.01-0.87-0.04-1.35
	c-0.01-0.15,0.11-0.28,0.26-0.28l6.12-0.04c0.21,0,0.31,0.1,0.29,0.31c-0.03,0.37-0.04,0.73-0.04,1.08
	c0.03,8.51,0.05,12.77,0.04,12.77C101.03,100.31,101.04,100.43,101.11,100.54 M111.38,104.96c-1-0.41-2.12-0.61-3.35-0.59
	c-2.4,0.02-4.57,0.64-6.5,1.86c-0.28,0.18-0.5,0.36-0.5,0.72c0.02,4.46,0.02,9.28,0.01,14.44c0,0.21,0.08,0.4,0.23,0.55
	c1.42,1.37,3.06,2.21,4.92,2.5c2.82,0.45,6.11,0.04,8.05-2.28c0.8-0.96,1.35-2.08,1.66-3.36c0.65-2.75,0.62-5.51-0.08-8.27
	C115.21,108.11,113.74,105.92,111.38,104.96L111.38,104.96z"/>
<path class="st5" d="M162.57,86.27l0.03,43.59c0,0.11-0.09,0.21-0.21,0.21l-5.94,0.02c-0.11,0-0.21-0.09-0.21-0.21l0-43.64
	c0-0.11,0.09-0.21,0.21-0.21l5.9,0.03C162.48,86.07,162.57,86.16,162.57,86.27L162.57,86.27z"/>
<path class="st5" d="M145.38,111.28c0.11,0.02,0.15-0.03,0.15-0.13c-0.23-3.64-2.38-5.92-5.8-6.65c-1.45-0.31-2.89-0.31-4.34-0.19
	c-2.07,0.18-3.95,0.63-5.63,1.37c-0.44,0.19-0.85,0.43-1.21,0.71c-0.06,0.05-0.14,0.05-0.2,0.01c-0.14-0.09-0.24-0.21-0.31-0.37
	c-0.68-1.52-1.36-3.01-2.05-4.47c-0.07-0.16-0.02-0.34,0.12-0.44c2.02-1.34,4.3-2.23,6.82-2.66c4.89-0.85,10.61-0.72,14.64,2.58
	c2.01,1.65,3.38,3.79,4.11,6.42c0.38,1.36,0.56,2.96,0.56,4.8c-0.01,6-0.01,11.83,0.01,17.49c0,0.19-0.15,0.34-0.34,0.34l-5.31,0.02
	c-0.18,0-0.32-0.15-0.31-0.33c0.04-0.72,0.03-1.38-0.02-1.97c0-0.06-0.03-0.11-0.07-0.15c-0.04-0.03-0.09-0.03-0.13,0
	c-0.93,0.79-1.96,1.38-3.1,1.76c-3.75,1.25-7.49,1.62-11.3,0.55c-2.84-0.79-5.17-2.73-6.24-5.45c-0.82-2.09-1.05-4.26-0.7-6.52
	c1.35-8.66,11.63-9.58,18.23-7.55c0.62,0.19,1.29,0.41,2.02,0.66C145.12,111.16,145.25,111.26,145.38,111.28 M145.09,117.01
	c-3-1.05-5.88-1.52-8.64-1.4c-0.74,0.03-1.49,0.17-2.24,0.43c-1.95,0.66-3.14,2.12-3,4.29c0.04,0.66,0.19,1.2,0.45,1.63
	c0.9,1.49,2.61,2.03,4.36,2.15c2.86,0.19,5.63-0.52,8.32-1.55c0.23-0.09,0.56-0.24,1-0.46c0.2-0.1,0.24-0.23,0.23-0.44
	c-0.08-1.27-0.07-2.69,0.01-4.26c0-0.05-0.01-0.09-0.05-0.13C145.42,117.16,145.28,117.08,145.09,117.01L145.09,117.01z"/>
<path class="st5" d="M67.42,129.17c-2.22-0.97-4.18-2.46-5.86-4.48c-2.28-2.74-3.51-5.92-3.68-9.54
	c-0.49-10.22,8.47-18.34,18.63-16.89c3.53,0.51,6.59,2.01,9.18,4.52c5.47,5.3,6.4,13.8,2.42,20.16c-2.07,3.3-5.26,5.83-9.02,6.93
	C75.08,131.05,71.19,130.81,67.42,129.17 M74.14,124.15c5.38,0.04,9.78-4.31,9.82-9.7c0.04-5.4-4.3-9.8-9.68-9.84
	c-5.38-0.04-9.78,4.31-9.82,9.7C64.42,119.7,68.76,124.11,74.14,124.15L74.14,124.15z"/>
<path class="st4" d="M111.38,104.96c2.36,0.96,3.83,3.16,4.45,5.56c0.71,2.76,0.73,5.52,0.08,8.27c-0.3,1.28-0.86,2.4-1.66,3.36
	c-1.93,2.32-5.22,2.73-8.05,2.28c-1.86-0.3-3.5-1.13-4.92-2.5c-0.15-0.15-0.23-0.33-0.23-0.55c0.01-5.16,0.01-9.97-0.01-14.44
	c0-0.36,0.21-0.54,0.5-0.72c1.93-1.22,4.1-1.84,6.5-1.86C109.26,104.35,110.38,104.55,111.38,104.96L111.38,104.96z"/>
</svg>
