<svg width="192" height="192" viewBox="0 0 192 192" fill="none" xmlns="http://www.w3.org/2000/svg">
<g clip-path="url(#clip0)">
<path d="M186.636 108.347L108.345 186.638C101.203 193.781 89.617 193.781 82.4747 186.638C75.3246 179.496 75.3324 167.91 82.4747 160.768L160.774 82.4688C167.916 75.3265 179.502 75.3265 186.644 82.4688C193.787 89.619 193.787 101.197 186.636 108.347Z" fill="#FBBC04"/>
<path d="M95.4055 192.004C105.511 192.004 113.703 183.812 113.703 173.706C113.703 163.601 105.511 155.409 95.4055 155.409C85.3 155.409 77.1079 163.601 77.1079 173.706C77.1079 183.812 85.3 192.004 95.4055 192.004Z" fill="#34A853"/>
<path d="M122.215 43.9177L83.0616 83.0634L108.932 108.934L148.086 69.788C155.228 62.6457 155.228 51.06 148.086 43.9177C140.935 36.7675 129.358 36.7675 122.215 43.9177Z" fill="#FBBC04"/>
<path d="M69.7861 148.087L108.932 108.942L83.0616 83.0713L43.9158 122.217C36.7735 129.359 36.7735 140.945 43.9158 148.087C51.0581 155.23 62.6438 155.23 69.7861 148.087Z" fill="#3B80EF"/>
<path d="M109.023 108.852C116.169 101.707 116.169 90.1213 109.023 82.9757C101.877 75.83 90.292 75.83 83.1464 82.9757C76.0008 90.1213 76.0007 101.707 83.1464 108.852C90.292 115.998 101.877 115.998 109.023 108.852Z" fill="#34A853"/>
<path d="M109.526 31.2289L31.227 109.528C24.0847 116.67 12.499 116.67 5.35673 109.528C-1.78557 102.386 -1.78557 90.8002 5.35673 83.6579L83.656 5.35867C90.7983 -1.78362 102.384 -1.78362 109.526 5.35867C116.669 12.501 116.669 24.0867 109.526 31.2289Z" fill="#3B80EF"/>
<path d="M96.5874 36.5955C106.693 36.5955 114.885 28.4033 114.885 18.2977C114.885 8.19218 106.693 0 96.5874 0C86.4819 0 78.2897 8.19218 78.2897 18.2977C78.2897 28.4033 86.4819 36.5955 96.5874 36.5955Z" fill="#34A853"/>
</g>
<defs>
<clipPath id="clip0">
<rect width="192" height="192" fill="white"/>
</clipPath>
</defs>
</svg>
