<svg width="40" height="40" viewBox="0 0 40 40" fill="none" xmlns="http://www.w3.org/2000/svg">
<path d="M28.0002 4.77273V34.7727C28.0002 38.1295 30.3184 40 32.7729 40C35.0457 40 37.5457 38.4091 37.5457 34.7727V5C37.5457 1.92273 35.273 0 32.7729 0C30.2729 0 28.0002 2.12045 28.0002 4.77273Z" fill="#F9AB00"/>
<path d="M15.5001 20V34.7727C15.5001 38.1295 17.8183 40 20.2728 40C22.5456 40 25.0456 38.4091 25.0456 34.7727V20.2273C25.0456 17.15 22.7729 15.2273 20.2728 15.2273C17.7728 15.2273 15.5001 17.3477 15.5001 20Z" fill="#E37400"/>
<path d="M7.77275 40C10.4087 40 12.5455 37.8632 12.5455 35.2273C12.5455 32.5914 10.4087 30.4545 7.77275 30.4545C5.13683 30.4545 3 32.5914 3 35.2273C3 37.8632 5.13683 40 7.77275 40Z" fill="#E37400"/>
</svg>
