<svg width="59" height="60" viewBox="0 0 59 60" fill="none" xmlns="http://www.w3.org/2000/svg">
<g clip-path="url(#clip0_4541_4851)">
<path fill-rule="evenodd" clip-rule="evenodd" d="M53.1104 60H56.7625C57.6087 60 58.3213 59.2952 58.3658 58.4582V19.1189C58.3658 15.2423 55.2036 12.1145 51.2845 12.1145H46.608C45.7618 12.1145 45.0495 11.4097 45.0495 10.5727V7.0044C45.0495 3.12775 41.8873 0 37.9681 0H7.72779C3.80856 0 0.646484 3.12775 0.646484 7.0044V46.5198C0.646484 50.3525 3.80856 53.4801 7.72779 53.5242H42.778C43.0898 53.5242 43.4015 53.6123 43.6688 53.7886L52.2198 59.7358C52.4868 59.9118 52.7986 60 53.1104 60ZM44.6041 47.9296H7.81687C6.92613 47.9296 6.25808 47.2687 6.25808 46.3876V7.09251C6.25808 6.25551 6.97067 5.55067 7.81687 5.55067H37.8791C38.7251 5.55067 39.4377 6.25551 39.4377 7.09251V10.5727C39.4377 11.4097 38.7251 12.1145 37.8791 12.1145H15.4771C14.6309 12.1145 13.9184 12.8194 13.9184 13.6564V39.8679C13.9184 40.7049 14.6309 41.4097 15.4771 41.4097H43.4461C44.2923 41.4097 45.0049 40.7049 45.0049 39.8679V19.207C45.0049 18.37 45.7173 17.6652 46.5635 17.6652H51.1509C51.9971 17.6652 52.7095 18.37 52.7095 19.207V51.3655C52.7095 52.1587 51.819 52.5992 51.1955 52.1587L45.4946 48.1938C45.2276 48.0175 44.9158 47.9296 44.6041 47.9296ZM38.636 35.8149H20.2871C19.8862 35.8149 19.53 35.5066 19.53 35.0661V18.4141C19.53 18.0176 19.8417 17.6652 20.2871 17.6652H38.636C39.0368 17.6652 39.3931 17.9736 39.3931 18.4141V35.0661C39.3931 35.4625 39.0814 35.8149 38.636 35.8149Z" fill="black"/>
</g>
<defs>
<clipPath id="clip0_4541_4851">
<rect width="57.7194" height="60" fill="white" transform="translate(0.646484)"/>
</clipPath>
</defs>
</svg>
