<?xml version="1.0" encoding="utf-8"?>
<!-- Generator: Adobe Illustrator 23.0.1, SVG Export Plug-In . SVG Version: 6.00 Build 0)  -->
<svg version="1.1" id="Layer_1" xmlns="http://www.w3.org/2000/svg" xmlns:xlink="http://www.w3.org/1999/xlink" x="0px" y="0px"
	 viewBox="0 0 216 216" style="enable-background:new 0 0 216 216;" xml:space="preserve">
<style type="text/css">
	.st0{fill:none;stroke:#FA999F;stroke-width:0;stroke-miterlimit:10;}
	.st1{fill:none;stroke:#D5DADE;stroke-width:0;stroke-miterlimit:10;}
	.st2{fill:#F5333E;}
	.st3{fill:#AAB4BD;}
</style>
<g>
	<path class="st0" d="M145.71,43.22c0-20.76-16.82-37.58-37.58-37.58S70.55,22.46,70.55,43.22c0,20.76,16.82,37.58,37.58,37.58
		S145.71,63.98,145.71,43.22"/>
	<path class="st1" d="M124.2,131.57c6.22,2.21,11.61,5.81,16.19,10.87c1.09,1.2,3.03,0.75,3.48-0.79
		c8.17-29.15-12.33-54.4-42.67-49.91c-22.82,3.37-35.67,27.24-29.26,49.38c0.49,1.72,2.66,2.32,3.97,1.05
		C90,128.68,106.11,125.16,124.2,131.57"/>
	<path class="st2" d="M145.71,43.22c0,20.76-16.82,37.58-37.58,37.58S70.55,63.98,70.55,43.22c0-20.76,16.82-37.58,37.58-37.58
		S145.71,22.46,145.71,43.22L145.71,43.22z"/>
	<path class="st3" d="M124.2,131.57c-18.1-6.41-34.21-2.88-48.29,10.6c-1.31,1.27-3.48,0.67-3.97-1.05
		c-6.41-22.14,6.44-46.01,29.26-49.38c30.35-4.5,50.84,20.76,42.67,49.91c-0.45,1.54-2.4,1.99-3.48,0.79
		C135.82,137.37,130.42,133.78,124.2,131.57L124.2,131.57z"/>
	<path d="M145.63,172.85c0,20.72-16.79,37.5-37.5,37.5s-37.5-16.79-37.5-37.5s16.79-37.5,37.5-37.5S145.63,152.14,145.63,172.85
		L145.63,172.85z"/>
</g>
</svg>
