<?xml version="1.0" encoding="UTF-8"?>
<svg version="1.1" xmlns="http://www.w3.org/2000/svg" width="32" height="32">
<path d="M0 0 C3.27036728 -0.14510162 6.53991007 -0.23399373 9.8125 -0.3125 C10.74126953 -0.35439453 11.67003906 -0.39628906 12.62695312 -0.43945312 C15.17161928 -0.48538573 17.49719519 -0.46605549 20 0 C21.94921875 2.20703125 21.94921875 2.20703125 23 5 C23.82177734 6.20849609 23.82177734 6.20849609 24.66015625 7.44140625 C27.07096823 12.04514342 26.63815244 16.94281344 26 22 C24.125 25.5 24.125 25.5 22 28 C21.30669173 29.31967643 20.63446546 30.65104641 20 32 C16.72963272 32.14510162 13.46008993 32.23399373 10.1875 32.3125 C9.25873047 32.35439453 8.32996094 32.39628906 7.37304688 32.43945312 C4.82838072 32.48538573 2.50280481 32.46605549 0 32 C-1.94921875 29.79296875 -1.94921875 29.79296875 -3 27 C-3.54785156 26.19433594 -4.09570312 25.38867188 -4.66015625 24.55859375 C-7.07096823 19.95485658 -6.63815244 15.05718656 -6 10 C-4.125 6.5 -4.125 6.5 -2 4 C-1.30669173 2.68032357 -0.63446546 1.34895359 0 0 Z " fill="#FEFEFE" transform="translate(6,0)"/>
<path d="M0 0 C6.6 0 13.2 0 20 0 C19.34 1.65 18.68 3.3 18 5 C17.75240622 9.27854301 17.75240622 9.27854301 20 14 C13.4 14 6.8 14 0 14 C0 9.38 0 4.76 0 0 Z " fill="#333436" transform="translate(6,9)"/>
<path d="" fill="#FFFFFF" transform="translate(0,0)"/>
<path d="" fill="#FFFFFF" transform="translate(0,0)"/>
<path d="" fill="#FFFFFF" transform="translate(0,0)"/>
<path d="" fill="#FFFFFF" transform="translate(0,0)"/>
<path d="" fill="#FFFFFF" transform="translate(0,0)"/>
<path d="" fill="#FFFFFF" transform="translate(0,0)"/>
<path d="" fill="#FFFFFF" transform="translate(0,0)"/>
<path d="" fill="#FFFFFF" transform="translate(0,0)"/>
<path d="" fill="#FFFFFF" transform="translate(0,0)"/>
<path d="" fill="#FFFFFF" transform="translate(0,0)"/>
<path d="" fill="#FFFFFF" transform="translate(0,0)"/>
<path d="" fill="#FFFFFF" transform="translate(0,0)"/>
<path d="" fill="#FFFFFF" transform="translate(0,0)"/>
<path d="" fill="#FFFFFF" transform="translate(0,0)"/>
<path d="" fill="#FFFFFF" transform="translate(0,0)"/>
<path d="" fill="#FFFFFF" transform="translate(0,0)"/>
<path d="" fill="#FFFFFF" transform="translate(0,0)"/>
<path d="" fill="#FFFFFF" transform="translate(0,0)"/>
<path d="" fill="#FFFFFF" transform="translate(0,0)"/>
<path d="" fill="#FFFFFF" transform="translate(0,0)"/>
</svg>
