<?xml version="1.0" encoding="UTF-8"?>
<svg width="30px" height="40px" viewBox="0 0 30 40" version="1.1" xmlns="http://www.w3.org/2000/svg" xmlns:xlink="http://www.w3.org/1999/xlink">
    <!-- Generator: Sketch 54.1 (76490) - https://sketchapp.com -->
    <title>kno_logo_mark</title>
    <desc>Created with Sketch.</desc>
    <g id="kno_logo_mark" stroke="none" stroke-width="1" fill="none" fill-rule="evenodd">
        <path d="M15,20 C17.7614237,20 20,17.7614237 20,15 C20,12.2385763 22.2385763,10 25,10 C27.7614237,10 30,12.2385763 30,15 C30,17.7614237 27.7614237,20 25,20 C22.2385763,20 20,22.2385763 20,25 C20,27.7614237 22.2385763,30 25,30 L30,30 L30,40 L20,40 L20,35 C20,32.2385763 17.7614237,30 15,30 C12.2385763,30 10,27.7614237 10,25 C10,22.2385763 12.2385763,20 15,20 Z M10,10 L10,20 L0,20 L0,10 L0,0 L10,0 L10,10 Z M10,35 L10,40 L0,40 L0,35 C0,32.2385763 2.23857625,30 5,30 C7.76142375,30 10,32.2385763 10,35 Z" id="Combined-Shape-Copy-85" fill="#000000"></path>
    </g>
</svg>