<svg width="197" height="37" viewBox="0 0 197 37" fill="none" xmlns="http://www.w3.org/2000/svg">
<path d="M0 35.5997H17.1127V33.4717H2.30533V8.99081H0V35.5997Z" fill="#F3F9FF"/>
<path d="M22.9647 15.3837H20.6593V35.5997H22.9647V15.3837Z" fill="#F3F9FF"/>
<path d="M31.9643 15.3837H27.5753V17.5117H31.9643V30.1467C31.9643 33.4717 33.782 36.1317 37.7277 36.1317C39.767 36.1317 41.7177 34.9347 41.7177 34.9347L40.831 32.9397C40.831 32.9397 39.4123 33.8707 37.8163 33.8707C35.0677 33.8707 34.2697 31.9643 34.2697 29.7033V17.5117H41.1413V15.3837H34.2697V10.5425H31.9643V15.3837Z" fill="#F3F9FF"/>
<path d="M48.4563 15.3837H44.0673V17.5117H48.4563V30.1467C48.4563 33.4717 50.274 36.1317 54.2197 36.1317C56.259 36.1317 58.2097 34.9347 58.2097 34.9347L57.323 32.9397C57.323 32.9397 55.9043 33.8707 54.3083 33.8707C51.5597 33.8707 50.7617 31.9643 50.7617 29.7033V17.5117H57.6333V15.3837H50.7617V10.5425H48.4563V15.3837Z" fill="#F3F9FF"/>
<path d="M62.5543 35.5997H64.8597V10.5425H62.6208L62.5543 35.5997Z" fill="#F3F9FF"/>
<path d="M79.8887 14.8517C73.8593 14.8517 69.9137 19.7727 69.9137 25.4917C69.9137 31.2107 74.2583 36.1317 80.2877 36.1317C83.6127 36.1317 86.8047 34.3583 88.7553 32.0087L87.2037 30.4127C85.8293 32.1417 83.391 33.8707 80.2877 33.8707C74.9233 33.8707 72.3963 29.4817 72.219 26.4227H89.642C89.6863 25.935 89.6863 25.8907 89.6863 25.4917C89.6863 19.285 85.253 14.8517 79.8887 14.8517ZM72.3077 24.2947C72.3963 22.078 74.2583 17.1127 79.8887 17.1127C85.2087 17.1127 87.2037 21.9893 87.2923 24.2947H72.3077Z" fill="#F3F9FF"/>
<path d="M110.698 18.7973C110.166 17.9993 107.816 14.8517 103.383 14.8517C97.7528 14.8517 93.3195 19.1963 93.3195 25.4917C93.3195 31.787 97.7528 36.1317 103.383 36.1317C108.526 36.1317 110.875 31.8757 110.875 31.8757V35.5997H112.959V10.5425H110.698V18.7973ZM110.654 29.1713C110.654 29.1713 108.437 33.8707 103.383 33.8707C98.8611 33.8707 95.7135 30.191 95.7135 25.4917C95.7135 20.7923 98.8611 17.1127 103.383 17.1127C108.481 17.1127 110.654 21.812 110.654 21.812V29.1713Z" fill="#F3F9FF"/>
<path d="M125.993 14.8517C121.737 14.8517 118.412 16.9797 118.412 16.9797L119.432 18.9747C119.432 18.9747 122.358 17.1127 126.037 17.1127C128.254 17.1127 131.978 17.955 131.978 22.876V24.3834C131.978 24.3834 129.362 22.477 125.239 22.477C121.116 22.477 117.215 24.871 117.215 29.3044C117.215 33.7377 121.161 36.1317 124.574 36.1317C129.54 36.1317 132.2 32.0974 132.2 32.0974V35.5997H134.283V22.344C134.283 18.221 131.623 14.8517 125.993 14.8517ZM131.978 29.792C131.978 29.792 129.54 33.8707 125.106 33.8707C122.491 33.8707 119.609 32.4964 119.609 29.3044C119.609 26.1124 122.89 24.6937 125.55 24.6937C129.584 24.6937 131.978 26.3784 131.978 26.3784V29.792Z" fill="#F3F9FF"/>
<path d="M147.849 33.8707C145.101 33.8707 144.303 31.9643 144.303 29.7033V17.5117H151.174V15.3837H144.303V10.5425H141.997V15.3837H137.608V17.5117H141.997V30.1467C141.997 33.4717 143.815 36.1317 147.761 36.1317C149.8 36.1317 151.751 34.9347 151.751 34.9347L150.864 32.9397C150.864 32.9397 149.445 33.8707 147.849 33.8707Z" fill="#F3F9FF"/>
<path d="M163.765 14.8517C159.509 14.8517 156.184 16.9797 156.184 16.9797L157.204 18.9747C157.204 18.9747 160.13 17.1127 163.809 17.1127C166.026 17.1127 169.75 17.955 169.75 22.876V24.3834C169.75 24.3834 167.134 22.477 163.011 22.477C158.888 22.477 154.987 24.871 154.987 29.3044C154.987 33.7377 158.933 36.1317 162.346 36.1317C167.312 36.1317 169.972 32.0974 169.972 32.0974V35.5997H172.055V22.344C172.055 18.221 169.395 14.8517 163.765 14.8517ZM169.75 29.792C169.75 29.792 167.312 33.8707 162.878 33.8707C160.263 33.8707 157.381 32.4964 157.381 29.3044C157.381 26.1124 160.662 24.6937 163.322 24.6937C167.356 24.6937 169.75 26.3784 169.75 26.3784V29.792Z" fill="#F3F9FF"/>
<path d="M21.812 12.8124C22.7914 12.8124 23.5853 12.0184 23.5853 11.039C23.5853 10.0596 22.7914 9.26569 21.812 9.26569C20.8326 9.26569 20.0387 10.0596 20.0387 11.039C20.0387 12.0184 20.8326 12.8124 21.812 12.8124Z" fill="#F3F9FF"/>
<path d="M179.018 7.71622C178.734 7.77164 178.393 7.60317 178.335 7.32165C178.278 7.04014 178.448 6.70099 178.732 6.64335C179.016 6.58794 179.357 6.7564 179.415 7.03792C179.528 7.31944 179.357 7.60317 179.018 7.71622ZM187.486 16.2482C186.235 13.7057 185.098 9.29892 182.37 6.19115C180.266 3.76169 176.061 4.55304 175.493 6.64335C175.493 6.64335 173.334 6.0781 171.515 6.13574C169.697 6.19115 168.73 6.41725 168.73 6.41725L168.56 6.81182C168.56 6.81182 171.06 6.24657 173.277 6.7564C175.094 7.15097 176.061 7.8869 176.686 9.2435C177.311 10.6001 177.994 15.1753 181.062 17.6624C184.074 20.1495 189.928 20.2626 189.928 20.2626C189.928 20.2626 188.45 18.2853 187.483 16.2504L187.486 16.2482Z" fill="#F3F9FF"/>
<mask id="mask0_730_86" style="mask-type:luminance" maskUnits="userSpaceOnUse" x="168" y="4" width="22" height="17">
<path d="M179.018 7.71622C178.734 7.77164 178.393 7.60317 178.335 7.32165C178.278 7.04014 178.448 6.70099 178.732 6.64335C179.016 6.58794 179.357 6.7564 179.415 7.03792C179.528 7.31944 179.357 7.60317 179.018 7.71622ZM187.486 16.2482C186.235 13.7057 185.098 9.29892 182.37 6.19115C180.266 3.76169 176.061 4.55304 175.493 6.64335C175.493 6.64335 173.334 6.0781 171.515 6.13574C169.697 6.19115 168.73 6.41725 168.73 6.41725L168.56 6.81182C168.56 6.81182 171.06 6.24657 173.277 6.7564C175.094 7.15097 176.061 7.8869 176.686 9.2435C177.311 10.6001 177.994 15.1753 181.062 17.6624C184.074 20.1495 189.928 20.2626 189.928 20.2626C189.928 20.2626 188.45 18.2853 187.483 16.2504L187.486 16.2482Z" fill="white"/>
</mask>
<g mask="url(#mask0_730_86)">
<path d="M274.035 -71.6316H-31.2506V111.54H274.035V-71.6316Z" fill="#F3F9FF"/>
<mask id="mask1_730_86" style="mask-type:luminance" maskUnits="userSpaceOnUse" x="-32" y="-72" width="307" height="184">
<path d="M274.035 -71.6316H-31.2506V111.54H274.035V-71.6316Z" fill="white"/>
</mask>
<g mask="url(#mask1_730_86)">
<path d="M190.693 3.92792H167.797V21.0229H190.693V3.92792Z" fill="#F3F9FF"/>
</g>
</g>
<path d="M195.891 14.2598L196.796 14.4416C196.086 9.06173 193.872 4.07645 190.381 0L189.928 0.813518C193.131 4.70155 195.193 9.34768 195.893 14.262L195.891 14.2598Z" fill="#F3F9FF"/>
<path d="M192.265 13.6369L193.222 13.8187C192.542 10.0016 190.933 6.34854 188.561 3.2319L188.058 4.10084C190.15 6.92709 191.564 10.1346 192.265 13.6369Z" fill="#F3F9FF"/>
<path d="M188.807 12.9564L189.813 13.1404C189.201 10.722 188.191 8.42334 186.801 6.30643L186.3 7.21969C187.444 8.97529 188.286 10.906 188.807 12.9586V12.9564Z" fill="#F3F9FF"/>
</svg>
