<?xml version="1.0" encoding="UTF-8"?>
<svg version="1.1" xmlns="http://www.w3.org/2000/svg" width="32" height="32">
<path d="M0 0 C2.64715567 0.04246774 3.80025768 0.12235219 5.71484375 1.99609375 C7.05752549 4.1280836 8.1627183 6.2894245 9.25 8.5625 C9.71664063 9.43777344 10.18328125 10.31304687 10.6640625 11.21484375 C14.25 18.03613827 14.25 18.03613827 14.25 21.5625 C8.14678944 21.04527877 4.04992953 20.36242953 -0.4375 15.875 C-2.31879945 12.56032954 -2.94358214 9.28442859 -3.75 5.5625 C-6.72 5.0675 -6.72 5.0675 -9.75 4.5625 C-9.75 3.5725 -9.75 2.5825 -9.75 1.5625 C-8.5434375 1.5934375 -8.5434375 1.5934375 -7.3125 1.625 C-4.17820374 1.54855375 -3.40521031 0.51078155 0 0 Z " fill="#10AAA2" transform="translate(9.75,7.4375)"/>
<path d="M0 0 C1.86328125 0.234375 1.86328125 0.234375 4 1 C5.23046875 2.890625 5.23046875 2.890625 6.1875 5.25 C6.51621094 6.05824219 6.84492188 6.86648437 7.18359375 7.69921875 C8.04097073 10.11546295 8.67153877 12.45442544 9 15 C3.69671474 14.9130609 3.69671474 14.9130609 1 14 C-1.00693046 10.77674806 -2.17642761 8.58784851 -1.75 4.75 C-1.37875 3.88375 -1.37875 3.88375 -1 3 C-0.67 2.01 -0.34 1.02 0 0 Z M1 4 C2 6 2 6 2 6 Z M2 6 C3 8 3 8 3 8 Z M3 8 C4 10 4 10 4 10 Z " fill="#6BCDC4" transform="translate(20,6)"/>
<path d="M0 0 C4.7318314 1.84015666 5.9316443 4.90319962 8.02734375 9.3125 C9.40209908 13.11102075 9.37021824 16.00164301 9 20 C6.06921214 17.5284524 5.13325306 15.1017825 3.9375 11.5 C2.84564876 8.23760111 1.92347401 5.88521102 0 3 C0 2.01 0 1.02 0 0 Z " fill="#68C7C0" transform="translate(23,2)"/>
<path d="M0 0 C1.5 1.3125 1.5 1.3125 3 3 C3 3.99 3 4.98 3 6 C1.741875 5.87625 0.48375 5.7525 -0.8125 5.625 C-1.87404297 5.52058594 -1.87404297 5.52058594 -2.95703125 5.4140625 C-5 5 -5 5 -8 3 C-5.69 3.33 -3.38 3.66 -1 4 C-0.67 2.68 -0.34 1.36 0 0 Z " fill="#38B8B0" transform="translate(21,23)"/>
<path d="M0 0 C0.66 0 1.32 0 2 0 C2.66 2.64 3.32 5.28 4 8 C2.68 7.67 1.36 7.34 0 7 C0 4.69 0 2.38 0 0 Z " fill="#66C6BC" transform="translate(25,13)"/>
<path d="M0 0 C1.98 0 3.96 0 6 0 C6 1.32 6 2.64 6 4 C3.03 3.505 3.03 3.505 0 3 C0 2.01 0 1.02 0 0 Z " fill="#3FBBB1" transform="translate(0,9)"/>
</svg>
