<svg width="162" height="47" viewBox="0 0 162 47" fill="none" xmlns="http://www.w3.org/2000/svg">
<path d="M3 0.00604248V22.02C3 22.02 3.39382 39.806 21.2751 39.6604H48.8576" stroke="#7D41FF" stroke-width="5.42295"/>
<path d="M92.9049 39.7682C103.138 39.7682 111.433 31.4728 111.433 21.2398C111.433 11.0069 103.138 2.71143 92.9049 2.71143C82.6719 2.71143 74.3765 11.0069 74.3765 21.2398C74.3765 31.4728 82.6719 39.7682 92.9049 39.7682Z" stroke="#7D41FF" stroke-width="5.42295"/>
<path d="M50.4249 5.42295C41.7034 5.42295 34.608 12.5184 34.608 21.2399C34.608 29.9614 41.7034 37.0568 50.4249 37.0568C59.1464 37.0568 66.2419 29.9614 66.2419 21.2399C66.2419 12.5184 59.1464 5.42295 50.4249 5.42295ZM50.4249 0C62.1554 0 71.6648 9.50941 71.6648 21.2399C71.6648 32.9703 62.1554 42.4797 50.4249 42.4797C38.6945 42.4797 29.1851 32.9703 29.1851 21.2399C29.1851 9.50941 38.6945 0 50.4249 0Z" fill="#7D41FF"/>
<path d="M140.76 39.7682C150.993 39.7682 159.289 31.4728 159.289 21.2398C159.289 11.0069 150.993 2.71143 140.76 2.71143C130.527 2.71143 122.232 11.0069 122.232 21.2398C122.232 31.4728 130.527 39.7682 140.76 39.7682Z" stroke="#7D41FF" stroke-width="5.42295"/>
<path d="M124.943 20.3361H119.521V46.9989H124.943V20.3361Z" fill="#7D41FF"/>
<path d="M63.6509 29.9305L73.8284 11.8866L76.4242 20.6659L67.127 34.1329L63.6509 29.9305Z" fill="#7D41FF"/>
<path d="M79.9407 30.3486L68.5588 10.1567L66.8569 20.6663L76.1541 34.1333L79.9407 30.3486Z" fill="#7D41FF"/>
<path d="M104.948 31.5316L124.15 7.99579L122.895 18.0907L108.499 35.6578L104.948 31.5316Z" fill="#7D41FF"/>
</svg>
