<svg width="192" height="192" viewBox="0 0 192 192" fill="none" xmlns="http://www.w3.org/2000/svg">
<g clip-path="url(#clip0)">
<path fill-rule="evenodd" clip-rule="evenodd" d="M140.746 90.6487H145.011C145.721 89.227 145.721 86.3838 145.011 83.1851C144.3 78.5648 142.878 76.0769 140.39 76.0769C137.547 76.7877 137.547 79.9864 138.613 84.6067C138.969 87.0946 140.035 89.227 141.101 90.6487H140.746ZM118.355 94.2027C120.132 95.269 121.198 95.6244 121.909 95.269L121.554 93.4919C120.487 92.0703 118.71 90.6487 116.578 89.9378C114.448 89.0272 112.12 88.6797 109.817 88.9287C107.514 89.1776 105.314 90.0147 103.428 91.3595C102.362 92.0703 100.94 93.4919 101.295 94.2027L102.006 94.5582C103.072 94.5582 106.626 93.1365 110.891 92.7811C113.735 92.7811 116.222 93.4919 118 94.2027H118.355ZM114.445 96.6906C111.958 96.6906 110.891 97.7568 109.825 98.4676L108.404 100.245V100.955H109.114L110.891 100.6C114.445 99.1785 116.578 99.5339 118.71 99.5339H120.843V98.8231C120.487 97.7568 117.644 95.9798 114.445 96.6906ZM133.282 104.51C135.059 105.22 136.836 105.22 137.547 103.799C137.902 102.733 137.192 100.956 135.415 100.245C133.993 99.1785 131.86 99.5339 131.505 100.955C130.794 102.022 131.505 103.799 133.282 104.51ZM143.944 94.9136C142.878 94.9136 141.812 96.6906 141.456 98.4676C141.456 100.245 142.523 102.022 143.944 102.022C145.366 102.022 146.432 100.245 146.432 98.4676C146.432 96.6906 145.366 94.9136 144.3 94.9136H143.944ZM51.1828 128.677C50.472 128.677 50.1166 129.033 49.7611 128.677C49.3198 128.764 48.8642 128.745 48.4317 128.621C47.9992 128.498 47.6022 128.273 47.2733 127.967V123.702L47.9841 122.991C49.0503 120.503 50.8274 116.593 48.6949 112.329C48.0079 110.981 47.0005 109.822 45.7611 108.955C44.5218 108.087 43.0884 107.537 41.5868 107.353C38.7435 106.997 35.5448 108.064 33.7678 110.196C30.5691 113.75 30.2137 118.015 30.9245 119.792L31.6353 120.503C31.9907 120.503 33.057 120.148 33.4124 118.726C33.4124 117.66 34.1232 116.593 34.834 115.172C35.5448 114.106 36.611 113.395 38.3881 113.039C39.8097 113.039 41.2313 113.039 42.2976 113.75C44.43 115.172 45.1408 118.015 44.43 120.503C44.0746 121.569 43.0084 124.057 43.3638 126.189C43.3638 130.099 46.2071 131.876 48.3395 131.876C50.472 131.876 51.8936 130.81 52.6044 130.099V129.033C52.249 128.677 51.5382 129.033 51.1828 129.033V128.677ZM179.13 135.075C177.353 143.249 173.799 150.357 167.757 156.399C164.203 160.664 159.582 164.218 154.607 166.706L146.077 170.26C123.331 177.724 99.8737 169.549 92.4101 151.779C89.8322 145.473 89.0651 138.572 90.1953 131.854C91.3255 125.135 94.3081 118.866 98.8075 113.75L99.8737 111.618L99.1629 109.841C95.9642 105.22 85.6574 98.1122 87.7898 83.5405C89.2115 73.5891 98.4521 66.1255 106.626 66.4809H108.759L118.355 67.5471C123.331 67.5471 127.951 67.1917 133.282 62.5714C135.059 61.1498 136.481 59.7281 138.969 59.3727H141.101C142.167 59.3727 143.589 59.3727 144.655 60.439C148.92 63.2822 149.631 70.035 149.631 75.0107L150.342 86.7392C150.342 91.3595 151.763 92.0703 153.896 92.7811L158.516 94.2027C162.701 94.9778 166.616 96.8133 169.889 99.5339C170.955 100.955 171.666 102.022 171.666 103.443C172.377 108.419 168.112 114.106 156.384 119.792C144.117 125.245 130.653 127.448 117.289 126.189L113.735 125.479C104.849 124.412 100.229 135.786 105.205 143.249C108.759 148.225 117.644 151.423 126.529 151.423C147.498 151.423 163.136 142.538 169.178 134.719L169.534 134.008C169.534 133.298 169.889 133.653 169.534 134.008C164.558 136.852 142.878 150.357 119.777 146.092C119.777 146.092 117.289 146.092 114.801 144.671C112.668 143.96 108.404 142.183 107.693 137.563C126.529 143.249 138.258 137.918 138.258 137.918V137.563L137.902 136.852C137.902 136.852 122.62 139.34 108.404 134.008C109.825 128.677 114.09 130.454 120.132 131.165C131.505 131.876 141.812 130.099 149.275 127.967C155.673 126.189 164.203 122.28 170.955 117.304C173.088 121.925 174.154 127.611 174.154 127.611C174.154 127.611 175.931 127.256 177.353 127.967C178.419 129.033 179.485 130.81 178.774 135.075H179.13ZM73.2181 54.0416C80.3263 45.5118 89.2115 38.4036 97.0304 34.4942H97.3858L95.2534 40.1807C95.2534 40.5361 95.2534 40.8915 95.6088 40.5361C100.585 36.982 109.114 33.4279 116.578 33.4279C116.578 33.4279 116.933 33.4279 116.578 33.7833C115.356 34.8185 114.28 36.014 113.379 37.3374H113.735C119.066 37.3374 126.529 39.4699 131.505 42.3131C131.505 42.3131 131.505 43.024 130.794 43.024C121.05 40.7935 110.944 40.6539 101.142 42.6143C91.3405 44.5746 82.0655 48.5905 73.9289 54.397C73.2181 54.397 72.8627 54.397 73.2181 54.0416ZM36.2556 93.1365C29.8994 94.404 24.2887 98.1019 20.6177 103.443C18.1402 101.563 15.8759 99.4183 13.8649 97.046C8.53378 86.3838 19.9068 65.7701 28.0812 54.0416C48.3395 25.6089 79.6154 3.57363 94.5426 7.48313C96.675 8.19394 104.494 17.0791 104.494 17.0791C104.494 17.0791 90.2777 25.2535 76.7722 36.6266C58.3865 51.5053 44.4848 71.1891 36.611 93.4919L36.2556 93.1365ZM46.9179 141.827H44.0746C34.4786 141.827 23.8163 132.942 22.7501 122.635C21.6839 111.262 27.3704 102.377 38.0327 100.245C39.4348 99.9548 40.8668 99.8355 42.2976 99.8893C47.9841 99.8893 56.5139 104.51 58.6464 117.66C60.4234 128.322 57.5801 140.05 46.9179 141.827ZM178.419 121.569L177.353 116.949L175.576 112.684C177.741 110.004 178.8 106.597 178.536 103.161C178.272 99.7252 176.704 96.5205 174.154 94.2027C170.19 90.7273 165.429 88.2856 160.293 87.0946L156.739 86.3838V74.2999C156.739 71.812 156.384 67.9025 154.962 63.6376C153.75 58.8255 151.299 54.4144 147.854 50.8429C156.739 41.6023 162.07 31.2955 162.07 22.4103C162.07 6.06149 141.456 1.08578 116.222 11.748L110.891 13.5251L101.651 3.92904C72.8627 -20.9495 -17.0556 79.2756 11.7325 103.443L17.7744 109.13C16.21 113.696 15.7234 118.561 16.3528 123.346C17.1851 130.372 20.6065 136.834 25.9488 141.472C31.0983 146.235 37.7766 149.007 44.7854 149.291C50.6173 162.091 60.0297 172.929 71.8863 180.497C83.7428 188.065 97.5365 192.04 111.602 191.94C143.589 193.006 170.955 177.724 181.973 150.357C182.684 148.58 185.883 139.695 185.883 132.587C185.883 124.768 181.618 121.569 178.774 121.569H178.419Z" fill="#241C15"/>
</g>
<defs>
<clipPath id="clip0">
<rect width="192" height="192" fill="white"/>
</clipPath>
</defs>
</svg>
