<svg width="192" height="192" viewBox="0 0 192 192" fill="none" xmlns="http://www.w3.org/2000/svg">
<path d="M184.72 58.1148C179.979 46.8805 173.062 36.6927 164.367 28.138C155.622 19.564 145.278 12.7875 133.921 8.19101C109.561 -1.397 82.4668 -1.397 58.1068 8.19101C46.7566 12.8 36.4148 19.5751 27.6605 28.138C18.9347 36.6558 12.0295 46.8541 7.36298 58.1148C-2.45433 82.1419 -2.45433 109.055 7.36298 133.082C12.0442 144.335 18.9475 154.531 27.6605 163.059C36.4059 171.633 46.75 178.41 58.1068 183.006C82.4668 192.594 109.561 192.594 133.921 183.006C145.271 178.397 155.613 171.622 164.367 163.059C173.062 154.504 179.979 144.317 184.72 133.082C194.427 109.034 194.427 82.1633 184.72 58.1148ZM38.687 88.6936C49.6586 85.0219 63.5926 80.6379 63.5926 80.6379C94.807 70.7189 98.8665 58.7175 98.8665 58.7175C98.8665 58.7175 105.449 70.4445 128.161 78.1715C128.161 78.1715 140.668 82.2817 152.298 86.5014C152.902 87.6522 153.45 88.8032 153.999 90.1184C156.012 95.0054 157.413 100.123 158.168 105.353H142.204C141.104 102.672 139.46 100.246 137.377 98.2289C135.31 96.1424 132.823 94.5175 130.081 93.4612C124.275 91.2124 117.838 91.2124 112.032 93.4612C109.291 94.5497 106.792 96.1701 104.681 98.2289C102.598 100.246 100.955 102.672 99.8539 105.353C99.5124 106.194 99.2193 107.054 98.9762 107.929H92.9418C92.7071 107.052 92.4139 106.191 92.064 105.353C90.9631 102.672 89.3196 100.246 87.2365 98.2289C85.1691 96.1424 82.6824 94.5175 79.9404 93.4612C74.1349 91.2124 67.6975 91.2124 61.892 93.4612C59.1504 94.5497 56.652 96.1701 54.541 98.2289C52.4963 100.267 50.8744 102.688 49.7684 105.353H33.7498C34.4721 100.11 35.8927 94.986 37.9738 90.1184C38.1648 89.5513 38.4034 89.0011 38.687 88.4741V88.6936ZM134.415 114.396C134.45 117.041 133.683 119.634 132.214 121.835C130.745 124.036 128.643 125.741 126.186 126.726C122.752 128.095 118.923 128.095 115.488 126.726C113.858 126.075 112.372 125.108 111.118 123.88C109.864 122.652 108.866 121.188 108.183 119.573C107.499 117.957 107.143 116.222 107.135 114.468C107.127 112.714 107.468 110.975 108.137 109.354C108.806 107.705 109.802 106.209 111.065 104.957C112.329 103.704 113.834 102.721 115.488 102.065C118.923 100.696 122.752 100.696 126.186 102.065C128.648 103.044 130.754 104.747 132.224 106.949C133.693 109.152 134.457 111.749 134.415 114.396ZM84.3839 114.396C84.3967 117.036 83.6204 119.619 82.1544 121.816C80.6885 124.012 78.5996 125.722 76.1552 126.726C72.6407 128.169 68.698 128.169 65.1835 126.726C63.5527 126.075 62.0673 125.108 60.8133 123.88C59.5592 122.652 58.5614 121.188 57.8778 119.573C57.1941 117.957 56.838 116.222 56.8303 114.468C56.8225 112.714 57.1632 110.975 57.8325 109.354C58.5009 107.705 59.497 106.209 60.7605 104.957C62.0239 103.704 63.5286 102.721 65.1835 102.065C68.698 100.622 72.6407 100.622 76.1552 102.065C78.5996 103.069 80.6885 104.778 82.1544 106.975C83.6204 109.172 84.3967 111.756 84.3839 114.396ZM140.614 159.332C134.858 164.853 128.074 169.191 120.645 172.101C104.698 178.403 86.946 178.403 70.9985 172.101C63.5767 169.084 56.8132 164.655 51.085 159.058C39.5937 147.548 33.0414 132.02 32.8172 115.766H47.9032C48.1174 119.951 49.5283 123.988 51.9688 127.397C54.4092 130.806 57.7768 133.444 61.6726 135C67.4781 137.249 73.9154 137.249 79.7209 135C82.4391 133.923 84.9183 132.322 87.0171 130.287C89.1058 128.19 90.748 125.692 91.8446 122.944C92.6054 121.2 93.1045 119.354 93.3258 117.464H98.1533C98.4464 119.339 98.9431 121.177 99.6345 122.944C100.744 125.686 102.385 128.181 104.462 130.287C106.571 132.335 109.071 133.937 111.813 135C117.619 137.249 124.056 137.249 129.861 135C132.58 133.923 135.059 132.322 137.157 130.287C139.246 128.19 140.888 125.692 141.985 122.944C142.957 120.608 143.532 118.126 143.686 115.601H158.717C158.705 123.707 157.102 131.731 153.999 139.22C150.906 146.596 146.374 153.285 140.668 158.894" fill="#DF6228"/>
</svg>
