<?xml version="1.0" encoding="UTF-8"?>
<svg version="1.1" xmlns="http://www.w3.org/2000/svg" width="250" height="250">
<path d="M0 0 C82.5 0 165 0 250 0 C250 82.5 250 165 250 250 C167.5 250 85 250 0 250 C0 167.5 0 85 0 0 Z " fill="#FEFEFE" transform="translate(0,0)"/>
<path d="M0 0 C5.69084409 5.15925187 10.61712289 10.76058741 15.15917969 16.95336914 C15.67867187 17.58758789 16.19816406 18.22180664 16.73339844 18.87524414 C26.49992944 31.69221396 30.56100257 50.76133975 30.53417969 66.57836914 C30.53285034 68.00971191 30.53285034 68.00971191 30.53149414 69.4699707 C30.38824408 78.14641589 28.74433052 85.68843435 26.15917969 93.95336914 C25.90910156 94.91758789 25.65902344 95.88180664 25.40136719 96.87524414 C23.88203166 102.63824098 21.50121312 107.05436464 18.15917969 111.95336914 C17.34246202 113.28412317 16.5299706 114.61747999 15.72167969 115.95336914 C4.29235432 134.19012967 -14.58615099 148.97180602 -35.84082031 153.95336914 C-53.76507541 158.01670663 -70.17602144 158.31677604 -87.84082031 152.95336914 C-89.53658203 152.44483398 -89.53658203 152.44483398 -91.26660156 151.92602539 C-111.43836344 145.0050668 -129.35035373 128.97151983 -138.84082031 109.95336914 C-138.84082031 109.29336914 -138.84082031 108.63336914 -138.84082031 107.95336914 C-139.50082031 107.95336914 -140.16082031 107.95336914 -140.84082031 107.95336914 C-141.02257812 107.30110352 -141.20433594 106.64883789 -141.39160156 105.97680664 C-141.64296875 105.10282227 -141.89433594 104.22883789 -142.15332031 103.32836914 C-142.39695312 102.46985352 -142.64058594 101.61133789 -142.89160156 100.72680664 C-143.79713792 97.86084078 -143.79713792 97.86084078 -145.37207031 94.98461914 C-153.23674733 78.75326444 -150.40801498 52.56903965 -144.84082031 35.95336914 C-143.61194646 33.5401904 -142.24720586 31.27306483 -140.84082031 28.95336914 C-139.77462843 26.64441075 -138.81624268 24.30325031 -137.84082031 21.95336914 C-137.18793404 20.61323417 -136.52856437 19.27595386 -135.84082031 17.95336914 C-135.18082031 17.95336914 -134.52082031 17.95336914 -133.84082031 17.95336914 C-133.18082031 16.30336914 -132.52082031 14.65336914 -131.84082031 12.95336914 C-131.18082031 12.95336914 -130.52082031 12.95336914 -129.84082031 12.95336914 C-129.60105469 12.22762695 -129.36128906 11.50188477 -129.11425781 10.75415039 C-122.77766709 -3.18246173 -103.17952295 -12.83706348 -89.59082031 -18.29663086 C-58.89480281 -28.68738431 -24.12255767 -21.05302576 0 0 Z " fill="#EA4934" transform="translate(184.8408203125,58.046630859375)"/>
<path d="M0 0 C13.53 0 27.06 0 41 0 C41 13.86 41 27.72 41 42 C34.4 42 27.8 42 21 42 C21 48.93 21 55.86 21 63 C14.4 63 7.8 63 1 63 C1.03958027 69.20792914 1.03958027 69.20792914 1.09008789 75.41577148 C1.09258545 76.18477783 1.09508301 76.95378418 1.09765625 77.74609375 C1.10289307 78.53685303 1.10812988 79.3276123 1.11352539 80.14233398 C1 82 1 82 0 83 C-3.02956243 83.08870641 -6.0368671 83.11526582 -9.06640625 83.09765625 C-9.8713855 83.09664917 -10.67636475 83.09564209 -11.5057373 83.09460449 C-14.52467261 83.08935614 -17.54358767 83.075395 -20.5625 83.0625 C-30.6790625 83.0315625 -30.6790625 83.0315625 -41 83 C-41 69.14 -41 55.28 -41 41 C-34.4 41 -27.8 41 -21 41 C-21 34.4 -21 27.8 -21 21 C-14.07 21 -7.14 21 0 21 C0 14.07 0 7.14 0 0 Z " fill="#F1ADA2" transform="translate(125,84)"/>
<path d="M0 0 C12.87 0 25.74 0 39 0 C39 13.2 39 26.4 39 40 C32.73 40 26.46 40 20 40 C20 33.07 20 26.14 20 19 C13.4 19 6.8 19 0 19 C0 12.73 0 6.46 0 0 Z " fill="#FCFDFB" transform="translate(126,85)"/>
<path d="M0 0 C6.27 0 12.54 0 19 0 C19 6.93 19 13.86 19 21 C25.6 21 32.2 21 39 21 C39 26.94 39 32.88 39 39 C26.13 39 13.26 39 0 39 C0 26.13 0 13.26 0 0 Z " fill="#FCFDFC" transform="translate(85,126)"/>
<path d="M0 0 C6.6 0 13.2 0 20 0 C20 6.6 20 13.2 20 20 C13.4 20 6.8 20 0 20 C0 13.4 0 6.8 0 0 Z " fill="#FCFCFA" transform="translate(105,105)"/>
<path d="M0 0 C6.6 0 13.2 0 20 0 C20 6.27 20 12.54 20 19 C13.4 19 6.8 19 0 19 C0 12.73 0 6.46 0 0 Z " fill="#E24D3A" transform="translate(105,126)"/>
<path d="M0 0 C6.27 0 12.54 0 19 0 C19 6.27 19 12.54 19 19 C12.73 19 6.46 19 0 19 C0 12.73 0 6.46 0 0 Z " fill="#FDFDFC" transform="translate(126,126)"/>
<path d="M0 0 C6.27 0 12.54 0 19 0 C19 6.27 19 12.54 19 19 C12.73 19 6.46 19 0 19 C0 12.73 0 6.46 0 0 Z " fill="#DF4B3A" transform="translate(126,106)"/>
<path d="M0 0 C-6.97780396 -1.3449282 -13.01894977 -3.01263318 -19 -7 C-21.8022699 -7.61649938 -24.54385589 -8.12907124 -27.375 -8.5625 C-28.1997583 -8.69180908 -29.0245166 -8.82111816 -29.87426758 -8.9543457 C-39.53996028 -10.3695661 -49.24607042 -10.71854333 -59 -11 C-59 -10.34 -59 -9.68 -59 -9 C-64.98434646 -6.97550833 -70.54974692 -5.64343235 -76.87109375 -5.30859375 C-79.2963981 -5.1126688 -79.2963981 -5.1126688 -82 -3 C-84.1875 -3.375 -84.1875 -3.375 -86 -4 C-63.12010681 -18.28975535 -21.07027654 -18.09932846 0 0 Z " fill="#D4594B" transform="translate(171,49)"/>
<path d="M0 0 C0.66 0 1.32 0 2 0 C2 13.86 2 27.72 2 42 C22.79 41.505 22.79 41.505 44 41 C44 41.66 44 42.32 44 43 C40.64242118 44.67878941 36.85366902 44.18477063 33.16015625 44.203125 C32.28225937 44.20882507 31.40436249 44.21452515 30.49986267 44.22039795 C28.64127815 44.22985151 26.78267684 44.23638334 24.92407227 44.24023438 C22.07734061 44.24994935 19.23132802 44.28097279 16.38476562 44.3125 C14.58073346 44.31902906 12.77669613 44.32427991 10.97265625 44.328125 C10.11946304 44.3404718 9.26626984 44.3528186 8.38722229 44.36553955 C2.46560181 44.34316165 2.46560181 44.34316165 0.27348328 42.72750854 C-1.269823 40.63397907 -1.36986302 39.5831397 -1.35644531 37.00341797 C-1.35944641 36.20604218 -1.36244751 35.40866638 -1.36553955 34.58712769 C-1.35319275 33.73079742 -1.34084595 32.87446716 -1.328125 31.9921875 C-1.32625183 31.11096222 -1.32437866 30.22973694 -1.32244873 29.32180786 C-1.31572917 27.46075655 -1.30181653 25.59971933 -1.28125 23.73876953 C-1.25004473 20.87909941 -1.24027458 18.01997988 -1.234375 15.16015625 C-1.2252072 13.3541599 -1.21483214 11.54816918 -1.203125 9.7421875 C-1.19887512 8.88180878 -1.19462524 8.02143005 -1.19024658 7.13497925 C-1.11716032 1.11716032 -1.11716032 1.11716032 0 0 Z " fill="#CF5143" transform="translate(82,125)"/>
<path d="M0 0 C0.33 0 0.66 0 1 0 C1 6.93 1 13.86 1 21 C-5.93 21 -12.86 21 -20 21 C-20 27.6 -20 34.2 -20 41 C-26.6 41 -33.2 41 -40 41 C-37.15385976 38.15385976 -34.19630858 38.54420924 -30.375 38.375 C-29.66859375 38.33632812 -28.9621875 38.29765625 -28.234375 38.2578125 C-26.49001476 38.16352276 -24.74504309 38.08067109 -23 38 C-23.01160156 37.35933594 -23.02320312 36.71867187 -23.03515625 36.05859375 C-23.17388114 22.76082172 -23.17388114 22.76082172 -20 18 C-13.50700994 16.17116159 -7.35420347 17.22899955 -1 19 C-1.01160156 17.71222656 -1.02320313 16.42445312 -1.03515625 15.09765625 C-1.0445327 13.41927228 -1.05363305 11.74088674 -1.0625 10.0625 C-1.07087891 9.21236328 -1.07925781 8.36222656 -1.08789062 7.48632812 C-1.09111328 6.67744141 -1.09433594 5.86855469 -1.09765625 5.03515625 C-1.10289307 4.2862915 -1.10812988 3.53742676 -1.11352539 2.76586914 C-1 1 -1 1 0 0 Z " fill="#D55A4D" transform="translate(124,84)"/>
<path d="M0 0 C7.48349938 11.22524907 6.7058875 30.01266367 4.16796875 42.76171875 C2.80771005 48.62084172 0.92673077 54.30659735 -1 60 C-1.33 60 -1.66 60 -2 60 C-1.85691406 58.86433594 -1.71382812 57.72867188 -1.56640625 56.55859375 C-1.37750746 55.03907452 -1.1887097 53.51954273 -1 52 C-0.91089355 51.29633301 -0.82178711 50.59266602 -0.72998047 49.86767578 C0.55594866 39.4642013 1.18672981 29.17358237 1.1875 18.6875 C1.1882251 17.63248291 1.1889502 16.57746582 1.18969727 15.49047852 C1.1520883 10.22649056 0.91436554 5.18628136 0 0 Z " fill="#D8695D" transform="translate(210,98)"/>
<path d="M0 0 C0.66 0.33 1.32 0.66 2 1 C1.67 1.66 1.34 2.32 1 3 C-2.0625 3.625 -2.0625 3.625 -5 4 C-5 4.66 -5 5.32 -5 6 C-5.66 6 -6.32 6 -7 6 C-7.33 6.99 -7.66 7.98 -8 9 C-8.66 9 -9.32 9 -10 9 C-10 9.99 -10 10.98 -10 12 C-8.68 11.34 -7.36 10.68 -6 10 C-6.33 11.65 -6.66 13.3 -7 15 C-8.65 15.33 -10.3 15.66 -12 16 C-11.67 14.68 -11.34 13.36 -11 12 C-12.65 12.33 -14.3 12.66 -16 13 C-16.33 14.32 -16.66 15.64 -17 17 C-17.66 17 -18.32 17 -19 17 C-19.165 17.70125 -19.33 18.4025 -19.5 19.125 C-21.4122881 22.79021885 -23.8595767 24.36307337 -27.22265625 26.66796875 C-29.13267047 27.89240079 -29.13267047 27.89240079 -30 30 C-30.66 30 -31.32 30 -32 30 C-31.34 28.35 -30.68 26.7 -30 25 C-29.34 25 -28.68 25 -28 25 C-27.76023437 24.27425781 -27.52046875 23.54851562 -27.2734375 22.80078125 C-22.75235645 12.85717661 -9.94256146 4.02958438 0 0 Z " fill="#D66050" transform="translate(83,46)"/>
<path d="M0 0 C12.87 0 25.74 0 39 0 C39 13.2 39 26.4 39 40 C32.73 40 26.46 40 20 40 C20 33.07 20 26.14 20 19 C20.66 19 21.32 19 22 19 C21.67 24.28 21.34 29.56 21 35 C21.66 35 22.32 35 23 35 C23 36.32 23 37.64 23 39 C27.95 39 32.9 39 38 39 C38 26.79 38 14.58 38 2 C25.46 1.67 12.92 1.34 0 1 C0 0.67 0 0.34 0 0 Z " fill="#FEF0E6" transform="translate(126,85)"/>
<path d="M0 0 C2.31 0 4.62 0 7 0 C4 2 4 2 2 3 C1.67 14.55 1.34 26.1 1 38 C13.21 38 25.42 38 38 38 C37.67 32.72 37.34 27.44 37 22 C31.06 22 25.12 22 19 22 C19 21.67 19 21.34 19 21 C25.6 21 32.2 21 39 21 C39 26.94 39 32.88 39 39 C26.13 39 13.26 39 0 39 C0 26.13 0 13.26 0 0 Z " fill="#FEF6ED" transform="translate(85,126)"/>
<path d="M0 0 C1.8871875 0.061875 1.8871875 0.061875 3.8125 0.125 C-10.09844804 9.39896536 -33.2767142 10.26882825 -49.3125 7.125 C-50.6089327 6.81071328 -51.90339141 6.48635719 -53.1875 6.125 C-53.1875 5.795 -53.1875 5.465 -53.1875 5.125 C-52.57567871 5.14071045 -51.96385742 5.1564209 -51.33349609 5.17260742 C-39.74590202 5.42826371 -28.3738811 5.33315125 -16.875 3.75 C-15.9454248 3.62391357 -15.01584961 3.49782715 -14.05810547 3.36791992 C-9.01617012 2.61158244 -4.92212165 -0.16138104 0 0 Z " fill="#D0675A" transform="translate(157.1875,206.875)"/>
<path d="M0 0 C1 2 1 2 0.57421875 4.40625 C-1.80031686 19.26728922 -1.8537703 38.44476541 5 52 C4.6875 54.375 4.6875 54.375 4 56 C3.01 54.02 2.02 52.04 1 50 C0.01 50.495 0.01 50.495 -1 51 C-2.67735586 41.41510936 -3.21080695 32.22967527 -3.25 22.5 C-3.270625 21.21996094 -3.29125 19.93992187 -3.3125 18.62109375 C-3.34119741 11.68349522 -3.01687771 6.28780828 0 0 Z " fill="#F6D8CB" transform="translate(37,104)"/>
<path d="M0 0 C6.6 0 13.2 0 20 0 C20 6.6 20 13.2 20 20 C13.4 20 6.8 20 0 20 C0 13.4 0 6.8 0 0 Z M3 4 C2.01216906 6.96349281 1.86589475 8.9712663 1.875 12.0625 C1.87242188 12.94035156 1.86984375 13.81820312 1.8671875 14.72265625 C1.85166576 17.03198266 1.85166576 17.03198266 3 19 C7.95 19 12.9 19 18 19 C19.59412284 15.81175432 19.10174735 12.37103338 19.0625 8.875 C19.05798828 8.12089844 19.05347656 7.36679688 19.04882812 6.58984375 C19.03703499 4.72652873 19.01909942 2.86325445 19 1 C12.98321342 0.67894617 8.16083152 0.42711664 3 4 Z " fill="#FEE3D8" transform="translate(105,105)"/>
<path d="M0 0 C0.33 0 0.66 0 1 0 C1.027193 1.58323688 1.04648306 3.16661062 1.0625 4.75 C1.07410156 5.63171875 1.08570313 6.5134375 1.09765625 7.421875 C1 10 1 10 0.50439453 11.78515625 C-0.63674454 16.79600506 -0.18479396 22.13559295 -0.1875 27.25 C-0.19974609 28.45269531 -0.21199219 29.65539062 -0.22460938 30.89453125 C-0.23521469 37.33549302 0.20268725 42.82570208 2 49 C2.20992436 51.72061968 2.09771582 54.263957 2 57 C-5.93081341 45.10377988 -4.61297417 22.82006267 -2.328125 9.3203125 C-1.64632008 6.17500489 -0.91260584 3.08547689 0 0 Z " fill="#D25144" transform="translate(39,98)"/>
<path d="M0 0 C6.6 0 13.2 0 20 0 C20 0.33 20 0.66 20 1 C14.06 1.33 8.12 1.66 2 2 C2.44672377 7.79014226 2.44672377 7.79014226 2.9284668 13.57739258 C2.97656494 14.30079834 3.02466309 15.0242041 3.07421875 15.76953125 C3.16062622 16.87711792 3.16062622 16.87711792 3.2487793 18.00708008 C3 20 3 20 1.7734375 21.75976562 C-0.50642778 23.3541648 -1.69596979 23.27747874 -4.44921875 23.07421875 C-5.29677734 23.01943359 -6.14433594 22.96464844 -7.01757812 22.90820312 C-8.33918945 22.79895508 -8.33918945 22.79895508 -9.6875 22.6875 C-10.58017578 22.62626953 -11.47285156 22.56503906 -12.39257812 22.50195312 C-14.59608016 22.34876849 -16.79822101 22.17622725 -19 22 C-19 27.94 -19 33.88 -19 40 C-19.33 40 -19.66 40 -20 40 C-20 33.73 -20 27.46 -20 21 C-13.4 21 -6.8 21 0 21 C0 14.07 0 7.14 0 0 Z " fill="#D44C3E" transform="translate(146,126)"/>
<path d="M0 0 C3.2578125 -0.29296875 3.2578125 -0.29296875 7.125 -0.1875 C9.04699219 -0.14689453 9.04699219 -0.14689453 11.0078125 -0.10546875 C11.99523437 -0.07066406 12.98265625 -0.03585938 14 0 C14 2.31 14 4.62 14 7 C9.05 7 4.1 7 -1 7 C-1.33 5.68 -1.66 4.36 -2 3 C-1.34 2.01 -0.68 1.02 0 0 Z " fill="#ED4733" transform="translate(129,116)"/>
<path d="M0 0 C11.80227099 4.0404171 22.2086086 15.8129129 29 26 C28 28 28 28 26 29 C24 26 24 26 24 22 C23.01 22 22.02 22 21 22 C21 21.34 21 20.68 21 20 C20.38898438 19.91363281 19.77796875 19.82726562 19.1484375 19.73828125 C16.36963266 18.78338286 15.96669829 17.75195169 14.625 15.1875 C12.27452674 11.09430825 9.98998922 9.41255162 6 7 C6 6.34 6 5.68 6 5 C5.195625 4.731875 4.39125 4.46375 3.5625 4.1875 C2.716875 3.795625 1.87125 3.40375 1 3 C0.67 2.01 0.34 1.02 0 0 Z " fill="#D3594A" transform="translate(171,49)"/>
<path d="M0 0 C0.66 0 1.32 0 2 0 C4.27815973 6.61245515 4.7267955 13.2434991 5.25 20.1875 C5.353125 21.36248047 5.45625 22.53746094 5.5625 23.74804688 C5.65015625 24.87662109 5.7378125 26.00519531 5.828125 27.16796875 C5.9096582 28.19172607 5.99119141 29.2154834 6.07519531 30.27026367 C5.995366 33.16822327 5.38914908 34.51235557 4 37 C3.835 38.216875 3.67 39.43375 3.5 40.6875 C3.335 41.780625 3.17 42.87375 3 44 C2.01 44.495 2.01 44.495 1 45 C1.07001221 44.40356689 1.14002441 43.80713379 1.2121582 43.19262695 C1.90886588 36.8421765 2.19200641 30.57420498 2.1875 24.1875 C2.18814453 23.23278809 2.18878906 22.27807617 2.18945312 21.29443359 C2.13533082 14.02851392 1.50544975 7.1240033 0 0 Z " fill="#FEE7DE" transform="translate(212,101)"/>
<path d="M0 0 C4.89439699 1.29851349 9.34683845 2.9695295 14 5 C15.99263591 5.68836513 17.99041337 6.36281399 20 7 C20 7.99 20 8.98 20 10 C21.32 10 22.64 10 24 10 C24 10.66 24 11.32 24 12 C24.763125 12.12375 25.52625 12.2475 26.3125 12.375 C29 13 29 13 32 15 C20.03167427 14.16500053 9.33200445 8.1965728 0 1 C0 0.67 0 0.34 0 0 Z " fill="#D66353" transform="translate(72,197)"/>
<path d="M0 0 C0.33 0 0.66 0 1 0 C1 6.6 1 13.2 1 20 C7.27 20 13.54 20 20 20 C20 20.33 20 20.66 20 21 C13.73 21 7.46 21 1 21 C1 27.27 1 33.54 1 40 C0.67 40 0.34 40 0 40 C0 33.73 0 27.46 0 21 C-6.6 21 -13.2 21 -20 21 C-20 20.67 -20 20.34 -20 20 C-13.4 20 -6.8 20 0 20 C0 13.4 0 6.8 0 0 Z " fill="#EAA196" transform="translate(104,105)"/>
<path d="M0 0 C0.33 0.66 0.66 1.32 1 2 C-1.39721488 5.16774824 -3.58905886 7.90942317 -7 10 C-7.99 10 -8.98 10 -10 10 C-10.33 11.32 -10.66 12.64 -11 14 C-12.32 14 -13.64 14 -15 14 C-15 14.99 -15 15.98 -15 17 C-18.96 17.66 -22.92 18.32 -27 19 C-25.45001185 15.9000237 -22.80053194 15.41532381 -19.6875 14 C-12.09406808 10.41175433 -6.19611667 5.64005492 0 0 Z " fill="#FAD8CF" transform="translate(188,189)"/>
<path d="M0 0 C1.13953125 0.16242188 2.2790625 0.32484375 3.453125 0.4921875 C7.90028088 1.04563742 12.27289847 1.15216335 16.75 1.125 C17.52843262 1.12306641 18.30686523 1.12113281 19.10888672 1.11914062 C25.4383141 1.07214962 31.70657117 0.69104317 38 0 C37.67 0.99 37.34 1.98 37 3 C25.12548444 5.11102499 12.95997038 3.73680786 1 3 C0.67 2.01 0.34 1.02 0 0 Z " fill="#FCD7CF" transform="translate(106,213)"/>
<path d="M0 0 C0.33 0.66 0.66 1.32 1 2 C0.690625 2.598125 0.38125 3.19625 0.0625 3.8125 C-1.18281989 6.3763939 -1.15636602 8.18541165 -1 11 C-1.66 11 -2.32 11 -3 11 C-3.6496875 12.423125 -3.6496875 12.423125 -4.3125 13.875 C-6 17 -6 17 -9 19 C-10.21284876 22.05429073 -10.21284876 22.05429073 -11 25 C-12.98 25.33 -14.96 25.66 -17 26 C-16.505 24.515 -16.505 24.515 -16 23 C-15.34 23 -14.68 23 -14 23 C-13.773125 22.46375 -13.54625 21.9275 -13.3125 21.375 C-12 19 -12 19 -9.75 16.5 C-6.40009985 12.64163287 -4.42078194 8.0930302 -2.234375 3.51171875 C-1 1 -1 1 0 0 Z " fill="#F9D3CC" transform="translate(206,163)"/>
<path d="M0 0 C1.32 0.33 2.64 0.66 4 1 C2.46739776 2.30240902 0.92345173 3.59147512 -0.625 4.875 C-1.48351562 5.59429687 -2.34203125 6.31359375 -3.2265625 7.0546875 C-6.10094813 9.07080587 -8.63437541 10.06236265 -12 11 C-11.67 8.69 -11.34 6.38 -11 4 C-7.61981469 2.95994298 -4.5219721 2.91995518 -1 3 C-0.67 2.01 -0.34 1.02 0 0 Z " fill="#E34C39" transform="translate(180,192)"/>
<path d="M0 0 C5.90406331 5.06062569 8.36800971 11.41611653 9 19 C6.69 19 4.38 19 2 19 C2 18.01 2 17.02 2 16 C2.99 16 3.98 16 5 16 C4.54625 14.989375 4.0925 13.97875 3.625 12.9375 C0 4.48489336 0 4.48489336 0 0 Z " fill="#D75945" transform="translate(200,77)"/>
<path d="M0 0 C-5.9725194 3.42866854 -9.67811946 5.14266806 -16.58984375 5.62109375 C-19.25530027 5.86777079 -19.25530027 5.86777079 -22 8 C-24.1875 7.625 -24.1875 7.625 -26 7 C-18.99231065 2.56475357 -8.375167 -2.89909627 0 0 Z " fill="#D76758" transform="translate(111,38)"/>
<path d="M0 0 C1.29873047 0.04833984 2.59746094 0.09667969 3.93554688 0.14648438 C5.30729658 0.20300577 6.67904132 0.25964794 8.05078125 0.31640625 C9.43422541 0.36964676 10.81768891 0.42238703 12.20117188 0.47460938 C15.5887645 0.60444742 18.97607439 0.73942 22.36328125 0.87890625 C22.36328125 1.20890625 22.36328125 1.53890625 22.36328125 1.87890625 C21.24469727 1.96192993 21.24469727 1.96192993 20.10351562 2.04663086 C16.68994719 2.30116525 13.27661628 2.55876158 9.86328125 2.81640625 C8.69023438 2.90341797 7.5171875 2.99042969 6.30859375 3.08007812 C0.30047217 3.53575027 -5.6669908 4.05880749 -11.63671875 4.87890625 C-10.82421875 2.94140625 -10.82421875 2.94140625 -9.63671875 0.87890625 C-6.16392471 -0.27869176 -3.65633051 -0.14369858 0 0 Z " fill="#F7D7CC" transform="translate(110.63671875,34.12109375)"/>
<path d="M0 0 C0.99 0.33 1.98 0.66 3 1 C4.0625 3.3125 4.0625 3.3125 5 6 C5.37125 6.70125 5.7425 7.4025 6.125 8.125 C7 10 7 10 7 13 C8.32 13.33 9.64 13.66 11 14 C11.33 15.98 11.66 17.96 12 20 C12.99 20 13.98 20 15 20 C15 21.65 15 23.3 15 25 C10.1754095 20.74300838 6.94136005 15.71088806 4 10 C4 9.34 4 8.68 4 8 C3.34 8 2.68 8 2 8 C1.34 5.36 0.68 2.72 0 0 Z " fill="#D16052" transform="translate(42,158)"/>
<path d="M0 0 C6.27 0 12.54 0 19 0 C19 3.3 19 6.6 19 10 C18.67 10 18.34 10 18 10 C18 7.03 18 4.06 18 1 C13.05 1.33 8.1 1.66 3 2 C2.11252807 5.54988771 1.89454533 8.14180778 1.9375 11.75 C1.94652344 12.73484375 1.95554687 13.7196875 1.96484375 14.734375 C1.97644531 15.48203125 1.98804687 16.2296875 2 17 C3.98 17.33 5.96 17.66 8 18 C8 18.33 8 18.66 8 19 C5.36 19 2.72 19 0 19 C0 12.73 0 6.46 0 0 Z " fill="#FFF7F1" transform="translate(126,126)"/>
<path d="M0 0 C0.66 0 1.32 0 2 0 C2.66 0.99 3.32 1.98 4 3 C6.05003955 4.19232613 6.05003955 4.19232613 8 5 C7.979375 5.763125 7.95875 6.52625 7.9375 7.3125 C7.87057159 10.10185786 7.87057159 10.10185786 9 13 C9.66 13 10.32 13 11 13 C10.34 14.32 9.68 15.64 9 17 C4.07692308 11.83076923 4.07692308 11.83076923 3.6875 7.625 C3.790625 6.75875 3.89375 5.8925 4 5 C3.01 5 2.02 5 1 5 C0.67 3.35 0.34 1.7 0 0 Z " fill="#EC4839" transform="translate(53,173)"/>
<path d="M0 0 C0.66 0.33 1.32 0.66 2 1 C1.67 1.66 1.34 2.32 1 3 C-2.0625 3.625 -2.0625 3.625 -5 4 C-5 4.66 -5 5.32 -5 6 C-5.66 6 -6.32 6 -7 6 C-7.33 6.99 -7.66 7.98 -8 9 C-8.66 9 -9.32 9 -10 9 C-10 9.99 -10 10.98 -10 12 C-8.68 11.34 -7.36 10.68 -6 10 C-6.33 11.65 -6.66 13.3 -7 15 C-8.65 15.33 -10.3 15.66 -12 16 C-11.67 14.68 -11.34 13.36 -11 12 C-11.66 12 -12.32 12 -13 12 C-10.94623624 6.95894351 -7.443018 3.84883412 -2.8125 1.125 C-1.884375 0.75375 -0.95625 0.3825 0 0 Z " fill="#D95540" transform="translate(83,46)"/>
<path d="M0 0 C1.8871875 0.061875 1.8871875 0.061875 3.8125 0.125 C-1.07400949 3.38267299 -4.97473113 4.5857492 -10.8125 5.25 C-11.52019531 5.33491699 -12.22789062 5.41983398 -12.95703125 5.50732422 C-18.37895192 6.12087034 -23.73089557 6.36110308 -29.1875 6.125 C-29.1875 5.795 -29.1875 5.465 -29.1875 5.125 C-28.53676514 5.04459473 -27.88603027 4.96418945 -27.21557617 4.88134766 C-24.26762449 4.51242609 -21.32136737 4.13135931 -18.375 3.75 C-16.83875977 3.56050781 -16.83875977 3.56050781 -15.27148438 3.3671875 C-14.28857422 3.23828125 -13.30566406 3.109375 -12.29296875 2.9765625 C-11.38699951 2.86135254 -10.48103027 2.74614258 -9.54760742 2.62744141 C-5.80515065 1.83071274 -3.9971432 -0.13105388 0 0 Z " fill="#DB4F42" transform="translate(157.1875,206.875)"/>
<path d="M0 0 C4.77172519 5.91693923 9.45463704 11.90727944 14 18 C10.43101431 17.70258453 9.25601345 17.28527213 6.8125 14.5625 C5.9153125 13.2940625 5.9153125 13.2940625 5 12 C4.34 11.34 3.68 10.68 3 10 C3 9.01 3 8.02 3 7 C1.68 6.67 0.36 6.34 -1 6 C-0.67 4.02 -0.34 2.04 0 0 Z " fill="#FADDD1" transform="translate(47,170)"/>
<path d="M0 0 C0.33 0 0.66 0 1 0 C1.33853295 8.16240568 0.29901921 15.95072024 -1 24 C-3 22 -3 22 -3.3125 18.75 C-3.18277086 12.38147841 -1.45588751 6.17018993 0 0 Z " fill="#DB5A4B" transform="translate(39,98)"/>
<path d="M0 0 C0.66 0 1.32 0 2 0 C-0.5062058 6.74747715 -4.42222469 12.47651662 -9 18 C-9.33 18 -9.66 18 -10 18 C-10.3125 15.8125 -10.3125 15.8125 -10 13 C-7.625 10.1875 -7.625 10.1875 -5 8 C-4.34 8 -3.68 8 -3 8 C-3 6.68 -3 5.36 -3 4 C-2.34 4 -1.68 4 -1 4 C-0.67 2.68 -0.34 1.36 0 0 Z " fill="#D25C4F" transform="translate(201,168)"/>
<path d="M0 0 C0.66 0.33 1.32 0.66 2 1 C1.01 3.64 0.02 6.28 -1 9 C-1.66 9 -2.32 9 -3 9 C-3.144375 9.928125 -3.28875 10.85625 -3.4375 11.8125 C-4 15 -4 15 -5 18 C-5.66 18.33 -6.32 18.66 -7 19 C-7.66 19.99 -8.32 20.98 -9 22 C-8.38080463 18.19538842 -7.25702628 15.0491016 -5.625 11.5625 C-5.18027344 10.60859375 -4.73554687 9.6546875 -4.27734375 8.671875 C-2.88611539 5.76178265 -1.47341685 2.86928545 0 0 Z " fill="#D86B5B" transform="translate(49,76)"/>
<path d="M0 0 C16.8929385 0.59453303 16.8929385 0.59453303 24 4 C24 4.66 24 5.32 24 6 C18.90108394 5.21088204 13.98866852 4.01788243 9 2.71875 C6.01244736 2.00298218 3.03504677 1.46970962 0 1 C0 0.67 0 0.34 0 0 Z " fill="#F9D7C9" transform="translate(136,36)"/>
<path d="M0 0 C0.66 0.33 1.32 0.66 2 1 C1.5875 1.61875 1.175 2.2375 0.75 2.875 C-1.60926352 7.08797057 -3.26421949 11.50243108 -5 16 C-5.6646697 17.66746406 -6.33077002 19.33436095 -7 21 C-7.33 21 -7.66 21 -8 21 C-8.31563182 15.73946963 -7.66590937 12.55426184 -5 8 C-4.34 8 -3.68 8 -3 8 C-3 6.68 -3 5.36 -3 4 C-2.34 4 -1.68 4 -1 4 C-0.67 2.68 -0.34 1.36 0 0 Z " fill="#FDE2D9" transform="translate(47,77)"/>
<path d="M0 0 C0.66 0.33 1.32 0.66 2 1 C1.67580986 9.23442944 -0.11003121 16.29789712 -3 24 C-3.33 24 -3.66 24 -4 24 C-3.43393721 19.30976546 -2.81462495 14.65499974 -2 10 C-1.34 10 -0.68 10 0 10 C0 6.7 0 3.4 0 0 Z " fill="#CB6255" transform="translate(212,134)"/>
<path d="M0 0 C1.11375 0.495 1.11375 0.495 2.25 1 C5.13883312 2.22782871 5.13883312 2.22782871 9 2 C10.5625 4.8125 10.5625 4.8125 12 8 C11.67 8.99 11.34 9.98 11 11 C7.33333333 7.33333333 3.66666667 3.66666667 0 0 Z " fill="#FCDED6" transform="translate(181,55)"/>
<path d="M0 0 C2.33524782 2.25740623 4.18705073 4.2805761 6 7 C5.625 9.6875 5.625 9.6875 5 12 C2.69857565 10.21825212 1.19965609 8.83695835 0.51171875 5.953125 C0.27676898 3.9753389 0.13248542 1.98728128 0 0 Z " fill="#D6695E" transform="translate(200,77)"/>
<path d="M0 0 C6.43681228 0.51085812 11.95942424 1.72942897 18 4 C11.41003985 5.89515194 5.96228698 3.7986245 0 1 C0 0.67 0 0.34 0 0 Z " fill="#CF6355" transform="translate(138,37)"/>
<path d="M0 0 C0.99 0.66 1.98 1.32 3 2 C0 5 -3 8 -6 11 C-5.55530671 5.96014269 -3.28656638 3.62365012 0 0 Z " fill="#FEE8DA" transform="translate(61,58)"/>
<path d="M0 0 C2.64 0 5.28 0 8 0 C5.47043472 3.0916909 2.77545388 3.90931332 -1 5 C-0.67 3.35 -0.34 1.7 0 0 Z " fill="#DD554D" transform="translate(169,198)"/>
<path d="M0 0 C5.445 1.485 5.445 1.485 11 3 C11 3.33 11 3.66 11 4 C7.7 4.33 4.4 4.66 1 5 C0.67 3.35 0.34 1.7 0 0 Z " fill="#F8DACF" transform="translate(93,209)"/>
<path d="M0 0 C2.97 0 5.94 0 9 0 C9 0.66 9 1.32 9 2 C9.66 2.33 10.32 2.66 11 3 C3.57142857 3.28571429 3.57142857 3.28571429 0 1 C0 0.67 0 0.34 0 0 Z " fill="#D94F3C" transform="translate(100,209)"/>
<path d="M0 0 C3.4375 0.8125 3.4375 0.8125 7 2 C7.33 2.99 7.66 3.98 8 5 C8.66 5.33 9.32 5.66 10 6 C4.68559972 6 3.78319167 4.52524678 0 1 C0 0.67 0 0.34 0 0 Z " fill="#DA6A5D" transform="translate(63,190)"/>
<path d="M0 0 C3.39417765 3.12621626 5.6062718 5.56541027 7 10 C6.01 10.33 5.02 10.66 4 11 C3.32880451 9.5437455 2.66318193 8.08492133 2 6.625 C1.62875 5.81289062 1.2575 5.00078125 0.875 4.1640625 C0 2 0 2 0 0 Z " fill="#D8665B" transform="translate(193,67)"/>
<path d="M0 0 C0 0.66 0 1.32 0 2 C-3.28491373 4.18994248 -4.83095639 4.35277339 -8.6875 4.625 C-10.17830078 4.73714844 -10.17830078 4.73714844 -11.69921875 4.8515625 C-12.45847656 4.90054688 -13.21773437 4.94953125 -14 5 C-11.35493484 3.23662322 -9.40786033 2.3439149 -6.4375 1.375 C-5.65246094 1.11460937 -4.86742187 0.85421875 -4.05859375 0.5859375 C-2 0 -2 0 0 0 Z " fill="#F9C9C2" transform="translate(160,208)"/>
<path d="M0 0 C0.33 0 0.66 0 1 0 C1.08090971 1.62418745 1.13914995 3.24951745 1.1875 4.875 C1.22230469 5.77992187 1.25710937 6.68484375 1.29296875 7.6171875 C1.19628906 8.40351562 1.09960938 9.18984375 1 10 C0.01 10.66 -0.98 11.32 -2 12 C-1.85831863 10.56208484 -1.71148957 9.1246763 -1.5625 7.6875 C-1.48128906 6.88699219 -1.40007813 6.08648437 -1.31640625 5.26171875 C-1 3 -1 3 0 0 Z " fill="#D36D64" transform="translate(39,98)"/>
<path d="M0 0 C3.7952131 1.49097658 5.61042731 3.75700849 8 7 C6.68 7 5.36 7 4 7 C0 2.77777778 0 2.77777778 0 0 Z " fill="#D26157" transform="translate(182,57)"/>
<path d="M0 0 C3.3125 0.1875 3.3125 0.1875 7 1 C8.9375 3.5625 8.9375 3.5625 10 6 C6.00499382 4.6302836 3.19990508 2.74277578 0 0 Z " fill="#FAD4CC" transform="translate(169,47)"/>
<path d="M0 0 C2.64 0 5.28 0 8 0 C5.01353231 1.99097846 2.40312738 2.94124926 -1 4 C-0.67 2.68 -0.34 1.36 0 0 Z " fill="#D56055" transform="translate(153,207)"/>
<path d="M0 0 C6.64615385 1.47692308 6.64615385 1.47692308 8.4375 4.125 C8.7159375 5.053125 8.7159375 5.053125 9 6 C5.06326356 4.68775452 2.77280706 3.08089673 0 0 Z " fill="#D56259" transform="translate(72,197)"/>
<path d="M0 0 C2.475 0.495 2.475 0.495 5 1 C5 1.66 5 2.32 5 3 C5.66 3 6.32 3 7 3 C6.34 4.32 5.68 5.64 5 7 C3.35 4.69 1.7 2.38 0 0 Z " fill="#D65F53" transform="translate(57,183)"/>
<path d="M0 0 C0.33 0 0.66 0 1 0 C0.88637738 1.4800841 0.75877092 2.95910074 0.625 4.4375 C0.52058594 5.67306641 0.52058594 5.67306641 0.4140625 6.93359375 C0.27742188 7.61550781 0.14078125 8.29742187 0 9 C-0.99 9.495 -0.99 9.495 -2 10 C-2.17942163 6.05272412 -2.09350689 3.4019487 0 0 Z " fill="#FEEFEC" transform="translate(38,95)"/>
<path d="M0 0 C3.057952 1.73559438 5.63379989 3.38472619 8 6 C5.69 6 3.38 6 1 6 C1.33 4.68 1.66 3.36 2 2 C1.34 2 0.68 2 0 2 C0 1.34 0 0.68 0 0 Z " fill="#FDE3DD" transform="translate(64,192)"/>
<path d="M0 0 C1.32 0.33 2.64 0.66 4 1 C1.03 3.475 1.03 3.475 -2 6 C-2.33 5.01 -2.66 4.02 -3 3 C-2.34 3 -1.68 3 -1 3 C-0.67 2.01 -0.34 1.02 0 0 Z " fill="#CA5A4F" transform="translate(180,192)"/>
<path d="M0 0 C0.99 0.33 1.98 0.66 3 1 C3.33 2.65 3.66 4.3 4 6 C1.525 5.01 1.525 5.01 -1 4 C-0.67 2.68 -0.34 1.36 0 0 Z " fill="#D84D3C" transform="translate(64,186)"/>
<path d="M0 0 C2.67927341 4.01891012 2.15601248 6.24161923 2 11 C-0.21151604 7.68272593 -1.33198453 5.707349 -0.5625 1.75 C-0.376875 1.1725 -0.19125 0.595 0 0 Z " fill="#D46658" transform="translate(39,144)"/>
<path d="M0 0 C1.98120645 2.97180967 2.65962579 4.51116436 3 8 C2.0625 10.3125 2.0625 10.3125 1 12 C-0.3271261 8.0186217 -0.06915913 4.14954773 0 0 Z " fill="#CE5B4C" transform="translate(37,136)"/>
<path d="M0 0 C2 2 2 2 2 5 C1.34 5 0.68 5 0 5 C-0.33 5.99 -0.66 6.98 -1 8 C-1.66 6.35 -2.32 4.7 -3 3 C-2.01 2.01 -1.02 1.02 0 0 Z " fill="#F0442E" transform="translate(202,88)"/>
<path d="M0 0 C0.66 0.33 1.32 0.66 2 1 C1.01 3.64 0.02 6.28 -1 9 C-1.99 9 -2.98 9 -4 9 C-2.80100302 5.9168649 -1.52299523 2.93720508 0 0 Z " fill="#D87A70" transform="translate(49,76)"/>
<path d="M0 0 C0.33 0.66 0.66 1.32 1 2 C0.34 2 -0.32 2 -1 2 C-1.66 3.65 -2.32 5.3 -3 7 C-3.99 6.67 -4.98 6.34 -6 6 C-3.375 1.125 -3.375 1.125 0 0 Z " fill="#FADCD2" transform="translate(54,69)"/>
<path d="M0 0 C2.8125 -0.3125 2.8125 -0.3125 6 0 C7.875 2.5 7.875 2.5 9 5 C5.54074837 3.7508258 2.85306797 2.32472205 0 0 Z " fill="#FBD8D0" transform="translate(160,42)"/>
<path d="M0 0 C-3.20336822 2.83374881 -5.78087253 3.5205537 -10 4 C-10 3.34 -10 2.68 -10 2 C-6.49223216 0.39644899 -3.85645121 -0.22036864 0 0 Z " fill="#FEE0D5" transform="translate(98,39)"/>
<path d="M0 0 C0.99 0.33 1.98 0.66 3 1 C1.35 2.65 -0.3 4.3 -2 6 C-2 4.35 -2 2.7 -2 1 C-1.34 0.67 -0.68 0.34 0 0 Z " fill="#D06154" transform="translate(187,186)"/>
<path d="M0 0 C0.66 0.33 1.32 0.66 2 1 C-1.625 5.875 -1.625 5.875 -5 7 C-4.60196439 4.11424181 -4.20990931 3.17810487 -1.9375 1.25 C-1.298125 0.8375 -0.65875 0.425 0 0 Z " fill="#D36C60" transform="translate(71,53)"/>
</svg>
