<svg width="192" height="192" viewBox="0 0 192 192" fill="none" xmlns="http://www.w3.org/2000/svg">
<path d="M60.9996 185.417C43.5777 178.594 28.5287 166.829 17.7029 151.568C6.87699 136.306 0.746111 118.213 0.0638654 99.5134C-0.61838 80.8137 4.17774 62.3225 13.8627 46.3124C23.5476 30.3023 37.6993 17.4714 54.5777 9.39742C71.4561 1.32346 90.3257 -1.64158 108.867 0.866357C127.408 3.37429 144.812 11.2459 158.939 23.5138C173.067 35.7818 183.302 51.9111 188.387 69.919C193.472 87.9269 193.184 107.028 187.56 124.875C186.625 127.904 185.521 130.878 184.253 133.783C174.992 155.635 157.925 173.254 136.38 183.204C114.835 193.154 90.3577 194.722 67.7196 187.603L69.7995 183.976C72.6049 179.236 75.0992 174.318 77.2663 169.254C78.7113 165.611 79.8878 161.868 80.7864 158.053L85.4263 139.97V139.65L86.1729 140.771C88.1047 143.398 90.6255 145.535 93.5329 147.011C98.6926 149.729 104.522 150.913 110.333 150.425C117.302 150.007 124.07 147.921 130.066 144.344C136.281 140.674 141.616 135.685 145.693 129.729C150.537 122.746 153.912 114.853 155.613 106.526C156.837 100.977 157.374 95.2975 157.213 89.6169C157.143 82.2859 155.552 75.0496 152.541 68.3654C149.53 61.6812 145.164 55.695 139.72 50.7856C131.988 43.7514 122.497 38.9402 112.253 36.8633C106.12 35.5771 99.8425 35.1113 93.5863 35.477C87.9586 35.7528 82.3784 36.6472 76.9464 38.144C66.7432 40.8957 57.5088 46.4371 50.2797 54.1461C44.2116 60.4763 39.765 68.1807 37.3196 76.6022C35.5074 82.4534 34.6607 88.561 34.8129 94.6846C35.0277 104.682 38.3247 114.369 44.253 122.421C46.8294 126.06 50.2768 128.994 54.2797 130.956C56.1997 131.916 57.0529 131.436 57.6395 129.356L60.0396 119.274C60.19 118.745 60.2105 118.188 60.099 117.649C59.9876 117.111 59.7476 116.606 59.3996 116.18C56.2158 112.085 54.0415 107.297 53.053 102.205C50.8616 92.3463 52.5216 82.0231 57.6929 73.3485C63.3137 63.7807 72.5022 56.8358 83.2396 54.0393C88.1989 52.762 93.3288 52.2758 98.4397 52.599C105.963 52.8553 113.263 55.2212 119.506 59.4267C126.963 64.4243 132.273 72.0382 134.386 80.7629C135.461 85.2119 135.875 89.7947 135.613 94.3643C135.41 99.3252 134.641 104.247 133.32 109.033C131.771 115.064 128.932 120.687 125 125.515C121.615 129.707 117.041 132.775 111.88 134.316C108.208 135.408 104.298 135.408 100.626 134.316C98.1726 133.644 95.9633 132.282 94.2615 130.391C92.5596 128.5 91.4366 126.159 91.0263 123.648C90.5629 121.36 90.6914 118.992 91.3996 116.768L96.1996 100.338C97.2699 96.8379 98.1249 93.2752 98.7597 89.6703C99.4023 86.462 99.2374 83.1447 98.2797 80.016C97.5686 77.5552 96.0394 75.4106 93.9449 73.9365C91.8503 72.4623 89.3158 71.7468 86.7597 71.9082C84.6566 71.9761 82.5912 72.4861 80.6983 73.4051C78.8054 74.3242 77.1273 75.6316 75.773 77.2422C73.0424 80.4633 71.2036 84.3437 70.4397 88.4969C69.0448 95.4615 69.75 102.684 72.4662 109.246C72.5475 109.489 72.5475 109.751 72.4662 109.993L63.8262 146.798C62.8662 150.852 61.9063 154.959 61.053 159.066C60.5198 161.987 60.2521 164.951 60.253 167.921C60.1455 173.48 60.4128 179.04 61.053 184.563C60.9996 185.256 60.9996 185.363 60.9996 185.417Z" fill="#D42B28"/>
</svg>
