<?xml version="1.0" encoding="UTF-8"?>
<svg version="1.1" xmlns="http://www.w3.org/2000/svg" width="32" height="32">
<path d="M0 0 C10.56 0 21.12 0 32 0 C32 10.56 32 21.12 32 32 C21.44 32 10.88 32 0 32 C0 21.44 0 10.88 0 0 Z " fill="#6EC2D3" transform="translate(0,0)"/>
<path d="M0 0 C3 1 3 1 4.6875 3.9375 C6 7 6 7 6 9 C7.670625 8.9690625 7.670625 8.9690625 9.375 8.9375 C13 9 13 9 15 10 C14.36795995 14.67709637 14.36795995 14.67709637 12.46875 16.34375 C10.42860529 18.64433872 10.69481683 20.16696539 10.8125 23.1875 C10.83957031 24.08855469 10.86664062 24.98960938 10.89453125 25.91796875 C10.92933594 26.60503906 10.96414062 27.29210937 11 28 C9.1484375 28.59765625 9.1484375 28.59765625 7 29 C6.21625 28.484375 5.4325 27.96875 4.625 27.4375 C2.02357393 25.62894459 2.02357393 25.62894459 -1.0625 26.75 C-2.031875 27.1625 -3.00125 27.575 -4 28 C-6.3125 28.6875 -6.3125 28.6875 -8 29 C-8.33 28.67 -8.66 28.34 -9 28 C-8.94131709 26.41556155 -8.85298193 24.83217686 -8.75 23.25 C-8.67897951 19.1012197 -8.68321413 18.3722234 -11.5 15.0625 C-12.325 14.381875 -13.15 13.70125 -14 13 C-14 12.01 -14 11.02 -14 10 C-13.40832031 9.9484375 -12.81664062 9.896875 -12.20703125 9.84375 C-7.17612558 9.1399794 -7.17612558 9.1399794 -3.2890625 6.0859375 C-2.07232758 4.0955561 -0.97943991 2.1163777 0 0 Z " fill="#F4B420" transform="translate(15,1)"/>
</svg>
