<svg width="192" height="192" viewBox="0 0 192 192" fill="none" xmlns="http://www.w3.org/2000/svg">
<g clip-path="url(#clip0)">
<path d="M159.308 36.9783C159.153 36.0501 158.38 35.4312 157.606 35.4312C156.833 35.4312 143.219 35.1218 143.219 35.1218C143.219 35.1218 131.77 23.983 130.687 22.9001C129.604 21.8172 127.284 22.1266 126.51 22.436C126.51 22.436 124.344 23.0548 120.786 24.1377C120.167 22.1266 119.239 19.806 118.002 17.3307C113.979 9.59544 107.946 5.41839 100.829 5.41839C100.365 5.41839 99.901 5.41839 99.2822 5.57309C99.1275 5.26368 98.8181 5.10898 98.6634 4.79957C95.5693 1.39605 91.5469 -0.151008 86.7511 0.00369768C77.4687 0.313109 68.1864 6.96544 60.7606 18.8778C55.5006 27.2319 51.4782 37.7518 50.2406 45.9512C39.5659 49.2 32.14 51.5206 31.9853 51.6753C26.5706 53.3771 26.4159 53.5318 25.7971 58.6371C25.333 62.5047 11.1001 171.572 11.1001 171.572L129.295 191.993L180.503 179.307C180.348 179.153 159.463 37.9065 159.308 36.9783ZM114.907 25.9942C112.123 26.7677 109.029 27.8507 105.78 28.7789C105.78 24.1377 105.161 17.4854 102.995 11.916C109.957 13.3084 113.36 21.1983 114.907 25.9942ZM99.4369 30.7901C93.2487 32.6465 86.4417 34.8124 79.6346 36.8236C81.4911 29.5524 85.204 22.2813 89.5358 17.4854C91.2375 15.7837 93.5581 13.7725 96.1881 12.5348C98.9728 17.9495 99.5916 25.5301 99.4369 30.7901ZM86.9058 6.19192C89.0717 6.19192 90.9281 6.65603 92.4752 7.58426C89.9999 8.97661 87.5246 10.8331 85.204 13.3084C79.3252 19.6513 74.8387 29.5524 72.9823 38.9895C67.4129 40.6912 61.8435 42.393 56.7382 43.94C59.987 29.0883 72.5182 6.65603 86.9058 6.19192Z" fill="#95BF47"/>
<path d="M157.606 35.4313C156.833 35.4313 143.219 35.1219 143.219 35.1219C143.219 35.1219 131.771 23.9831 130.688 22.9002C130.224 22.4361 129.759 22.2814 129.141 22.1267V191.839L180.348 179.153C180.348 179.153 159.463 37.9066 159.308 36.8237C159.153 36.0502 158.38 35.4313 157.606 35.4313Z" fill="#5E8E3E"/>
<path d="M100.675 61.7311L94.796 84.0087C94.796 84.0087 88.1436 80.9146 80.2537 81.5334C68.6508 82.307 68.6508 89.5781 68.6508 91.4346C69.2696 101.336 95.4148 103.502 96.9619 126.862C98.0448 145.272 87.2154 157.803 71.5902 158.731C52.7161 159.969 42.3508 148.83 42.3508 148.83L46.3732 131.813C46.3732 131.813 56.7384 139.703 65.0925 139.084C70.5072 138.774 72.5184 134.288 72.3637 131.194C71.5902 118.199 50.2408 118.972 48.8485 97.6228C47.7655 79.677 59.5231 61.4217 85.5137 59.8747C95.5695 59.1011 100.675 61.7311 100.675 61.7311Z" fill="white"/>
</g>
<defs>
<clipPath id="clip0">
<rect width="192" height="192" fill="white"/>
</clipPath>
</defs>
</svg>
