<?xml version="1.0" encoding="UTF-8"?>
<svg version="1.1" xmlns="http://www.w3.org/2000/svg" width="512" height="512">
<path d="M0 0 C0.67788574 0.32371582 1.35577148 0.64743164 2.05419922 0.98095703 C15.82398656 7.68354839 27.95685377 16.39655025 39 27 C39.49322754 27.45681152 39.98645508 27.91362305 40.49462891 28.38427734 C70.55534522 56.24430141 86.17660702 95.48216185 88 136 C88.21216716 146.33266759 88.1305354 156.66661705 88 167 C88.56485107 166.85997559 89.12970215 166.71995117 89.71166992 166.57568359 C102.3085219 163.59169792 114.83469846 163.67719601 126.2734375 170.3203125 C136.0376969 177.16651737 142.26540629 186.24767094 144.59765625 198.015625 C146.17402632 211.85869093 142.51295749 224.21548295 134 235.25 C123.7339103 246.00389526 107.4920534 250.75125768 94 256 C95.83671677 262.88203577 98.21324816 269.09123401 101.5625 275.375 C102.00013672 276.19718018 102.43777344 277.01936035 102.88867188 277.86645508 C108.92629593 288.87389021 116.59807634 297.85433071 127 305 C128.36511719 305.94746094 128.36511719 305.94746094 129.7578125 306.9140625 C138.85301512 312.635606 148.70288204 315.95967943 158.87451172 319.32373047 C171.22622593 323.48327872 180.93569727 328.62789578 188.16015625 339.79296875 C191.82697652 347.51887379 191.29387418 359.45652073 188.5625 367.375 C182.3710695 380.32468211 170.45950328 387.72123241 157.46484375 392.54296875 C147.67679259 395.90796397 136.40817505 399.26083916 126 399 C125.97421875 399.60585938 125.9484375 400.21171875 125.921875 400.8359375 C125.1726366 411.90423203 120.96891576 422.10103247 113 429.9765625 C102.47219186 438.81240147 90.49993984 440.32141378 77.234375 439.80859375 C75.35547813 439.75034757 73.47657153 439.69241475 71.59765625 439.63476562 C68.67738458 439.5381084 65.7573333 439.43776739 62.83740234 439.33129883 C43.35676047 438.35849275 43.35676047 438.35849275 25 444.125 C24.36320312 444.45556396 23.72640625 444.78612793 23.0703125 445.12670898 C17.19044725 448.23423392 11.45430173 451.60220653 5.69628906 454.92797852 C4.46423641 455.63956136 3.2321398 456.35106808 2 457.0625 C1.38733276 457.41625702 0.77466553 457.77001404 0.14343262 458.13449097 C-28.68878525 474.74659191 -58.78073709 484.04636336 -92 476 C-109.99895067 471.05840433 -126.01214813 461.55065047 -142.15771484 452.45532227 C-165.22115565 439.49504293 -181.72568547 438.49287559 -207.91601562 439.8203125 C-222.01288948 440.39894252 -233.80816189 438.80205999 -245.1875 430 C-252.05433841 423.63459401 -256.54885389 414.19059203 -258 405 C-258.125 401.5 -258.125 401.5 -258 399 C-258.60875977 398.95319092 -259.21751953 398.90638184 -259.84472656 398.8581543 C-265.97059549 398.32534234 -271.793326 397.32522198 -277.75 395.8125 C-278.61399414 395.59327881 -279.47798828 395.37405762 -280.36816406 395.14819336 C-296.33573671 390.93115446 -310.40117177 384.23069824 -319.390625 369.76171875 C-323.20737269 361.76536355 -323.39552346 351.80504731 -321.33984375 343.25390625 C-317.47286385 333.59482658 -310.03230072 327.6196703 -301 323 C-296.41635432 321.14132893 -291.75506929 319.55999623 -287.0625 318 C-274.23045365 313.72035033 -263.43397696 308.66516944 -253 300 C-252.39542969 299.54109375 -251.79085937 299.0821875 -251.16796875 298.609375 C-243.07901409 292.25507202 -238.00376476 283.36129142 -233.1875 274.4375 C-232.62796631 273.41209106 -232.62796631 273.41209106 -232.05712891 272.3659668 C-229.29955796 267.09656763 -227.54387404 261.7349182 -226 256 C-226.73001221 255.70343506 -227.46002441 255.40687012 -228.2121582 255.10131836 C-231.58354079 253.72435734 -234.94794229 252.33104989 -238.3125 250.9375 C-239.46041016 250.47150391 -240.60832031 250.00550781 -241.79101562 249.52539062 C-255.51435515 243.81057218 -266.59553185 237.33293559 -273.375 223.625 C-277.84813438 212.31294017 -278.21590008 200.28272962 -274 188.875 C-269.42418565 178.81348314 -261.86264032 171.44165395 -251.8046875 167.0390625 C-241.44248319 163.31140484 -230.47840796 164.38227103 -220 167 C-220.01047363 166.17612793 -220.02094727 165.35225586 -220.03173828 164.50341797 C-220.5562231 116.76202174 -213.74242112 72.31672491 -179.953125 36.10546875 C-178.35939276 34.38742539 -176.88541074 32.65134665 -175.4375 30.8125 C-172.24929212 27.13379859 -168.75554984 24.08776039 -165 21 C-164.09636719 20.2471875 -163.19273437 19.494375 -162.26171875 18.71875 C-116.27846374 -18.20808249 -53.08926696 -25.37083038 0 0 Z M-155.5 51.125 C-169.01876117 65.00913309 -179.18774959 81.84431168 -185.4375 100.1875 C-185.66026611 100.83823486 -185.88303223 101.48896973 -186.11254883 102.15942383 C-186.82693685 104.42426784 -187.42737167 106.69495407 -188 109 C-188.25910156 110.03858154 -188.51820313 111.07716309 -188.78515625 112.1472168 C-191.6849943 125.44019409 -191.75724853 138.8823259 -192.125 152.4375 C-192.23369226 156.08931846 -192.34594756 159.74099007 -192.4616394 163.39259338 C-192.53208403 165.64744469 -192.59805671 167.90244191 -192.65872192 170.15757751 C-193.19065198 188.22878238 -193.19065198 188.22878238 -198 194 C-201.69341423 197.24572766 -204.93097861 198.26702774 -209.86376953 198.19580078 C-215.27759774 197.69958476 -220.57035888 196.05215427 -225.81835938 194.68945312 C-231.64045354 193.26502623 -236.11906838 192.644886 -242 194 C-245.12653087 196.5943554 -247.73032052 198.78951244 -248.23828125 202.953125 C-248.44605791 209.38326573 -246.96315722 212.71600281 -242.59089661 217.56167603 C-239.83100985 220.05687984 -236.2556862 221.0837272 -232.82421875 222.3984375 C-231.17506665 223.04931814 -229.52598017 223.70036508 -227.87695312 224.3515625 C-225.28472214 225.36443233 -222.69112004 226.37359768 -220.09594727 227.37890625 C-217.58480364 228.35494378 -215.07942042 229.34476719 -212.57421875 230.3359375 C-211.80526779 230.6288266 -211.03631683 230.9217157 -210.24406433 231.22348022 C-204.06808586 233.67694821 -199.45051324 236.38907617 -196.125 242.375 C-193.76597591 249.97629985 -195.61578167 256.13194544 -198 263.4375 C-198.31179199 264.40453857 -198.62358398 265.37157715 -198.94482422 266.36791992 C-201.84056483 275.04868126 -205.60792399 282.99312369 -210 291 C-210.42925781 291.84433594 -210.85851562 292.68867188 -211.30078125 293.55859375 C-225.94116361 321.78283604 -251.67664468 336.05944208 -280.48339844 345.94335938 C-281.51368164 346.29849609 -282.54396484 346.65363281 -283.60546875 347.01953125 C-284.98448364 347.48516479 -284.98448364 347.48516479 -286.39135742 347.96020508 C-289.13343594 349.05318705 -291.51306128 350.41755576 -294 352 C-293.74640203 355.71943683 -293.57127481 357.47550281 -290.76977539 360.04760742 C-280.86630035 367.02848798 -268.69695988 368.8492407 -257.0625 371.1875 C-254.55453123 371.70000531 -252.04735938 372.2159838 -249.54112244 372.7368927 C-247.9951766 373.05736841 -246.4481491 373.3726856 -244.8999176 373.68193054 C-237.3599847 375.22801044 -237.3599847 375.22801044 -234 377 C-232.11801524 382.0516433 -231.74774697 387.16140848 -231.125 392.5 C-230.27425488 399.17303202 -229.32169546 404.91526917 -224.1857605 409.68481445 C-221.53015156 411.2827107 -219.98565757 411.34736109 -216.90283203 411.29296875 C-215.88722198 411.28305908 -214.87161194 411.27314941 -213.82522583 411.26293945 C-212.18310623 411.22559692 -212.18310623 411.22559692 -210.5078125 411.1875 C-209.37028534 411.17614014 -208.23275818 411.16478027 -207.0607605 411.15307617 C-202.20025497 411.1041947 -197.34051063 411.02051907 -192.48046875 410.93847656 C-168.571476 410.56935073 -151.71778411 413.72245229 -130.75 425.75 C-129.65953369 426.36617188 -128.56906738 426.98234375 -127.44555664 427.6171875 C-122.73941659 430.27916214 -118.0477636 432.96293838 -113.38671875 435.703125 C-93.97735985 447.04392285 -72.60917583 454.45651618 -50 449 C-31.55945975 444.09780522 -15.89690829 434.69449796 0.36376953 424.9609375 C8.40701292 420.18817217 16.67960256 415.55076064 25.8125 413.25 C26.66457031 413.02828125 27.51664062 412.8065625 28.39453125 412.578125 C29.68423828 412.29195313 29.68423828 412.29195313 31 412 C31.79615723 411.82218994 32.59231445 411.64437988 33.41259766 411.46118164 C38.6188013 410.79189359 43.76237073 410.95954235 49.00390625 411.04296875 C51.37694487 411.06534684 53.74999232 411.08680334 56.12304688 411.10742188 C59.85172417 411.14458314 63.57995054 411.18777638 67.30834961 411.24682617 C70.91526896 411.30124961 74.52167939 411.33038722 78.12890625 411.35546875 C79.2435878 411.37925095 80.35826935 411.40303314 81.50672913 411.42753601 C87.6078426 411.48628419 87.6078426 411.48628419 93.13452148 409.17016602 C98.74662616 402.64143961 98.90935923 394.59493442 99.81640625 386.38671875 C99.92855469 385.48050781 100.04070312 384.57429688 100.15625 383.640625 C100.24712891 382.82110352 100.33800781 382.00158203 100.43164062 381.15722656 C101.11807551 378.55184056 101.85090788 377.60617643 104 376 C106.02685547 375.27978516 106.02685547 375.27978516 108.3671875 374.7890625 C109.68033936 374.50397827 109.68033936 374.50397827 111.02001953 374.21313477 C112.43323486 373.92200806 112.43323486 373.92200806 113.875 373.625 C115.86991468 373.189365 117.86470327 372.7531523 119.859375 372.31640625 C122.87120925 371.66917621 125.88363574 371.0248147 128.89648438 370.38232422 C146.21036998 367.1821419 146.21036998 367.1821419 160.8671875 358.12890625 C162.18791469 356.02330784 162.18791469 356.02330784 162.0859375 353.4296875 C161.17224131 350.74514517 161.17224131 350.74514517 158.2890625 349.4453125 C157.07992188 349.00960938 155.87078125 348.57390625 154.625 348.125 C153.96234131 347.8772583 153.29968262 347.6295166 152.61694336 347.37426758 C149.65418994 346.27440314 146.67197083 345.23363647 143.68701172 344.19580078 C127.32691117 338.50192763 112.92045556 331.81700051 100 320 C99.14921875 319.23042969 98.2984375 318.46085937 97.421875 317.66796875 C82.5506969 303.54947297 73.50810077 285.17687738 67 266 C66.58492188 264.79472656 66.16984375 263.58945312 65.7421875 262.34765625 C62.99231527 253.9538155 61.62117487 248.00824337 65.63671875 239.89453125 C69.37731547 234.6962808 74.60352711 232.72754744 80.37109375 230.57421875 C82.01392092 229.93618776 83.6564913 229.29749524 85.29882812 228.65820312 C87.86751156 227.66953102 90.43819445 226.68723842 93.01391602 225.71704102 C95.51524607 224.77057239 98.00575255 223.79917116 100.49609375 222.82421875 C101.2587706 222.54478928 102.02144745 222.2653598 102.80723572 221.97746277 C108.87652166 219.57320396 113.05196077 215.89607846 116 210 C116.57322775 205.30141192 116.41740893 201.85027745 114.3125 197.5625 C111.77640492 194.75223248 110.69184916 193.73836983 107 193 C100.02690188 193.33116682 93.32575884 194.97059057 86.57421875 196.62695312 C80.78908829 197.98611028 75.53875288 198.9458099 69.8125 196.8125 C66.19238954 194.47953993 63.92227622 191.84455245 62 188 C61.03851545 181.03427673 60.76313876 174.11329228 60.5703125 167.08984375 C60.49662107 164.77667585 60.42238483 162.46352525 60.34765625 160.15039062 C60.2347598 156.55261039 60.12548065 152.95486369 60.02587891 149.35668945 C59.64865251 135.97803332 59.19702949 123.04089207 56 110 C55.80760742 109.1944165 55.61521484 108.38883301 55.41699219 107.55883789 C47.00352054 74.97039559 24.80242808 47.00823789 -4 30 C-54.65846238 0.94828205 -114.10913153 11.60226664 -155.5 51.125 Z " fill="#050505" transform="translate(322,24)"/>
</svg>
