<svg width="1500" height="1500" viewBox="0 0 1500 1500" fill="none" xmlns="http://www.w3.org/2000/svg" xmlns:xlink="http://www.w3.org/1999/xlink">
<rect width="1500" height="1500" fill="url(#pattern0)"/>
<mask id="mask0_2988_653" style="mask-type:alpha" maskUnits="userSpaceOnUse" x="345" y="269" width="810" height="963">
<path d="M581.964 1144.96H590.414V1177.93L570.541 1178.19C530.509 1179 522.711 1155.03 522.711 1122.35V1067.32H498.64V1036.26H522.711V1001.45L563.473 987.233V1036.26H594.221V1067.32H563.473V1115.26C563.473 1134.32 564.282 1144.94 581.99 1144.94L581.964 1144.96Z" fill="#F952C0"/>
<path d="M670.948 1031.36C709.911 1031.36 734.139 1051.23 734.139 1094.29V1138.96C734.139 1149.86 734.4 1166.74 736.851 1177.09H695.724C694.915 1173.83 694.368 1168.93 694.368 1166.48V1158.31H694.107C687.013 1170.02 675.043 1181.19 651.623 1181.19C622.753 1181.19 602.046 1164.57 602.046 1138.7C602.046 1100.83 645.912 1095.12 664.689 1092.67C682.397 1090.48 693.298 1089.41 693.298 1077.15C693.298 1066.54 684.04 1061.35 670.974 1061.35C658.978 1061.35 650.267 1068.16 646.72 1079.87H608.305C612.947 1054.8 633.915 1031.38 670.948 1031.38V1031.36ZM664.689 1151.48C679.946 1151.48 693.846 1143.03 693.846 1111.71L693.585 1104.36C690.038 1110.07 682.423 1114.97 667.714 1118.26C650.006 1122.06 644.008 1127.8 644.008 1135.96C644.008 1144.13 649.459 1151.48 664.715 1151.48H664.689Z" fill="#F952C0"/>
<path d="M809.697 1131.61H810.505C816.764 1104.09 827.118 1073.03 837.471 1036.26H881.337C826.857 1190.99 879.694 1042.52 821.693 1205.41C815.434 1222.31 803.985 1231.57 784.921 1231.57H753.313V1200.25H768.282C776.445 1200.25 782.183 1198.34 784.634 1189.09L787.633 1179.28C766.118 1119.35 750.861 1079.86 735.892 1036.29H780.018C790.085 1070.61 799.891 1097.83 809.697 1131.63V1131.61Z" fill="#F952C0"/>
<path d="M425.429 977.973C389.752 977.973 353.241 995.133 353.241 1031.91C353.241 1072.22 384.85 1083.93 416.98 1093.74C441.755 1101.36 456.751 1106 456.751 1123.16C456.751 1138.13 446.684 1145.77 426.525 1145.77C407.487 1145.77 393.065 1134.58 389.935 1116.09H345C351.624 1160.92 385.058 1181.71 426.551 1181.71C463.584 1181.71 499.834 1163.45 499.834 1123.68C499.834 1083.91 467.965 1072.2 434.453 1062.13C409.938 1054.78 396.325 1047.97 396.325 1034.07C396.325 1020.17 408.321 1013.65 424.099 1013.65C440.686 1013.65 450.283 1020.67 454.56 1036.26H498.635C492.167 993.908 462.984 977.973 425.455 977.973H425.429Z" fill="#F952C0"/>
<path d="M1155 982.619H1111.42V1177.09H1155V982.619Z" fill="#F952C0"/>
<path d="M1025.1 982.619H984.882L915.433 1177.09H960.915L976.381 1130.26H1041.24L1056.71 1177.09H1102.19L1032.74 982.619H1025.12H1025.1ZM987.699 1095.93L1008.8 1031.99L1029.9 1095.93H987.699Z" fill="#F952C0"/>
<path d="M663.952 467.795L757.612 374.135L827.89 444.413L757.612 374.135L663.952 467.795Z" fill="#F952C0"/>
<path d="M523.4 420.961C549.281 395.079 591.246 395.079 617.06 420.961L663.889 467.79L757.617 374.063L710.787 327.233C633.143 249.589 507.317 249.589 429.673 327.233C352.028 404.878 352.028 530.703 429.673 608.348L476.502 655.177L570.23 561.45L523.4 514.62C497.518 488.739 497.518 446.774 523.4 420.893V420.961Z" fill="#F952C0"/>
<path d="M1085.55 327.233C1007.91 249.589 882.084 249.589 804.44 327.233L757.61 374.063L827.888 444.342L851.337 467.79L757.61 561.518L663.883 467.79L570.155 561.518L663.883 655.245L570.155 748.972L663.883 842.7L720.781 899.598C741.054 919.871 774.031 919.871 794.303 899.598L851.202 842.7L1038.59 655.313L1085.42 608.483C1163.06 530.838 1163.06 405.013 1085.42 327.368L1085.55 327.233Z" fill="#F952C0"/>
</mask>
<g mask="url(#mask0_2988_653)">
<rect x="2208.57" y="-559.896" width="1896.73" height="3095.4" rx="15" transform="rotate(90 2208.57 -559.896)" fill="white"/>
<rect x="2208.57" y="-559.896" width="1896.73" height="3095.4" rx="15" transform="rotate(90 2208.57 -559.896)" fill="white"/>
<rect x="2208.57" y="-559.896" width="1896.73" height="3095.4" rx="15" transform="rotate(90 2208.57 -559.896)" fill="white"/>
<rect x="2208.57" y="-559.896" width="1896.73" height="3095.4" rx="15" transform="rotate(90 2208.57 -559.896)" fill="white"/>
</g>
<defs>
<pattern id="pattern0" patternContentUnits="objectBoundingBox" width="1" height="1">
<use xlink:href="#image0_2988_653" transform="translate(-0.440255) scale(0.000979432)"/>
</pattern>
</defs>
</svg>