<?xml version="1.0" encoding="UTF-8"?>
<svg version="1.1" xmlns="http://www.w3.org/2000/svg" width="269" height="60">
<path d="M0 0 C3.63021379 1.63548694 6.80869359 3.62770143 10 6 C11.3921875 4.7934375 11.3921875 4.7934375 12.8125 3.5625 C17.26124415 -0.29307826 21.50187941 -0.33794556 27.203125 -0.28515625 C32.23010437 0.22737098 35.46032287 2.30635516 38.875 6.0625 C41.28883366 10.21965797 41.46589747 14.31414662 41 19 C38.30734381 27.07796857 30.51543317 32.68982919 24.21484375 38.0546875 C22.50205894 39.55903818 20.83617507 41.11688345 19.19140625 42.6953125 C18.70454346 43.1588916 18.21768066 43.6224707 17.71606445 44.10009766 C16.30835808 45.44427557 14.91173363 46.80003019 13.515625 48.15625 C11 50 11 50 8.91015625 49.9765625 C6.68578251 48.83935711 5.03842507 47.55628835 3.1875 45.875 C2.50042969 45.25238281 1.81335938 44.62976562 1.10546875 43.98828125 C-1.99762401 41.05790237 -5.02428263 38.05940942 -8 35 C-6.68 33.02 -5.36 31.04 -4 29 C-4.99 28.01 -5.98 27.02 -7 26 C-7.5775 26.309375 -8.155 26.61875 -8.75 26.9375 C-10.93156446 27.96768322 -12.60918302 28.69604414 -15 29 C-16.66796875 27.890625 -16.66796875 27.890625 -18.1875 26.25 C-18.69667969 25.71890625 -19.20585937 25.1878125 -19.73046875 24.640625 C-22.9575085 20.47029671 -22.55397649 15.00139334 -22 10 C-17.4566925 0.5638998 -9.84976814 -1.699085 0 0 Z M-13 12 C-13.75015195 14.95691709 -13.75015195 14.95691709 -13 18 C-10.62499209 20.87640616 -10.62499209 20.87640616 -8 23 C-4.19364503 19.79239749 -0.45436433 16.59253891 3 13 C-0.98402161 9.11475905 -0.98402161 9.11475905 -6.125 7.4375 C-9.72639431 8.14212062 -10.93127298 8.97647589 -13 12 Z M8 9 C7.01 9.99 6.02 10.98 5 12 C6.36983503 15.16115776 6.9890638 15.9927092 10 18 C11.32 16.68 12.64 15.36 14 14 C13.67 13.01 13.34 12.02 13 11 C10.49552484 9.78130071 10.49552484 9.78130071 8 9 Z " fill="#FF33BA" transform="translate(22,0)"/>
<path d="M0 0 C1.55859375 1.01171875 1.55859375 1.01171875 3.93359375 3.19921875 C4.46339844 3.64265625 4.99320313 4.08609375 5.5390625 4.54296875 C7.3357255 6.6768206 7.42140006 8.13094583 7.62109375 10.88671875 C7.71970703 12.09908203 7.71970703 12.09908203 7.8203125 13.3359375 C7.87638672 14.25826172 7.87638672 14.25826172 7.93359375 15.19921875 C2.57446184 15.63849186 2.57446184 15.63849186 -0.06640625 15.19921875 C-1.94140625 12.76171875 -1.94140625 12.76171875 -3.06640625 10.19921875 C-5.2953162 9.08476377 -6.59695731 9.03441589 -9.06640625 9.01171875 C-9.76765625 8.99753906 -10.46890625 8.98335937 -11.19140625 8.96875 C-13.31165563 9.03409552 -13.31165563 9.03409552 -15.06640625 11.19921875 C-15.13913187 13.75382089 -15.13913187 13.75382089 -14.06640625 16.19921875 C-10.67499031 17.84408539 -7.22613901 18.67388667 -3.56640625 19.51171875 C2.10715893 21.02365133 4.81456256 23.27293759 8.24609375 28.01171875 C9.8225578 33.02774074 9.60970684 36.84699256 7.30859375 41.44921875 C3.68964736 45.63957773 -0.4271455 48.83247154 -6.08203125 49.40234375 C-12.7864278 49.54299543 -17.50113674 48.29807562 -22.81640625 43.94921875 C-26.37939866 39.59445025 -28.06640625 35.83708261 -28.06640625 30.19921875 C-24.94291234 29.70925892 -22.16558736 29.49008409 -19.06640625 30.19921875 C-17.4827253 32.13338647 -16.51040368 34.1239495 -15.37890625 36.34765625 C-14.2150928 38.34099855 -14.2150928 38.34099855 -12.12890625 38.98828125 C-8.66416831 39.4341115 -5.3575065 39.43338134 -2.06640625 38.19921875 C-2.39640625 35.88921875 -2.72640625 33.57921875 -3.06640625 31.19921875 C-4.07960938 30.96847656 -5.0928125 30.73773437 -6.13671875 30.5 C-20.34720541 27.10180167 -20.34720541 27.10180167 -25.44140625 20.38671875 C-26.85127518 15.45217748 -26.79559061 11.02275191 -24.50390625 6.44921875 C-19.19020592 -1.55797795 -8.80660848 -3.41276888 0 0 Z " fill="#FFFFFF" transform="translate(102.06640625,0.80078125)"/>
<path d="M0 0 C1.37478516 0.01740234 1.37478516 0.01740234 2.77734375 0.03515625 C3.69644531 0.04417969 4.61554688 0.05320312 5.5625 0.0625 C6.27277344 0.07410156 6.98304688 0.08570313 7.71484375 0.09765625 C9.83577379 5.5774547 11.95361313 11.05843367 14.06860352 16.54052734 C14.78845867 18.40511275 15.50915571 20.26937336 16.23071289 22.13330078 C17.26800763 24.81327631 18.30226425 27.49440717 19.3359375 30.17578125 C19.6588829 31.0082135 19.98182831 31.84064575 20.31455994 32.69830322 C20.61479568 33.47881042 20.91503143 34.25931763 21.22436523 35.06347656 C21.48861801 35.74742493 21.75287079 36.43137329 22.02513123 37.13604736 C22.72167504 39.1170851 23.32225017 41.03363036 23.71484375 43.09765625 C22.71484375 44.09765625 22.71484375 44.09765625 20.6484375 44.1953125 C17.18164062 44.14648438 17.18164062 44.14648438 13.71484375 44.09765625 C12.72484375 40.79765625 11.73484375 37.49765625 10.71484375 34.09765625 C2.29984375 34.59265625 2.29984375 34.59265625 -6.28515625 35.09765625 C-7.27515625 38.06765625 -8.26515625 41.03765625 -9.28515625 44.09765625 C-12.25515625 44.09765625 -15.22515625 44.09765625 -18.28515625 44.09765625 C-19.28515625 42.09765625 -19.28515625 42.09765625 -18.80471802 40.30735779 C-18.52127533 39.58645462 -18.23783264 38.86555145 -17.94580078 38.12280273 C-17.62862091 37.30533066 -17.31144104 36.48785858 -16.98464966 35.64561462 C-16.63264496 34.7622493 -16.28064026 33.87888397 -15.91796875 32.96875 C-15.56378876 32.06391373 -15.20960876 31.15907745 -14.84469604 30.2268219 C-14.0932649 28.31133648 -13.3381209 26.39730412 -12.57958984 24.48461914 C-11.41480541 21.54688203 -10.26111564 18.60498152 -9.109375 15.66210938 C-8.37955216 13.80573552 -7.64910442 11.94960719 -6.91796875 10.09375 C-6.57001251 9.20836044 -6.22205627 8.32297089 -5.86355591 7.41075134 C-5.54007172 6.59643143 -5.21658752 5.78211151 -4.88330078 4.94311523 C-4.59826691 4.22300766 -4.31323303 3.50290009 -4.01956177 2.76097107 C-2.92725025 0.28705456 -2.79457359 0.11942622 0 0 Z M1.71484375 12.09765625 C0.87949726 14.24270669 0.04661749 16.3887179 -0.78515625 18.53515625 C-1.24921875 19.73011719 -1.71328125 20.92507812 -2.19140625 22.15625 C-3.34324463 24.73084287 -3.34324463 24.73084287 -3.28515625 26.09765625 C0.34484375 26.09765625 3.97484375 26.09765625 7.71484375 26.09765625 C6.06484375 21.47765625 4.41484375 16.85765625 2.71484375 12.09765625 C2.38484375 12.09765625 2.05484375 12.09765625 1.71484375 12.09765625 Z " fill="#FFFFFF" transform="translate(230.28515625,4.90234375)"/>
<path d="M0 0 C2.77270108 2.20684371 4.42745556 3.85491112 6 7 C6.08449628 8.7404417 6.10723024 10.48409722 6.09765625 12.2265625 C6.09443359 13.2578125 6.09121094 14.2890625 6.08789062 15.3515625 C6.07951172 16.43179688 6.07113281 17.51203125 6.0625 18.625 C6.05798828 19.71296875 6.05347656 20.8009375 6.04882812 21.921875 C6.03701776 24.61463789 6.02054778 27.30729188 6 30 C2.66666667 30 -0.66666667 30 -4 30 C-4.65613281 30.10699219 -5.31226563 30.21398437 -5.98828125 30.32421875 C-12.30333215 31.31127713 -12.30333215 31.31127713 -15.9375 29.6875 C-19.83946488 26.49498328 -19.83946488 26.49498328 -20.75 23.6875 C-21.05182966 20.44283118 -20.57085983 18.84250827 -19 16 C-15.80320586 13.02469275 -13.02206666 12.41616159 -8.75 11.8125 C-7.67234375 11.65394531 -6.5946875 11.49539062 -5.484375 11.33203125 C-4.66453125 11.22246094 -3.8446875 11.11289062 -3 11 C-3.33 10.01 -3.66 9.02 -4 8 C-6.91652174 7.83318891 -6.91652174 7.83318891 -10 8 C-10.66 8.66 -11.32 9.32 -12 10 C-15.625 10.125 -15.625 10.125 -19 10 C-19.33 9.01 -19.66 8.02 -20 7 C-14.68524547 -0.65949917 -9.0958234 -2.35983596 0 0 Z M-11 19 C-11.33 19.99 -11.66 20.98 -12 22 C-11.67 22.66 -11.34 23.32 -11 24 C-6.65815798 23.81535634 -6.65815798 23.81535634 -3 22 C-2.95936168 20.33382885 -2.957279 18.66611905 -3 17 C-5.95855967 17 -8.27366306 17.89786379 -11 19 Z " fill="#FFFFFF" transform="translate(161,19)"/>
<path d="M0 0 C2.64 0 5.28 0 8 0 C10.31 4.62 12.62 9.24 15 14 C17.26063903 9.76777489 17.26063903 9.76777489 19.51733398 5.53344727 C21.88888889 1.11111111 21.88888889 1.11111111 23 0 C25.33297433 -0.04092937 27.66705225 -0.04241723 30 0 C31.14787279 3.44361838 30.92691515 3.79712565 29.46118164 6.9206543 C29.10073257 7.70123703 28.74028351 8.48181976 28.36891174 9.28605652 C27.97002243 10.12365005 27.57113312 10.96124359 27.16015625 11.82421875 C26.75921249 12.68561966 26.35826874 13.54702057 25.94517517 14.43452454 C24.66009483 17.18990106 23.36150113 19.93866302 22.0625 22.6875 C21.18985898 24.55231525 20.31810272 26.41754479 19.44726562 28.28320312 C17.30842097 32.86034262 15.15743392 37.43159499 13 42 C10.03 42 7.06 42 4 42 C4.56163178 37.64735371 6.26138128 34.22719953 8.2578125 30.37890625 C10.49736989 23.20053545 5.21691574 15.9442535 2.0625 9.72460938 C1.65773437 8.90412109 1.25296875 8.08363281 0.8359375 7.23828125 C0.46001465 6.49618408 0.0840918 5.75408691 -0.30322266 4.98950195 C-1 3 -1 3 0 0 Z " fill="#FFFFFF" transform="translate(170,18)"/>
<path d="M0 0 C6.15234375 -0.09765625 6.15234375 -0.09765625 8 0 C9 1 9 1 9.09765625 3.06640625 C9.08605469 3.89011719 9.07445312 4.71382812 9.0625 5.5625 C9.05347656 6.38878906 9.04445312 7.21507812 9.03515625 8.06640625 C9.02355469 8.70449219 9.01195312 9.34257812 9 10 C10.98 10 12.96 10 15 10 C15 12.64 15 15.28 15 18 C13.02 18 11.04 18 9 18 C9.495 26.415 9.495 26.415 10 35 C11.65 35.33 13.3 35.66 15 36 C15 38.64 15 41.28 15 44 C11.51732621 45.74133689 7.70113961 44.86930681 4 44 C1.54756539 42.09936318 0.37072573 40.74145145 -1 38 C-1.08372659 36.47851674 -1.10730027 34.95344222 -1.09765625 33.4296875 C-1.09443359 32.53378906 -1.09121094 31.63789062 -1.08789062 30.71484375 C-1.07951172 29.77769531 -1.07113281 28.84054688 -1.0625 27.875 C-1.05798828 26.93011719 -1.05347656 25.98523438 -1.04882812 25.01171875 C-1.03702357 22.67441613 -1.02055759 20.33723939 -1 18 C-1.804375 18.020625 -2.60875 18.04125 -3.4375 18.0625 C-6 18 -6 18 -7 17 C-7.04092937 14.66702567 -7.04241723 12.33294775 -7 10 C-5.02 9.67 -3.04 9.34 -1 9 C-0.67 6.03 -0.34 3.06 0 0 Z " fill="#FFFFFF" transform="translate(120,5)"/>
<path d="M0 0 C3.41916079 1.53405385 6.38913181 3.29023529 9 6 C9 9 9 9 6.5 11.6875 C5.675 12.450625 4.85 13.21375 4 14 C3.34644531 13.45859375 3.34644531 13.45859375 2.6796875 12.90625 C-0.40380741 10.50352669 -2.29061501 9.08185211 -6.25 8.625 C-9.08337611 8.92493183 -9.08337611 8.92493183 -12 10 C-12.34266399 14.02834196 -12.34266399 14.02834196 -12 18 C-9.62499209 20.87640616 -9.62499209 20.87640616 -7 23 C-7 23.66 -7 24.32 -7 25 C-11.08487085 28.97140221 -11.08487085 28.97140221 -14 29.0625 C-17.95630807 26.96071134 -20.58781958 24.23654125 -22 20 C-22.51853818 15.0611364 -22.55199525 11.14645166 -20.375 6.625 C-14.3580264 -0.02533925 -8.78997618 -1.51551313 0 0 Z " fill="#FF168A" transform="translate(22,0)"/>
<path d="M0 0 C2.64 0 5.28 0 8 0 C8 8.91 8 17.82 8 27 C5.36 27 2.72 27 0 27 C0 18.09 0 9.18 0 0 Z " fill="#FFFFFF" transform="translate(260,22)"/>
<path d="M0 0 C2.4375 0.75 2.4375 0.75 4.4375 2.75 C4.8125 5.1875 4.8125 5.1875 4.4375 7.75 C2.75 9.625 2.75 9.625 0.4375 10.75 C-3.97275641 10.33974359 -3.97275641 10.33974359 -5.5625 8.75 C-5.8125 5.3125 -5.8125 5.3125 -5.5625 1.75 C-2.5625 -0.25 -2.5625 -0.25 0 0 Z " fill="#FFFFFF" transform="translate(264.5625,5.25)"/>
</svg>
