<svg width="1400" height="1400" viewBox="0 0 1400 1400" fill="none" xmlns="http://www.w3.org/2000/svg">
<rect width="1400" height="1400" fill="#F5F2EE"/>
<mask id="mask0_2988_590" style="mask-type:alpha" maskUnits="userSpaceOnUse" x="235" y="588" width="930" height="223">
<path d="M713.436 742.785H720.091V768.747L704.44 768.953C672.911 769.59 666.769 750.713 666.769 724.976V681.637H647.811V657.174H666.769V629.752L698.873 618.558V657.174H723.09V681.637H698.873V719.39C698.873 734.404 699.51 742.764 713.457 742.764L713.436 742.785Z" fill="black"/>
<path d="M713.436 742.785H720.091V768.747L704.44 768.953C672.911 769.59 666.769 750.713 666.769 724.976V681.637H647.811V657.174H666.769V629.752L698.873 618.558V657.174H723.09V681.637H698.873V719.39C698.873 734.404 699.51 742.764 713.457 742.764L713.436 742.785Z" fill="#FEF0FF"/>
<path d="M783.519 653.312C814.206 653.312 833.288 668.963 833.288 702.875V738.06C833.288 746.646 833.493 759.935 835.424 768.09H803.032C802.395 765.522 801.964 761.661 801.964 759.73V753.301H801.759C796.172 762.523 786.744 771.315 768.299 771.315C745.561 771.315 729.252 758.23 729.252 737.855C729.252 708.03 763.801 703.532 778.589 701.601C792.536 699.876 801.122 699.034 801.122 689.38C801.122 681.02 793.83 676.933 783.54 676.933C774.091 676.933 767.231 682.294 764.437 691.516H734.182C737.838 671.777 754.352 653.332 783.519 653.332V653.312ZM778.589 747.919C790.605 747.919 801.553 741.264 801.553 716.596L801.348 710.803C798.554 715.302 792.557 719.163 780.972 721.751C767.025 724.75 762.301 729.269 762.301 735.698C762.301 742.127 766.594 747.919 778.61 747.919H778.589Z" fill="black"/>
<path d="M783.519 653.312C814.206 653.312 833.288 668.963 833.288 702.875V738.06C833.288 746.646 833.493 759.935 835.424 768.09H803.032C802.395 765.522 801.964 761.661 801.964 759.73V753.301H801.759C796.172 762.523 786.744 771.315 768.299 771.315C745.561 771.315 729.252 758.23 729.252 737.855C729.252 708.03 763.801 703.532 778.589 701.601C792.536 699.876 801.122 699.034 801.122 689.38C801.122 681.02 793.83 676.933 783.54 676.933C774.091 676.933 767.231 682.294 764.437 691.516H734.182C737.838 671.777 754.352 653.332 783.519 653.332V653.312ZM778.589 747.919C790.605 747.919 801.553 741.264 801.553 716.596L801.348 710.803C798.554 715.302 792.557 719.163 780.972 721.751C767.025 724.75 762.301 729.269 762.301 735.698C762.301 742.127 766.594 747.919 778.61 747.919H778.589Z" fill="#FEF0FF"/>
<path d="M892.793 732.27H893.429C898.359 710.6 906.514 686.136 914.668 657.175H949.216C906.308 779.039 947.922 662.104 902.241 790.398C897.311 803.708 888.294 811 873.28 811H848.385V786.331H860.175C866.604 786.331 871.123 784.832 873.054 777.54L875.416 769.817C858.47 722.616 846.454 691.518 834.664 657.195H869.418C877.346 684.226 885.07 705.67 892.793 732.29V732.27Z" fill="black"/>
<path d="M892.793 732.27H893.429C898.359 710.6 906.514 686.136 914.668 657.175H949.216C906.308 779.039 947.922 662.104 902.241 790.398C897.311 803.708 888.294 811 873.28 811H848.385V786.331H860.175C866.604 786.331 871.123 784.832 873.054 777.54L875.416 769.817C858.47 722.616 846.454 691.518 834.664 657.195H869.418C877.346 684.226 885.07 705.67 892.793 732.29V732.27Z" fill="#FEF0FF"/>
<path d="M584.403 611.266C556.304 611.266 527.548 624.781 527.548 653.743C527.548 685.498 552.443 694.72 577.748 702.443C597.262 708.441 609.072 712.097 609.072 725.612C609.072 737.403 601.144 743.421 585.266 743.421C570.272 743.421 558.913 734.609 556.448 720.046H521.058C526.275 755.355 552.607 771.725 585.287 771.725C614.454 771.725 643.004 757.347 643.004 726.023C643.004 694.7 617.904 685.477 591.51 677.549C572.203 671.756 561.481 666.395 561.481 655.447C561.481 644.5 570.929 639.365 583.356 639.365C596.419 639.365 603.978 644.89 607.347 657.173H642.06C636.966 623.816 613.981 611.266 584.424 611.266H584.403Z" fill="black"/>
<path d="M584.403 611.266C556.304 611.266 527.548 624.781 527.548 653.743C527.548 685.498 552.443 694.72 577.748 702.443C597.262 708.441 609.072 712.097 609.072 725.612C609.072 737.403 601.144 743.421 585.266 743.421C570.272 743.421 558.913 734.609 556.448 720.046H521.058C526.275 755.355 552.607 771.725 585.287 771.725C614.454 771.725 643.004 757.347 643.004 726.023C643.004 694.7 617.904 685.477 591.51 677.549C572.203 671.756 561.481 666.395 561.481 655.447C561.481 644.5 570.929 639.365 583.356 639.365C596.419 639.365 603.978 644.89 607.347 657.173H642.06C636.966 623.816 613.981 611.266 584.424 611.266H584.403Z" fill="#FEF0FF"/>
<path d="M1164.76 614.925H1130.44V768.092H1164.76V614.925Z" fill="black"/>
<path d="M1164.76 614.925H1130.44V768.092H1164.76V614.925Z" fill="#FEF0FF"/>
<path d="M1062.45 614.925H1030.78L976.082 768.092H1011.9L1024.08 731.202H1075.17L1087.35 768.092H1123.17L1068.47 614.925H1062.47H1062.45ZM1033 704.172L1049.62 653.807L1066.23 704.172H1033Z" fill="black"/>
<path d="M1062.45 614.925H1030.78L976.082 768.092H1011.9L1024.08 731.202H1075.17L1087.35 768.092H1123.17L1068.47 614.925H1062.47H1062.45ZM1033 704.172L1049.62 653.807L1066.23 704.172H1033Z" fill="#FEF0FF"/>
<path d="M323.913 648.425L352.382 619.956L373.743 641.318L352.382 619.956L323.913 648.425Z" fill="black"/>
<path d="M323.913 648.425L352.382 619.956L373.743 641.318L352.382 619.956L323.913 648.425Z" fill="#FEF0FF"/>
<path d="M281.19 634.19C289.057 626.323 301.812 626.323 309.658 634.19L323.893 648.424L352.382 619.935L338.147 605.7C314.547 582.1 276.301 582.1 252.7 605.7C229.1 629.301 229.1 667.547 252.7 691.147L266.935 705.382L295.424 676.893L281.19 662.658C273.323 654.791 273.323 642.036 281.19 634.169V634.19Z" fill="black"/>
<path d="M281.19 634.19C289.057 626.323 301.812 626.323 309.658 634.19L323.893 648.424L352.382 619.935L338.147 605.7C314.547 582.1 276.301 582.1 252.7 605.7C229.1 629.301 229.1 667.547 252.7 691.147L266.935 705.382L295.424 676.893L281.19 662.658C273.323 654.791 273.323 642.036 281.19 634.169V634.19Z" fill="#FEF0FF"/>
<path d="M452.062 605.7C428.461 582.1 390.216 582.1 366.615 605.7L352.381 619.935L373.742 641.296L380.87 648.424L352.381 676.913L323.892 648.424L295.402 676.913L323.892 705.402L295.402 733.891L323.892 762.381L341.186 779.675C347.348 785.837 357.372 785.837 363.534 779.675L380.829 762.381L437.787 705.423L452.021 691.188C475.622 667.588 475.622 629.342 452.021 605.742L452.062 605.7Z" fill="black"/>
<path d="M452.062 605.7C428.461 582.1 390.216 582.1 366.615 605.7L352.381 619.935L373.742 641.296L380.87 648.424L352.381 676.913L323.892 648.424L295.402 676.913L323.892 705.402L295.402 733.891L323.892 762.381L341.186 779.675C347.348 785.837 357.372 785.837 363.534 779.675L380.829 762.381L437.787 705.423L452.021 691.188C475.622 667.588 475.622 629.342 452.021 605.742L452.062 605.7Z" fill="#FEF0FF"/>
</mask>
<g mask="url(#mask0_2988_590)">
<rect x="1290.38" y="213.219" width="723.898" height="1181.38" rx="15" transform="rotate(90 1290.38 213.219)" fill="#FEF0FF"/>
<rect x="1290.38" y="213.219" width="723.898" height="1181.38" rx="15" transform="rotate(90 1290.38 213.219)" fill="url(#paint0_radial_2988_590)"/>
<rect x="1290.38" y="213.219" width="723.898" height="1181.38" rx="15" transform="rotate(90 1290.38 213.219)" fill="url(#paint1_radial_2988_590)"/>
<rect x="1290.38" y="213.219" width="723.898" height="1181.38" rx="15" transform="rotate(90 1290.38 213.219)" fill="url(#paint2_radial_2988_590)"/>
</g>
<defs>
<radialGradient id="paint0_radial_2988_590" cx="0" cy="0" r="1" gradientUnits="userSpaceOnUse" gradientTransform="translate(1936.1 682.164) rotate(89.4701) scale(1252.38 776.957)">
<stop stop-color="#EC4E5A"/>
<stop offset="1" stop-color="#EC4E5A" stop-opacity="0"/>
</radialGradient>
<radialGradient id="paint1_radial_2988_590" cx="0" cy="0" r="1" gradientUnits="userSpaceOnUse" gradientTransform="translate(1397.52 1262.1) rotate(106.075) scale(1077.12 751.942)">
<stop stop-color="#A020F0"/>
<stop offset="1" stop-color="#A020F0" stop-opacity="0"/>
</radialGradient>
<radialGradient id="paint2_radial_2988_590" cx="0" cy="0" r="1" gradientUnits="userSpaceOnUse" gradientTransform="translate(1989.46 1159.43) rotate(93.5625) scale(672.806 506.567)">
<stop stop-color="#FD6D4E"/>
<stop offset="1" stop-color="#FD6D4E" stop-opacity="0"/>
</radialGradient>
</defs>
</svg>
