<svg width="192" height="192" viewBox="0 0 192 192" fill="none" xmlns="http://www.w3.org/2000/svg">
<g clip-path="url(#clip0)">
<path fill-rule="evenodd" clip-rule="evenodd" d="M192 97.2801C192 83.6267 185.387 72.8534 172.747 72.8534C160.054 72.8534 152.374 83.6267 152.374 97.1734C152.374 113.227 161.44 121.333 174.454 121.333C180.8 121.333 185.6 119.893 189.227 117.867V107.2C185.6 109.013 181.44 110.133 176.16 110.133C170.987 110.133 166.4 108.32 165.814 102.027H191.894C191.894 101.333 192 98.5601 192 97.2801ZM165.654 92.2134C165.654 86.1867 169.334 83.6801 172.694 83.6801C175.947 83.6801 179.414 86.1867 179.414 92.2134H165.654Z" fill="#635BFF"/>
<path fill-rule="evenodd" clip-rule="evenodd" d="M131.787 72.8534C126.56 72.8534 123.2 75.3067 121.333 77.0134L120.64 73.7067H108.907V135.893L122.24 133.067L122.293 117.973C124.213 119.36 127.04 121.333 131.733 121.333C141.28 121.333 149.973 113.653 149.973 96.7467C149.92 81.2801 141.12 72.8534 131.787 72.8534ZM128.587 109.6C125.44 109.6 123.573 108.48 122.293 107.093L122.24 87.3067C123.627 85.7601 125.547 84.6934 128.587 84.6934C133.44 84.6934 136.8 90.1334 136.8 97.1201C136.8 104.267 133.493 109.6 128.587 109.6Z" fill="#635BFF"/>
<path fill-rule="evenodd" clip-rule="evenodd" d="M90.5598 69.7067L103.946 66.8267V56L90.5598 58.8267V69.7067Z" fill="#635BFF"/>
<path d="M103.946 73.76H90.5598V120.427H103.946V73.76Z" fill="#635BFF"/>
<path fill-rule="evenodd" clip-rule="evenodd" d="M76.2134 77.7067L75.3601 73.76H63.8401V120.427H77.1734V88.8C80.3201 84.6933 85.6534 85.44 87.3068 86.0267V73.76C85.6001 73.12 79.3601 71.9467 76.2134 77.7067Z" fill="#635BFF"/>
<path fill-rule="evenodd" clip-rule="evenodd" d="M49.5466 62.1867L36.5333 64.9601L36.48 107.68C36.48 115.573 42.4 121.387 50.2933 121.387C54.6666 121.387 57.8666 120.587 59.6266 119.627V108.8C57.92 109.493 49.4933 111.947 49.4933 104.053V85.1201H59.6266V73.7601H49.4933L49.5466 62.1867Z" fill="#635BFF"/>
<path fill-rule="evenodd" clip-rule="evenodd" d="M13.4933 87.3067C13.4933 85.2267 15.2 84.4267 18.0267 84.4267C22.08 84.4267 27.2 85.6534 31.2533 87.8401V75.3067C26.8267 73.5467 22.4533 72.8534 18.0267 72.8534C7.2 72.8534 0 78.5067 0 87.9467C0 102.667 20.2667 100.32 20.2667 106.667C20.2667 109.12 18.1333 109.92 15.1467 109.92C10.72 109.92 5.06667 108.107 0.586666 105.653V118.347C5.54667 120.48 10.56 121.387 15.1467 121.387C26.24 121.387 33.8667 115.893 33.8667 106.347C33.8133 90.4534 13.4933 93.2801 13.4933 87.3067Z" fill="#635BFF"/>
</g>
<defs>
<clipPath id="clip0">
<rect width="192" height="192" fill="white"/>
</clipPath>
</defs>
</svg>

<!-- compilation of 3 svg objs that seems to work better -->
<svg version="1.1" xmlns="http://www.w3.org/2000/svg" width="16" height="16">
<path d="M0 0 C5.28 0 10.56 0 16 0 C16 5.28 16 10.56 16 16 C10.72 16 5.44 16 0 16 C0 10.72 0 5.44 0 0 Z " fill="#655DFF" transform="translate(0,0)"/>
<path d="M0 0 C1.2065625 0.0309375 1.2065625 0.0309375 2.4375 0.0625 C2.251875 0.619375 2.06625 1.17625 1.875 1.75 C1.36311498 4.45567796 1.86093384 6.39588149 2.4375 9.0625 C1.4375 10.0625 1.4375 10.0625 -1.125 10.125 C-1.929375 10.104375 -2.73375 10.08375 -3.5625 10.0625 C-3.376875 9.505625 -3.19125 8.94875 -3 8.375 C-2.48811498 5.66932204 -2.98593384 3.72911851 -3.5625 1.0625 C-2.5625 0.0625 -2.5625 0.0625 0 0 Z " fill="#E7E6FF" transform="translate(8.5625,2.9375)"/>
</svg>

<svg version="1.1" xmlns="http://www.w3.org/2000/svg" width="32" height="32">
<path d="M0 0 C10.56 0 21.12 0 32 0 C32 10.56 32 21.12 32 32 C21.44 32 10.88 32 0 32 C0 21.44 0 10.88 0 0 Z " fill="#645CFD" transform="translate(0,0)"/>
<path d="M0 0 C0.66 0.33 1.32 0.66 2 1 C2 2.65 2 4.3 2 6 C-0.31 5.67 -2.62 5.34 -5 5 C-3.49650603 8.00698793 -0.9581052 8.58257459 2 10 C2.33 10.33 2.66 10.66 3 11 C2.4 17.6 2.4 17.6 0 20 C-1.875 20.23046875 -1.875 20.23046875 -4 20.1875 C-4.70125 20.18105469 -5.4025 20.17460937 -6.125 20.16796875 C-8 20 -8 20 -10 19 C-10 17.35 -10 15.7 -10 14 C-7.69 14.33 -5.38 14.66 -3 15 C-4.37858851 12.24282298 -6.37466315 11.53678254 -9 10 C-9.66 9.34 -10.32 8.68 -11 8 C-10.8125 5 -10.8125 5 -10 2 C-6.33134759 -0.44576827 -4.32799657 -0.23607254 0 0 Z " fill="#F3F3FF" transform="translate(20,6)"/>
<path d="M0 0 C0 0.33 0 0.66 0 1 C-1.0725 1.226875 -2.145 1.45375 -3.25 1.6875 C-7.37218701 3.13026545 -8.64414523 4.41910075 -11 8 C-10.6875 5.125 -10.6875 5.125 -10 2 C-6.3558226 -0.4294516 -4.28758728 -0.16179575 0 0 Z " fill="#D9D7FF" transform="translate(20,6)"/>
</svg>

<svg version="1.1" xmlns="http://www.w3.org/2000/svg" width="48" height="48">
<path d="M0 0 C15.84 0 31.68 0 48 0 C48 15.84 48 31.68 48 48 C32.16 48 16.32 48 0 48 C0 32.16 0 16.32 0 0 Z " fill="#645CFD" transform="translate(0,0)"/>
<path d="M0 0 C0.76441406 0.00644531 1.52882813 0.01289063 2.31640625 0.01953125 C4.4375 0.1875 4.4375 0.1875 7.4375 1.1875 C7.4375 3.8275 7.4375 6.4675 7.4375 9.1875 C4.1375 8.8575 0.8375 8.5275 -2.5625 8.1875 C-2.5625 8.8475 -2.5625 9.5075 -2.5625 10.1875 C-1.85222656 10.53683594 -1.14195313 10.88617188 -0.41015625 11.24609375 C0.50894531 11.70113281 1.42804687 12.15617187 2.375 12.625 C3.29152344 13.07746094 4.20804688 13.52992187 5.15234375 13.99609375 C7.4375 15.1875 7.4375 15.1875 8.4375 16.1875 C8.93973543 19.26448669 8.95950232 22.11290636 8.4375 25.1875 C5.59605002 28.95050132 5.59605002 28.95050132 2.4375 30.1875 C-2.81409456 30.89070497 -7.07881274 31.17662484 -11.5625 28.1875 C-11.75 24.5625 -11.75 24.5625 -11.5625 21.1875 C-5.6225 22.1775 -5.6225 22.1775 0.4375 23.1875 C0.4375 21.8675 0.4375 20.5475 0.4375 19.1875 C-0.449375 19.105 -1.33625 19.0225 -2.25 18.9375 C-6.13271127 18.05839556 -7.86769057 17.1132931 -10.5625 14.1875 C-11.70259771 10.26841414 -11.97138632 8.15591496 -10.375 4.375 C-7.39087293 0.77346733 -4.60385862 -0.08568942 0 0 Z " fill="#F5F5FF" transform="translate(25.5625,8.8125)"/>
<path d="M0 0 C2.475 0.495 2.475 0.495 5 1 C4.01 1.33 3.02 1.66 2 2 C2 3.65 2 5.3 2 7 C6.62 7 11.24 7 16 7 C14 9 14 9 11.50390625 9.265625 C10.04791016 9.25789063 10.04791016 9.25789063 8.5625 9.25 C7.11037109 9.25773437 7.11037109 9.25773437 5.62890625 9.265625 C3 9 3 9 0 7 C-0.1875 3.375 -0.1875 3.375 0 0 Z " fill="#D4D2FF" transform="translate(14,30)"/>
<path d="M0 0 C2.875 -0.125 2.875 -0.125 6 0 C6.66 0.66 7.32 1.32 8 2 C6.68 2 5.36 2 4 2 C4 2.66 4 3.32 4 4 C4.99 4.33 5.98 4.66 7 5 C6.01 5.495 6.01 5.495 5 6 C2.96855359 5.06553465 0.96466413 4.06775224 -1 3 C-0.67 2.01 -0.34 1.02 0 0 Z " fill="#837DFF" transform="translate(23,16)"/>
</svg>
