<svg width="192" height="192" viewBox="0 0 192 192" fill="none" xmlns="http://www.w3.org/2000/svg">
<path d="M51.8208 47.0311C38.1905 47.0311 36.2618 60.0791 36.1975 70.0078C36.1332 79.9365 37.8692 93.3652 51.5638 93.4289C65.2584 93.4925 67.1229 80.1913 67.1871 70.2626C67.2514 60.334 65.5154 47.0948 51.8208 47.0311ZM51.4351 119.46C15.8163 119.46 0 95.8477 0 69.8804C0 43.9131 16.3307 20.8102 51.9495 21.0012C87.5683 21.1921 103.385 44.4227 103.385 70.39C103.385 96.3574 86.9896 119.651 51.4994 119.46" fill="#123957"/>
<path d="M141.35 47.0327C127.864 47.0327 125.965 60.0807 125.965 70.0094C125.965 79.938 127.611 93.3668 141.096 93.4941C154.582 93.6214 156.482 80.1276 156.482 70.1989C156.482 60.2702 154.772 47.0963 141.286 47.0327H141.35ZM140.907 119.46C105.831 119.46 90.2563 95.8492 90.2563 69.8182C90.2563 43.7873 106.401 20.8102 141.35 21.0012C176.298 21.1921 192 44.4227 192 70.39C192 96.3574 175.855 119.651 140.843 119.46" fill="#123957"/>
<path d="M13.1282 119.462C38.7504 130.588 66.4601 136.229 94.4397 136.014C122.817 136.386 150.977 131.081 177.231 120.417V151.674C151.485 164.205 123.13 170.593 94.4397 170.325C66.1422 170.312 38.2598 163.59 13.1282 150.719V119.462Z" fill="#123957"/>
</svg>
