<?xml version="1.0" encoding="utf-8"?>
<!-- Generator: Adobe Illustrator 23.0.1, SVG Export Plug-In . SVG Version: 6.00 Build 0)  -->
<svg version="1.1" id="Layer_1" xmlns="http://www.w3.org/2000/svg" xmlns:xlink="http://www.w3.org/1999/xlink" x="0px" y="0px"
	 viewBox="0 0 216 216" style="enable-background:new 0 0 216 216;" xml:space="preserve">
<style type="text/css">
	.st0{fill:none;stroke:#7F7D79;stroke-width:0;stroke-miterlimit:10;}
</style>
<g>
	<path className="st0" d="M117.91,109.33c-0.41,13.36-4.87,25.2-13.37,35.53c-8.7,10.56-21.34,17.55-34.72,19.79
		c-0.12,0.02-0.17,0.17-0.08,0.25c7.84,7.8,16.12,16.09,24.85,24.86c1.5,1.51,2.89,2.76,4.16,3.74c6.39,4.93,13.67,7.36,21.84,7.3
		c9.28-0.07,17.85-3.89,24.37-10.41c19.32-19.33,38.57-38.58,57.74-57.74c12.05-12.04,13.66-31.09,3.69-45
		c-0.91-1.27-1.77-2.31-2.58-3.12c-19.66-19.7-39.19-39.23-58.58-58.6c-1.79-1.78-3.33-3.14-4.62-4.06
		c-6.32-4.53-13.37-6.75-21.13-6.66c-7.25,0.08-14.27,2.54-20.1,6.82c-1.34,0.98-2.84,2.31-4.52,3.99
		c-8.22,8.26-16.56,16.61-25.04,25.06c-0.11,0.11-0.05,0.29,0.1,0.32c3.77,0.63,7.29,1.56,10.57,2.79c0.92,0.35,1.88,0.74,2.89,1.17
		c3.61,1.57,6.98,3.45,10.13,5.65c13.36,9.36,22.27,24.26,24.07,40.51C117.86,104.26,117.98,106.86,117.91,109.33 M32.7,158.22
		c11.39,6.22,23.55,8.4,36.48,6.53c0.16-0.02,0.22-0.22,0.11-0.33c-13.81-13.51-22.07-31.56-23.51-50.83
		c-0.91-12.26,1.19-24.68,5.86-35.9c3.99-9.6,9.71-18.15,17.15-25.63c0.16-0.16,0.33-0.3,0.51-0.41c0.07-0.05,0.12-0.11,0.13-0.19
		c0.02-0.1-0.02-0.16-0.13-0.18c-6.85-1-13.47-0.87-19.88,0.41c-19.09,3.8-34.69,16.72-42.1,34.71C3.2,96.41,2.1,107.59,4.01,118.09
		c2.28,12.56,8.13,23.25,17.56,32.08C24.96,153.33,28.66,156.02,32.7,158.22"/>
	<path d="M117.91,109.33c0.07-2.47-0.04-5.07-0.34-7.81c-1.8-16.25-10.7-31.15-24.07-40.51c-3.14-2.2-6.52-4.08-10.13-5.65
		c-1-0.44-1.96-0.83-2.89-1.17c-3.28-1.23-6.81-2.16-10.57-2.79c-0.15-0.03-0.21-0.21-0.1-0.32c8.47-8.45,16.82-16.8,25.04-25.06
		c1.67-1.68,3.18-3.01,4.52-3.99c5.83-4.28,12.85-6.74,20.1-6.82c7.77-0.09,14.81,2.13,21.13,6.66c1.29,0.92,2.83,2.28,4.62,4.06
		c19.39,19.37,38.92,38.91,58.58,58.6c0.81,0.81,1.67,1.85,2.58,3.12c9.97,13.9,8.36,32.96-3.69,45
		c-19.17,19.16-38.41,38.41-57.74,57.74c-6.52,6.52-15.09,10.34-24.37,10.41c-8.17,0.06-15.45-2.37-21.84-7.3
		c-1.27-0.98-2.66-2.23-4.16-3.74c-8.72-8.77-17.01-17.06-24.85-24.86c-0.09-0.09-0.04-0.23,0.08-0.25
		c13.38-2.24,26.02-9.23,34.72-19.79C113.04,134.53,117.5,122.69,117.91,109.33L117.91,109.33z"/>
	<path d="M32.7,158.22c-4.03-2.2-7.74-4.88-11.12-8.05c-9.43-8.82-15.29-19.52-17.56-32.08c-1.9-10.5-0.81-21.67,3.32-31.69
		c7.41-17.98,23.01-30.9,42.1-34.71c6.41-1.28,13.03-1.41,19.88-0.41c0.1,0.02,0.15,0.08,0.13,0.18c-0.02,0.08-0.06,0.15-0.13,0.19
		c-0.18,0.11-0.35,0.25-0.51,0.41c-7.45,7.49-13.16,16.03-17.15,25.63c-4.67,11.22-6.77,23.64-5.86,35.9
		c1.44,19.26,9.69,37.31,23.51,50.83c0.12,0.11,0.05,0.31-0.11,0.33C56.25,166.61,44.08,164.44,32.7,158.22L32.7,158.22z"/>
</g>
</svg>
