<?xml version="1.0" encoding="utf-8"?>
<!-- Generator: Adobe Illustrator 23.0.1, SVG Export Plug-In . SVG Version: 6.00 Build 0)  -->
<svg version="1.1" id="Layer_1" xmlns="http://www.w3.org/2000/svg" xmlns:xlink="http://www.w3.org/1999/xlink" x="0px" y="0px"
	 viewBox="0 0 216 216" style="enable-background:new 0 0 216 216;" xml:space="preserve">
<style type="text/css">
	.st0{fill:none;stroke:#808080;stroke-width:0;stroke-miterlimit:10;}
</style>
<g>
	<path className="st0" d="M4.64,30.87c-0.1,0-0.19,0.09-0.19,0.19v44.56c0,0.1,0.09,0.19,0.19,0.19h206.71c0.1,0,0.19-0.09,0.19-0.19
		V31.05c0-0.1-0.09-0.19-0.19-0.19L4.64,30.87 M129.3,85.73c0-0.1-0.09-0.19-0.19-0.19H45.84c-0.1,0-0.19,0.09-0.19,0.19v44.55
		c0,0.1,0.09,0.19,0.19,0.19h83.27c0.1,0,0.19-0.09,0.19-0.19V85.73 M129.3,140.37c0-0.11-0.09-0.2-0.2-0.2H86.98
		c-0.11,0-0.2,0.09-0.2,0.2v44.57c0,0.11,0.09,0.2,0.2,0.2h42.11c0.11,0,0.2-0.09,0.2-0.2V140.37"/>
	<path d="M4.64,30.87l206.71-0.01c0.1,0,0.19,0.09,0.19,0.19v44.57c0,0.1-0.09,0.19-0.19,0.19H4.64c-0.1,0-0.19-0.09-0.19-0.19
		V31.05C4.45,30.95,4.54,30.87,4.64,30.87L4.64,30.87z"/>
	<path d="M129.3,130.27c0,0.1-0.09,0.19-0.19,0.19H45.84c-0.1,0-0.19-0.09-0.19-0.19V85.73c0-0.1,0.09-0.19,0.19-0.19h83.27
		c0.1,0,0.19,0.09,0.19,0.19V130.27L129.3,130.27z"/>
	<path d="M129.3,184.94c0,0.11-0.09,0.2-0.2,0.2H86.98c-0.11,0-0.2-0.09-0.2-0.2v-44.57c0-0.11,0.09-0.2,0.2-0.2h42.11
		c0.11,0,0.2,0.09,0.2,0.2V184.94L129.3,184.94z"/>
</g>
</svg>
