<svg width="192" height="192" viewBox="0 0 192 192" fill="none" xmlns="http://www.w3.org/2000/svg">
<path d="M192 36.472C184.936 39.608 177.344 41.72 169.376 42.672C177.512 37.8 183.76 30.08 186.696 20.88C179.088 25.392 170.656 28.672 161.68 30.44C154.504 22.784 144.256 18 132.928 18C107.496 18 88.808 41.728 94.552 66.36C61.824 64.72 32.8 49.04 13.368 25.208C3.048 42.912 8.016 66.072 25.552 77.8C19.104 77.592 13.024 75.824 7.72 72.872C7.288 91.12 20.368 108.192 39.312 111.992C33.768 113.496 27.696 113.848 21.52 112.664C26.528 128.312 41.072 139.696 58.32 140.016C41.76 153 20.896 158.8 0 156.336C17.432 167.512 38.144 174.032 60.384 174.032C133.52 174.032 174.84 112.264 172.344 56.864C180.04 51.304 186.72 44.368 192 36.472Z" fill="#3396E9"/>
</svg>
