<?xml version="1.0" standalone="no"?>
<!DOCTYPE svg PUBLIC "-//W3C//DTD SVG 20010904//EN"
 "http://www.w3.org/TR/2001/REC-SVG-20010904/DTD/svg10.dtd">
<svg version="1.0" xmlns="http://www.w3.org/2000/svg"
 width="60.000000pt" height="60.000000pt" viewBox="0 0 60.000000 60.000000"
 preserveAspectRatio="xMidYMid meet">

<g transform="translate(0.000000,60.000000) scale(0.100000,-0.100000)"
fill="#000000" stroke="none">
<path d="M0 300 l0 -300 300 0 300 0 0 300 0 300 -300 0 -300 0 0 -300z m327
88 c-3 -13 -11 -49 -17 -81 -6 -32 -13 -57 -15 -55 -19 19 -115 145 -115 151
0 4 34 7 76 7 74 0 76 -1 71 -22z m119 -25 c-8 -58 -16 -66 -48 -54 -32 12
-58 48 -58 78 0 21 4 23 56 23 l57 0 -7 -47z m-170 -108 l57 -70 -73 -3 c-40
-2 -75 -1 -77 2 -8 7 19 147 28 144 4 -2 33 -34 65 -73z"/>
</g>
</svg>
