<svg width="150" height="30" viewBox="0 0 150 30" fill="none" xmlns="http://www.w3.org/2000/svg">
<path fill-rule="evenodd" clip-rule="evenodd" d="M29.9466 14.9889C29.9466 23.2585 23.2428 29.9622 14.9733 29.9622C6.70377 29.9622 0 23.2585 0 14.9889C0 6.7194 6.70377 0.015625 14.9733 0.015625C23.2428 0.015625 29.9466 6.7194 29.9466 14.9889ZM8.98127 20.9129H16.4024C16.5163 20.9129 16.5733 20.7708 16.5163 20.6714L10.5196 13.2422C10.4341 13.1428 10.2917 13.1854 10.2632 13.299L8.82457 20.7282C8.81032 20.8277 8.88155 20.9129 8.98127 20.9129ZM8.84177 9.69873H16.2629C16.3626 9.69873 16.4338 9.78396 16.4196 9.8834L14.9809 17.3126C14.9524 17.4263 14.81 17.4689 14.7245 17.3695L8.72781 9.92601C8.65658 9.84078 8.71356 9.69873 8.84177 9.69873ZM17.0174 9.81237C17.0316 9.75555 17.0886 9.69873 17.1598 9.69873H22.5013C22.5868 9.69873 22.6723 9.78396 22.658 9.86919L21.6609 14.6989C21.6467 14.7699 21.5897 14.8125 21.5185 14.8125H21.3619C18.7267 14.8125 16.6328 12.3834 17.0174 9.81237Z" fill="#3901F1"/>
<path d="M40.9973 8.65616H46.3309C46.5809 8.65616 46.7476 8.79506 46.6921 9.07285L46.3865 10.7951C47.4421 9.26731 48.97 8.35059 50.5256 8.35059C51.3034 8.35059 52.1368 8.65616 52.5813 9.07285C52.8313 9.32286 52.8313 9.46176 52.6646 9.71177L51.109 11.9063C50.9145 12.1841 50.7756 12.1563 50.47 12.0174C50.1645 11.8785 49.7756 11.7674 49.3589 11.7674C47.4977 11.7674 45.942 12.9897 45.2198 16.6844L44.1364 22.268C44.053 22.6291 43.7752 22.7125 43.6363 22.7125H40.8028C40.5806 22.7125 40.3862 22.518 40.4417 22.268L42.5529 11.5452L40.7751 9.04507C40.6362 8.85062 40.7473 8.65616 40.9973 8.65616Z" fill="#3901F1"/>
<path d="M51.2189 15.5732C51.9412 11.2118 55.1358 8.35059 59.3027 8.35059C63.5251 8.35059 65.5252 11.7119 64.9141 15.3787C64.7752 16.3232 64.4418 17.0733 63.664 17.0733H54.6635C54.7469 19.1289 56.1636 20.1012 58.0526 20.1012C59.3027 20.1012 60.4694 19.629 61.3583 19.0456C61.5806 18.8789 61.8306 18.7956 61.9973 19.0456L63.0251 20.6568C63.1918 20.9068 63.1084 21.0735 62.8584 21.2957C61.525 22.518 59.3582 23.0736 57.3859 23.0736C52.9412 23.0736 50.5244 19.7956 51.2189 15.5732ZM61.6917 14.6287C61.8306 12.4341 60.3305 11.5174 58.886 11.5174C56.997 11.5174 55.5247 12.7953 54.9691 14.6287H61.6917Z" fill="#3901F1"/>
<path d="M78.3595 22.3792L81.5819 5.93384L79.9985 3.82262C79.9152 3.68372 80.0263 3.48926 80.2207 3.48926H85.1654C85.4432 3.48926 85.5821 3.65594 85.5266 3.90595L84.082 11.1563C85.1932 9.48959 86.86 8.35064 88.8045 8.35064C91.9158 8.35064 93.6937 11.0174 93.027 14.2954L91.4158 22.268C91.3602 22.5736 91.1102 22.7125 90.9158 22.7125H87.9989C87.7211 22.7125 87.5822 22.5458 87.6378 22.268L89.0823 15.0732C89.4712 13.1287 88.9434 11.9341 87.7489 11.9341C85.5266 11.9341 83.7765 14.4343 83.0264 17.9623L82.0819 22.3792C82.0542 22.5458 81.9153 22.7125 81.7208 22.7125H78.6373C78.4706 22.7125 78.3317 22.5458 78.3595 22.3792Z" fill="#3901F1"/>
<path d="M94.0282 15.7399C94.7504 11.1007 98.0284 8.35059 101.862 8.35059C103.89 8.35059 105.473 9.26731 106.084 10.7951L106.418 9.10063C106.473 8.79506 106.696 8.65616 106.946 8.65616H109.64C109.946 8.65616 110.057 8.85062 110.001 9.10063L107.418 22.2958C107.362 22.5458 107.196 22.7125 106.89 22.7125H104.168C103.918 22.7125 103.779 22.5736 103.834 22.2958L104.084 20.9346C102.806 22.3791 101.223 23.1014 99.5007 23.1014C95.5838 23.1014 93.3892 19.8512 94.0282 15.7399ZM100.612 19.7401C102.862 19.7401 104.529 17.8511 104.862 15.6287C105.195 13.4064 104.001 11.7396 101.917 11.7396C99.6951 11.7396 98.0839 13.5453 97.7228 15.6565C97.3617 17.7955 98.4451 19.7401 100.612 19.7401Z" fill="#3901F1"/>
<path d="M109.168 22.268L111.78 9.01729C111.835 8.79506 111.946 8.65616 112.113 8.65616H115.057C115.308 8.65616 115.474 8.79506 115.419 9.07285L115.113 10.7951C116.169 9.26731 117.697 8.35059 119.252 8.35059C120.03 8.35059 120.863 8.65616 121.308 9.07285C121.558 9.32286 121.558 9.46176 121.391 9.71177L119.836 11.9063C119.641 12.1841 119.502 12.1563 119.197 12.0174C118.891 11.8785 118.502 11.7674 118.085 11.7674C116.224 11.7674 114.669 12.9897 113.946 16.6844L112.863 22.268C112.78 22.6291 112.502 22.7125 112.363 22.7125H109.529C109.307 22.7125 109.113 22.518 109.168 22.268Z" fill="#3901F1"/>
<path d="M118.864 26.7405C118.697 26.6016 118.697 26.3793 118.808 26.1849L120.114 24.1292C120.253 23.907 120.475 23.8514 120.642 23.9903C121.92 24.7959 123.17 25.2959 124.698 25.2959C127.364 25.2959 129.587 24.2125 130.365 20.629C128.892 22.018 127.531 22.6847 125.475 22.6847C121.447 22.6847 119.336 19.2956 120.003 15.5176C120.753 11.2396 123.948 8.35059 127.976 8.35059C130.198 8.35059 131.726 9.60066 132.198 10.6285L132.531 9.10063C132.587 8.79506 132.781 8.65616 133.004 8.65616H135.726C136.004 8.65616 136.143 8.82284 136.087 9.10063L133.809 20.7124C132.809 25.7682 129.309 28.4072 124.559 28.4072C122.559 28.4072 120.308 27.9072 118.864 26.7405ZM126.531 19.4345C128.781 19.4345 130.448 17.6289 130.781 15.4898C131.115 13.3508 129.92 11.7396 127.837 11.7396C125.614 11.7396 124.003 13.4897 123.642 15.5176C123.281 17.5733 124.364 19.4345 126.531 19.4345Z" fill="#3901F1"/>
<path d="M136.197 15.5732C136.92 11.2118 140.114 8.35059 144.281 8.35059C148.504 8.35059 150.504 11.7119 149.893 15.3787C149.754 16.3232 149.42 17.0733 148.643 17.0733H139.642C139.725 19.1289 141.142 20.1012 143.031 20.1012C144.281 20.1012 145.448 19.629 146.337 19.0456C146.559 18.8789 146.809 18.7956 146.976 19.0456L148.004 20.6568C148.17 20.9068 148.087 21.0735 147.837 21.2957C146.504 22.518 144.337 23.0736 142.364 23.0736C137.92 23.0736 135.503 19.7956 136.197 15.5732ZM146.67 14.6287C146.809 12.4341 145.309 11.5174 143.864 11.5174C141.976 11.5174 140.503 12.7953 139.948 14.6287H146.67Z" fill="#3901F1"/>
<path d="M72.1468 23.1014C74.008 23.1014 75.8414 22.5736 77.5082 20.9901C77.7582 20.7679 77.786 20.4623 77.6193 20.2957L76.0914 18.6011C75.9525 18.4345 75.7303 18.4345 75.5358 18.5733C74.8969 19.0456 73.8691 19.6012 72.6468 19.6012C70.4522 19.6012 69.2299 17.8789 69.5077 15.7121C69.7855 13.5731 71.4801 11.8508 73.6191 11.8508C74.7858 11.8508 75.5358 12.2674 76.3692 13.1008C76.5914 13.3231 76.7303 13.3231 76.9804 13.1286L78.9527 11.4341C79.1471 11.2674 79.2027 11.0729 79.0638 10.8507C77.8693 9.15619 76.0081 8.35059 73.9524 8.35059C69.8133 8.35059 66.452 11.4341 65.8964 15.5176C65.2853 19.9623 68.2299 23.1014 72.1468 23.1014Z" fill="#3901F1"/>
</svg>
